<svg width="211" height="42" viewBox="0 0 211 42" fill="none" xmlns="http://www.w3.org/2000/svg">
<path d="M30.7819 0.000337161L27.0137 3.74829L30.7819 7.49624L34.5501 3.74829L30.7819 0.000337161Z" fill="#FE4500"/>
<path d="M28.4984 7.49561L24.7311 3.74707H22.4482L26.2156 7.49561H28.4984Z" fill="#FE4500"/>
<path d="M23.9342 7.49563L16.3981 0H14.1167L21.6528 7.49563H23.9342Z" fill="#FE4500"/>
<path d="M35.3439 7.49561L39.1127 3.74707H36.8298L33.0625 7.49561H35.3439Z" fill="#FE4500"/>
<path d="M39.9083 7.49563L47.4444 0H45.1631L37.627 7.49563H39.9083Z" fill="#FE4500"/>
<path d="M51.9018 41.2426C51.9848 41.2426 60.2858 40.7035 60.2858 33.4774C60.2858 27.5974 55.7041 25.8847 53.7563 25.4312C57.276 23.7141 58.2724 20.5119 58.1909 18.0413C57.9927 11.5412 50.1667 11.2659 50.0837 11.2644H38.8662V41.244H51.9047L51.9018 41.2426ZM43.6956 12.7887H48.9401C49.6414 12.7854 50.3364 12.9201 50.9852 13.1849C51.634 13.4498 52.2237 13.8396 52.7205 14.3319C54.7397 16.3605 54.6027 19.3643 54.6027 19.4034C54.5459 20.9538 54.1963 23.0592 52.8545 24.2894C52.1261 24.9603 51.1617 25.1008 50.0036 25.1037H48.1184V26.6295H49.9977C52.4525 26.8961 56.1892 27.3699 56.1892 33.3644C56.1892 39.9225 50.2425 39.7197 49.5636 39.7226H43.6956V12.7887Z" fill="white"/>
<path d="M29.6887 24.8516L35.7942 11.2629H34.7045L31.0843 19.3121L27.4656 11.2629H23.3413L29.0739 23.788L28.7825 24.4299C28.637 24.7352 28.4115 24.996 28.1299 25.1848C27.808 25.4076 27.4436 25.562 27.0591 25.6384C26.6011 25.7177 26.1307 25.69 25.6853 25.5572C25.1276 25.4019 24.6055 25.1401 24.1484 24.7864L23.7463 24.4879L25.1288 28.2176C25.2308 28.2248 25.3342 28.2292 25.4362 28.2292C26.0495 28.2354 26.6562 28.1031 27.2106 27.8423C28.1619 27.3859 28.9908 26.3788 29.6887 24.8516Z" fill="white"/>
<path d="M10.4891 11.2629L0 41.2425H1.63892C2.13715 39.6095 5.86368 28.687 16.7636 27.9741L21.7459 41.2425H26.5927L15.3373 11.2629H10.4891ZM4.4899 33.0558L11.3297 13.5016L16.2362 26.5701C10.7804 27.0685 7.00145 29.9709 4.4899 33.0558Z" fill="white"/>
<path d="M69.9157 29.2942H67.8208V41.244H69.9157V29.2942Z" fill="white"/>
<path d="M82.2967 37.8693L75.1117 29.2942H73.9346V41.2426H75.3083V32.7037L82.4934 41.2426H83.6515V29.2942H82.2967V37.8693Z" fill="white"/>
<path d="M85.9839 30.6562L86.1529 30.6389C87.2571 30.5258 87.4757 30.5084 87.515 30.507C87.7306 30.4954 88.156 30.4882 88.7795 30.4882H89.6536V41.244H91.7281V30.4882H92.6022C93.2257 30.4882 93.6569 30.4954 93.8944 30.507C93.9905 30.507 94.1042 30.5142 94.2309 30.5258C94.3577 30.5374 94.5296 30.5577 94.7292 30.5823C94.9287 30.607 95.1079 30.6258 95.2492 30.6389L95.4168 30.6548V29.2942H85.9839V30.6562Z" fill="white"/>
<path d="M101.512 40.0299H99.9754V35.7815H100.506C101.725 35.7815 102.886 35.8134 103.954 35.8757L104.117 35.8858V34.5194L103.954 34.5296C102.886 34.5919 101.725 34.6238 100.506 34.6238H99.9754V30.4883H101.418C102.608 30.4883 103.773 30.5391 104.881 30.6332L105.05 30.6492V29.2886H97.9111V41.2384H105.137V39.859L104.968 39.8734C103.871 39.9792 102.706 40.0299 101.512 40.0299Z" fill="white"/>
<path d="M115.632 34.7643C116.124 34.1958 116.387 33.4667 116.372 32.7168C116.372 31.5214 115.92 30.6144 115.03 30.0188C114.14 29.4233 112.897 29.1494 111.315 29.1494C110.429 29.1367 109.544 29.1944 108.667 29.3219L108.539 29.3436V41.2514H110.615V36.2973C111.197 36.3195 111.526 36.3301 111.601 36.3292H111.797L114.743 41.2441H117.259L113.869 35.9553C114.55 35.7164 115.157 35.306 115.632 34.7643ZM113.468 34.573C112.995 35.0338 112.226 35.2671 111.183 35.2671C110.985 35.2671 110.794 35.2671 110.615 35.2439V30.226C110.911 30.1972 111.208 30.1836 111.506 30.1855C112.447 30.1855 113.139 30.3999 113.563 30.8216C113.987 31.2432 114.201 31.875 114.201 32.698C114.201 33.4834 113.956 34.1122 113.473 34.5715L113.468 34.573Z" fill="white"/>
<path d="M128.446 37.8693L121.259 29.2942H120.082V41.2426H121.456V32.7037L128.641 41.2426H129.799V29.2942H128.446V37.8693Z" fill="white"/>
<path d="M137.318 29.2942L132.462 41.244H134.173L135.427 37.7664H139.599L140.816 41.244H143.104L138.599 29.2942H137.318ZM135.835 36.6464L137.553 31.8922L139.202 36.6464H135.835Z" fill="white"/>
<path d="M153.985 39.3617C153.231 39.9413 152.298 40.2384 151.217 40.2384C149.906 40.2384 148.929 39.7819 148.243 38.8444C147.556 37.9069 147.191 36.6956 147.191 35.2118C147.18 34.3431 147.351 33.4816 147.692 32.6819C147.983 31.9712 148.473 31.358 149.102 30.9141C149.764 30.4676 150.55 30.2395 151.35 30.2621C152.253 30.2431 153.139 30.5044 153.885 31.0097L154.022 31.1039L154.715 29.923L154.584 29.8447C153.678 29.3043 152.577 29.029 151.312 29.029C150.188 29.0106 149.077 29.2774 148.085 29.8042C147.121 30.3242 146.323 31.1034 145.782 32.053C145.226 33.0064 144.944 34.1323 144.944 35.4016C144.944 36.6709 145.193 37.7562 145.684 38.6662C146.158 39.5654 146.896 40.2998 147.8 40.7716C148.798 41.2787 149.907 41.5316 151.028 41.5077C151.68 41.5077 152.328 41.41 152.951 41.2179C153.571 41.0449 154.15 40.753 154.657 40.3586L154.766 40.2746L154.128 39.2603L153.985 39.3617Z" fill="white"/>
<path d="M159.697 29.2942H157.603V41.244H159.697V29.2942Z" fill="white"/>
<path d="M172.487 29.7652C171.569 29.2769 170.471 29.0291 169.222 29.0291C168.153 29.0242 167.103 29.3055 166.18 29.8434C165.236 30.3837 164.455 31.167 163.919 32.1111C163.353 33.1011 163.064 34.2238 163.082 35.3627C163.082 36.6175 163.325 37.71 163.803 38.6098C164.265 39.5208 164.996 40.2688 165.899 40.7529C166.816 41.2542 167.908 41.5078 169.147 41.5078C170.228 41.5093 171.29 41.2285 172.228 40.6935C173.184 40.125 173.973 39.3151 174.513 38.3458C175.053 37.3765 175.326 36.2824 175.305 35.1743C175.305 33.9209 175.063 32.8226 174.585 31.9083C174.115 31.0029 173.384 30.257 172.487 29.7652ZM172.615 37.7419C172.317 38.4773 171.835 39.1253 171.217 39.6256C170.622 40.1072 169.875 40.3638 169.109 40.3501C168.264 40.3501 167.556 40.1139 167.001 39.6459C166.403 39.1649 165.953 38.5276 165.7 37.8056C165.411 36.9839 165.266 36.1187 165.273 35.2482C165.27 34.3919 165.44 33.5438 165.774 32.7545C166.066 32.02 166.548 31.3759 167.173 30.8882C167.766 30.4199 168.504 30.171 169.262 30.184C170.025 30.1668 170.771 30.4063 171.38 30.8635C171.97 31.3567 172.414 32.0004 172.663 32.7255C172.953 33.5466 173.097 34.4114 173.09 35.2815C173.092 36.1249 172.929 36.9605 172.609 37.7419H172.615Z" fill="white"/>
<path d="M186.735 37.8693L179.55 29.2942H178.373V41.2426H179.745V32.7037L186.93 41.2426H188.088V29.2942H186.735V37.8693Z" fill="white"/>
<path d="M195.614 29.2942L190.757 41.244H192.463L193.716 37.7664H197.888L199.104 41.244H201.393L196.889 29.2942H195.614ZM194.131 36.6464L195.847 31.8922L197.498 36.6464H194.131Z" fill="white"/>
<path d="M210.832 39.8227C209.496 39.9227 208.278 39.9676 207.213 39.9676H206.455V29.2886H204.36V41.2384H210.998V39.8039L210.832 39.8227Z" fill="white"/>
<path d="M78.0112 23.2113V11.2629H75.9105V16.4199H69.9215V11.2629H67.8208V23.2113H69.9215V17.6211H75.9105V23.2113H78.0112Z" fill="white"/>
<path d="M90.8601 11.7368C89.9408 11.2485 88.8424 10.9993 87.5953 10.9993C86.5269 10.9954 85.4769 11.2766 84.555 11.8136C83.6105 12.3543 82.8296 13.1375 82.294 14.0813C81.727 15.0716 81.4373 16.1949 81.4549 17.3343C81.4549 18.5891 81.6981 19.6802 82.1833 20.58C82.6455 21.4903 83.3771 22.2377 84.2796 22.7216C85.1974 23.223 86.2886 23.478 87.5269 23.478C88.6076 23.4795 89.6697 23.1981 90.6066 22.6622C91.5618 22.0931 92.3487 21.2828 92.8873 20.3134C93.4258 19.3441 93.697 18.2503 93.6732 17.143C93.6732 15.8896 93.4313 14.7913 92.952 13.877C92.4832 12.9733 91.7551 12.2284 90.8601 11.7368ZM90.9824 19.7063C90.6841 20.4414 90.2034 21.0894 89.5853 21.59C88.9929 22.0713 88.248 22.328 87.4832 22.3145C86.6397 22.3145 85.9317 22.0783 85.3781 21.6117C84.7808 21.1324 84.331 20.4957 84.08 19.7744C83.7899 18.9539 83.645 18.0896 83.6517 17.2198C83.6492 16.3644 83.8202 15.5172 84.1543 14.729C84.4453 13.9962 84.9264 13.3533 85.5485 12.8656C86.1414 12.3989 86.8787 12.1511 87.6347 12.1643C88.3988 12.1464 89.1464 12.3865 89.7558 12.8453C90.3449 13.3375 90.7876 13.9803 91.0363 14.7044C91.3263 15.5244 91.4712 16.3882 91.4646 17.2575C91.4646 18.0971 91.3009 18.9287 90.9824 19.7063Z" fill="white"/>
<path d="M100.819 23.2128V12.4613H101.693C102.305 12.4613 102.748 12.4613 102.985 12.4801C103.097 12.4807 103.209 12.487 103.32 12.4989C103.453 12.5105 103.619 12.5294 103.819 12.5554C104.024 12.5801 104.197 12.5989 104.337 12.6119L104.509 12.6279V11.2629H95.0718V12.6322L95.2451 12.6148C95.5613 12.583 96.5184 12.4844 96.6058 12.483C96.82 12.4714 97.257 12.4642 97.8689 12.4642H98.743V23.2128H100.819Z" fill="white"/>
<path d="M110.517 12.4613C111.713 12.4613 112.877 12.512 113.977 12.6062L114.149 12.6221V11.2629H107.011V23.2128H114.244V21.8246L114.072 21.8406C112.972 21.9405 111.808 21.9855 110.612 21.9855H109.079V17.753H109.605C110.825 17.753 111.984 17.7848 113.052 17.8471L113.218 17.8573V16.4851L113.052 16.4952C111.984 16.5575 110.825 16.5894 109.605 16.5894H109.079V12.4613H110.517Z" fill="white"/>
<path d="M117.517 11.2629V23.2128H124.157V21.771L123.986 21.7841C122.661 21.884 121.444 21.929 120.372 21.929H119.617V11.2629H117.517Z" fill="white"/>
</svg>
