<svg width="178" height="174" viewBox="0 0 178 174" fill="none" xmlns="http://www.w3.org/2000/svg">
<path d="M108.064 120.163C108.064 119.217 108.44 118.309 109.109 117.64C109.778 116.971 110.685 116.595 111.632 116.595C112.578 116.595 113.485 116.971 114.154 117.64C114.823 118.309 115.199 119.217 115.199 120.163C115.165 121.086 114.774 121.96 114.108 122.601C113.443 123.242 112.555 123.6 111.632 123.6C110.708 123.6 109.82 123.242 109.155 122.601C108.489 121.96 108.098 121.086 108.064 120.163Z" fill="#5F6368"/>
<path d="M49.5359 142.408C46.4652 142.408 44.3286 139.969 44.3286 136.481C44.3286 132.993 46.4651 130.558 49.5383 130.558C52.6264 130.558 54.7853 132.993 54.7853 136.481C54.7853 140.023 52.6737 142.408 49.5359 142.408ZM49.5359 125.348C43.0367 125.348 38.3188 130.031 38.3188 136.478C38.3188 142.925 43.0392 147.608 49.5359 147.608C56.0624 147.608 60.7977 142.928 60.7977 136.478C60.7977 130.029 56.0623 125.343 49.5383 125.343M101.176 137.035C100.95 136.597 100.664 136.193 100.327 135.835L100.128 135.629L100.337 135.43C100.664 135.082 100.964 134.708 101.231 134.312L106.945 125.785H99.9789L95.6684 132.456C95.4249 132.814 94.9331 132.993 94.1953 132.993H93.2139V120.382C93.2139 117.86 91.6413 117.517 89.9445 117.517H87.0377L87.0452 147.28H93.2163V138.351H93.7953C94.4983 138.351 94.9754 138.433 95.1965 138.816L98.6001 145.241C99.5516 146.985 100.498 147.278 102.282 147.278H107.01L103.487 141.454L101.152 137.032M131.106 125.291C127.966 125.291 125.963 126.687 124.84 127.867L124.468 128.245L124.333 127.731C124.005 126.464 122.892 125.773 121.22 125.773H118.455L118.473 147.27H124.602V137.363C124.602 136.394 124.726 135.554 124.984 134.786C125.665 132.463 127.568 131.02 129.946 131.02C131.859 131.02 132.604 132.031 132.604 134.64V144.006C132.604 146.232 133.635 147.273 135.863 147.273H138.78L138.77 133.599C138.77 128.168 136.119 125.296 131.103 125.296M111.725 125.783H108.818L108.838 147.28H111.936L112.046 147.285L113.491 147.28H114.927V147.273H114.937L114.95 129.05C114.95 126.851 113.899 125.783 111.725 125.783ZM73.6022 142.406C70.5315 142.406 68.3925 139.966 68.3925 136.478C68.3925 132.99 70.5289 130.555 73.6046 130.555C76.6803 130.555 78.8516 132.99 78.8516 136.478C78.8516 140.021 76.7375 142.406 73.6022 142.406ZM73.6022 125.346C67.0981 125.346 62.3777 130.029 62.3777 136.476C62.3777 142.923 67.0981 147.606 73.6072 147.606C80.1163 147.606 84.8688 142.925 84.8688 136.476C84.8688 130.026 80.1486 125.341 73.6072 125.341" fill="#5F6368"/>
<path d="M26.6928 142.162L21.7042 142.157V136.195C21.7042 134.918 22.2011 134.257 23.2892 134.103H26.6928C29.1201 134.103 30.668 135.633 30.668 138.11C30.6655 140.654 29.135 142.16 26.6928 142.16V142.162ZM21.7042 126.073V124.503C21.7042 123.129 22.2856 122.476 23.5601 122.392H26.1141C28.3003 122.392 29.5921 123.701 29.5921 125.895C29.5921 127.564 28.6927 129.514 26.1711 129.514H21.6819L21.7042 126.073ZM33.0629 132.026L32.161 131.519L32.9485 130.848C33.8678 130.061 35.3982 128.289 35.3982 125.234C35.3982 120.553 31.7709 117.532 26.1562 117.532H19.0162C18.2128 117.561 17.4513 117.899 16.8898 118.474C16.3283 119.049 16.0097 119.819 16 120.623V147.181H26.2854C32.5287 147.181 36.5584 143.782 36.5584 138.518C36.5584 135.686 35.2565 133.261 33.0677 132.029" fill="#5F6368"/>
<path d="M151.7 141.462C148.346 141.462 147.153 138.54 147.153 135.797C147.153 134.59 147.459 130.654 151.377 130.654C153.322 130.654 155.913 131.211 155.913 135.996C155.913 140.51 153.62 141.457 151.697 141.457L151.7 141.462ZM159.098 125.73C157.936 125.73 157.041 126.195 156.614 127.042L156.445 127.37L156.162 127.122C155.173 126.267 153.399 125.251 150.522 125.251C144.791 125.251 140.933 129.556 140.933 135.959C140.933 142.361 144.925 146.83 150.636 146.83C152.587 146.83 154.13 146.373 155.352 145.449L155.849 145.094V145.69C155.849 148.562 153.993 150.147 150.627 150.147C149.219 150.13 147.824 149.873 146.503 149.387C145.206 148.994 144.44 149.32 143.919 150.624L143.432 151.826L142.744 153.585L143.166 153.809C145.322 154.952 148.127 155.635 150.661 155.635C155.879 155.635 161.975 152.964 161.975 145.449L162 125.73H159.098Z" fill="#5F6368"/>
<path fill-rule="evenodd" clip-rule="evenodd" d="M178 33.4075C178 14.9694 163.017 0 144.57 0H33.4299C14.9832 0 0 14.9694 0 33.4075V140.592C0 159.026 14.9832 174 33.43 174H144.57C163.017 174 178 159.026 178 140.592L178 33.4075Z" fill="#7C5E0C" fill-opacity="0.24"/>
<path d="M95.9121 76.0001V71.9091L111.276 55.091C113.079 53.1213 114.564 51.4091 115.73 49.9546C116.897 48.4849 117.761 47.1061 118.321 45.8182C118.897 44.5152 119.185 43.1516 119.185 41.7273C119.185 40.091 118.791 38.6743 118.003 37.4773C117.23 36.2804 116.17 35.3561 114.821 34.7046C113.473 34.0531 111.958 33.7273 110.276 33.7273C108.488 33.7273 106.927 34.0985 105.594 34.841C104.276 35.5682 103.253 36.591 102.526 37.9091C101.814 39.2273 101.458 40.7728 101.458 42.5455H96.0939C96.0939 39.8182 96.7227 37.4243 97.9803 35.3637C99.2379 33.3031 100.95 31.697 103.117 30.5455C105.298 29.394 107.745 28.8182 110.458 28.8182C113.185 28.8182 115.602 29.394 117.708 30.5455C119.814 31.697 121.465 33.2501 122.662 35.2046C123.859 37.1591 124.458 39.3334 124.458 41.7273C124.458 43.4395 124.147 45.1137 123.526 46.7501C122.92 48.3713 121.859 50.1819 120.344 52.1819C118.844 54.1667 116.761 56.591 114.094 59.4546L103.639 70.6364V71.0001H125.276V76.0001H95.9121Z" fill="black"/>
<path d="M86.0656 69.6364L85.7019 72.0909C85.4444 73.8182 85.0504 75.6667 84.5201 77.6363C84.005 79.606 83.4671 81.4621 82.9065 83.2045C82.3459 84.947 81.8837 86.3333 81.5201 87.3636H77.4292C77.6262 86.3939 77.8837 85.1136 78.2019 83.5227C78.5201 81.9318 78.8383 80.1515 79.1565 78.1818C79.4898 76.2273 79.7625 74.2273 79.9747 72.1818L80.2474 69.6364H86.0656Z" fill="black"/>
<path d="M54.8836 76.6364C51.7623 76.6364 49.0048 76.0834 46.6108 74.9773C44.232 73.8561 42.376 72.3182 41.0426 70.3637C39.7093 68.394 39.0502 66.1516 39.0654 63.6364C39.0502 61.6667 39.4366 59.8485 40.2245 58.1819C41.0123 56.5001 42.0881 55.0985 43.4517 53.9773C44.8305 52.841 46.3684 52.1213 48.0654 51.8182V51.5455C45.8381 50.9698 44.0654 49.7198 42.7472 47.7955C41.429 45.8561 40.7775 43.6516 40.7926 41.1819C40.7775 38.8182 41.376 36.7046 42.5881 34.841C43.8002 32.9773 45.4669 31.5076 47.5881 30.4319C49.7245 29.3561 52.1563 28.8182 54.8836 28.8182C57.5805 28.8182 59.9896 29.3561 62.1108 30.4319C64.232 31.5076 65.8987 32.9773 67.1108 34.841C68.3381 36.7046 68.9593 38.8182 68.9745 41.1819C68.9593 43.6516 68.2851 45.8561 66.9517 47.7955C65.6336 49.7198 63.8836 50.9698 61.7017 51.5455V51.8182C63.3836 52.1213 64.8987 52.841 66.2472 53.9773C67.5957 55.0985 68.6714 56.5001 69.4745 58.1819C70.2775 59.8485 70.6866 61.6667 70.7017 63.6364C70.6866 66.1516 70.0048 68.394 68.6563 70.3637C67.3229 72.3182 65.4669 73.8561 63.0881 74.9773C60.7245 76.0834 57.9896 76.6364 54.8836 76.6364ZM54.8836 71.6364C56.9896 71.6364 58.8078 71.2955 60.3381 70.6137C61.8684 69.9319 63.0502 68.9698 63.8836 67.7273C64.7169 66.4849 65.1411 65.0304 65.1563 63.3637C65.1411 61.6061 64.6866 60.0531 63.7926 58.7046C62.8987 57.3561 61.679 56.2955 60.1336 55.5228C58.6032 54.7501 56.8532 54.3637 54.8836 54.3637C52.8987 54.3637 51.126 54.7501 49.5654 55.5228C48.0199 56.2955 46.8002 57.3561 45.9063 58.7046C45.0275 60.0531 44.5957 61.6061 44.6108 63.3637C44.5957 65.0304 44.9972 66.4849 45.8154 67.7273C46.6487 68.9698 47.8381 69.9319 49.3836 70.6137C50.929 71.2955 52.7623 71.6364 54.8836 71.6364ZM54.8836 49.5455C56.5502 49.5455 58.0275 49.2122 59.3154 48.5455C60.6184 47.8788 61.6411 46.947 62.3836 45.7501C63.126 44.5531 63.5048 43.1516 63.5199 41.5455C63.5048 39.9698 63.1336 38.5985 62.4063 37.4319C61.679 36.2501 60.6714 35.341 59.3836 34.7046C58.0957 34.0531 56.5957 33.7273 54.8836 33.7273C53.1411 33.7273 51.6184 34.0531 50.3154 34.7046C49.0123 35.341 48.0048 36.2501 47.2926 37.4319C46.5805 38.5985 46.232 39.9698 46.2472 41.5455C46.232 43.1516 46.5881 44.5531 47.3154 45.7501C48.0578 46.947 49.0805 47.8788 50.3836 48.5455C51.6866 49.2122 53.1866 49.5455 54.8836 49.5455Z" fill="black"/>
<path opacity="0.7" d="M143.719 96.8907L143.025 97.0867C142.957 96.8907 142.86 96.7131 142.735 96.554C142.61 96.3949 142.447 96.2685 142.245 96.1748C142.046 96.081 141.799 96.0341 141.504 96.0341C141.06 96.0341 140.697 96.1393 140.413 96.3495C140.129 96.5597 139.986 96.831 139.986 97.1634C139.986 97.4447 140.083 97.6734 140.276 97.8495C140.472 98.0228 140.773 98.1606 141.18 98.2628L142.168 98.5057C142.717 98.6393 143.127 98.8509 143.4 99.1407C143.675 99.4305 143.813 99.7941 143.813 100.232C143.813 100.601 143.711 100.929 143.506 101.216C143.302 101.503 143.016 101.729 142.65 101.894C142.286 102.055 141.864 102.136 141.384 102.136C140.745 102.136 140.218 101.993 139.803 101.706C139.388 101.416 139.123 100.999 139.006 100.453L139.735 100.274C139.829 100.663 140.012 100.957 140.285 101.156C140.56 101.355 140.923 101.455 141.371 101.455C141.874 101.455 142.276 101.342 142.577 101.118C142.879 100.891 143.029 100.607 143.029 100.266C143.029 100.001 142.941 99.7799 142.765 99.6009C142.589 99.4191 142.322 99.2856 141.964 99.2003L140.894 98.9447C140.326 98.8083 139.905 98.5924 139.633 98.2969C139.36 98.0015 139.224 97.635 139.224 97.1975C139.224 96.8367 139.322 96.5199 139.518 96.2472C139.714 95.9716 139.984 95.7557 140.327 95.5995C140.671 95.4432 141.063 95.3651 141.504 95.3651C142.103 95.3651 142.582 95.5015 142.94 95.7742C143.3 96.0441 143.56 96.4162 143.719 96.8907Z" fill="black"/>
<path opacity="0.7" d="M134.296 102.136C133.731 102.136 133.231 101.993 132.796 101.706C132.364 101.419 132.026 101.023 131.782 100.517C131.538 100.009 131.416 99.4219 131.416 98.7572C131.416 98.0867 131.538 97.4972 131.782 96.9887C132.026 96.4773 132.364 96.0796 132.796 95.7955C133.231 95.5086 133.731 95.3651 134.296 95.3651C134.862 95.3651 135.36 95.5086 135.792 95.7955C136.224 96.0824 136.562 96.4802 136.806 96.9887C137.053 97.4972 137.177 98.0867 137.177 98.7572C137.177 99.4219 137.055 100.009 136.81 100.517C136.566 101.023 136.227 101.419 135.792 101.706C135.36 101.993 134.862 102.136 134.296 102.136ZM134.296 101.442C134.751 101.442 135.136 101.32 135.451 101.075C135.766 100.831 136.005 100.506 136.167 100.099C136.332 99.6932 136.414 99.2458 136.414 98.7572C136.414 98.2685 136.332 97.8197 136.167 97.4106C136.005 97.0015 135.766 96.6734 135.451 96.4262C135.136 96.179 134.751 96.0555 134.296 96.0555C133.845 96.0555 133.46 96.179 133.141 96.4262C132.826 96.6734 132.586 97.0015 132.421 97.4106C132.259 97.8197 132.178 98.2685 132.178 98.7572C132.178 99.2458 132.259 99.6932 132.421 100.099C132.586 100.506 132.826 100.831 133.141 101.075C133.457 101.32 133.842 101.442 134.296 101.442Z" fill="black"/>
<path opacity="0.7" d="M128.503 102V95.4546H129.266V102H128.503ZM128.891 94.3296C128.735 94.3296 128.601 94.277 128.49 94.1719C128.38 94.0639 128.324 93.9347 128.324 93.7841C128.324 93.6335 128.38 93.5057 128.49 93.4006C128.601 93.2926 128.735 93.2386 128.891 93.2386C129.047 93.2386 129.181 93.2926 129.292 93.4006C129.402 93.5057 129.458 93.6335 129.458 93.7841C129.458 93.9347 129.402 94.0639 129.292 94.1719C129.181 94.277 129.047 94.3296 128.891 94.3296Z" fill="black"/>
<path opacity="0.7" d="M123.737 102V95.4546H124.475V96.4603H124.53C124.661 96.1307 124.888 95.8651 125.212 95.6634C125.538 95.4588 125.908 95.3566 126.32 95.3566C126.382 95.3566 126.452 95.358 126.528 95.3608C126.605 95.3637 126.669 95.3665 126.72 95.3694V96.1407C126.686 96.135 126.627 96.1265 126.541 96.1151C126.456 96.1037 126.364 96.098 126.264 96.098C125.923 96.098 125.619 96.1705 125.352 96.3154C125.088 96.4574 124.879 96.6549 124.726 96.9077C124.573 97.1605 124.496 97.4489 124.496 97.7728V102H123.737Z" fill="black"/>
<path opacity="0.7" d="M118.406 102.149C118.011 102.149 117.65 102.072 117.324 101.919C116.997 101.763 116.737 101.538 116.544 101.246C116.35 100.95 116.254 100.592 116.254 100.172C116.254 99.8481 116.315 99.5753 116.437 99.3537C116.559 99.1322 116.733 98.9503 116.957 98.8083C117.181 98.6662 117.447 98.554 117.754 98.4716C118.061 98.3893 118.399 98.3253 118.768 98.2799C119.135 98.2344 119.444 98.1947 119.697 98.1606C119.953 98.1265 120.147 98.0725 120.281 97.9986C120.414 97.9248 120.481 97.8055 120.481 97.6407V97.4873C120.481 97.0412 120.348 96.6904 120.081 96.4347C119.816 96.1762 119.436 96.0469 118.939 96.0469C118.467 96.0469 118.082 96.1506 117.784 96.358C117.488 96.5654 117.281 96.8097 117.162 97.091L116.441 96.831C116.589 96.4731 116.794 96.1876 117.055 95.9745C117.316 95.7586 117.609 95.6037 117.933 95.51C118.257 95.4134 118.585 95.3651 118.917 95.3651C119.167 95.3651 119.427 95.3978 119.697 95.4631C119.97 95.5285 120.223 95.6421 120.456 95.804C120.689 95.9631 120.877 96.1861 121.022 96.4731C121.167 96.7572 121.24 97.118 121.24 97.5555V102H120.481V100.965H120.434C120.343 101.158 120.208 101.345 120.029 101.527C119.85 101.709 119.626 101.858 119.356 101.974C119.086 102.091 118.77 102.149 118.406 102.149ZM118.508 101.455C118.912 101.455 119.261 101.365 119.556 101.186C119.852 101.007 120.079 100.77 120.238 100.474C120.4 100.176 120.481 99.8481 120.481 99.4901V98.5441C120.424 98.5981 120.329 98.6464 120.196 98.689C120.065 98.7316 119.913 98.7699 119.74 98.804C119.569 98.8353 119.399 98.8623 119.228 98.885C119.058 98.9077 118.904 98.9276 118.768 98.9447C118.399 98.9901 118.083 99.0611 117.822 99.1577C117.561 99.2543 117.36 99.3878 117.221 99.5583C117.082 99.7259 117.012 99.9418 117.012 100.206C117.012 100.604 117.154 100.912 117.439 101.131C117.723 101.347 118.079 101.455 118.508 101.455Z" fill="black"/>
<path opacity="0.7" d="M114.375 95.4545V96.115H111.251V95.4545H114.375ZM112.227 93.8864H112.99V100.291C112.99 100.564 113.037 100.778 113.131 100.935C113.224 101.088 113.347 101.197 113.497 101.263C113.648 101.325 113.808 101.357 113.979 101.357C114.078 101.357 114.163 101.351 114.234 101.339C114.305 101.325 114.368 101.311 114.422 101.297L114.584 101.983C114.51 102.011 114.419 102.037 114.311 102.06C114.203 102.085 114.07 102.098 113.911 102.098C113.632 102.098 113.364 102.037 113.105 101.915C112.849 101.793 112.639 101.611 112.474 101.369C112.31 101.128 112.227 100.828 112.227 100.47V93.8864Z" fill="black"/>
<path opacity="0.7" d="M105.126 97.909V102H104.368V95.4545H105.105V96.4815H105.173C105.326 96.1463 105.565 95.8778 105.889 95.6761C106.216 95.4715 106.619 95.3693 107.099 95.3693C107.54 95.3693 107.926 95.4616 108.258 95.6463C108.594 95.8281 108.853 96.0965 109.038 96.4516C109.226 96.8068 109.319 97.2428 109.319 97.7599V102H108.561V97.8068C108.561 97.2698 108.41 96.8451 108.109 96.5326C107.811 96.2201 107.41 96.0639 106.907 96.0639C106.564 96.0639 106.258 96.1377 105.991 96.2855C105.724 96.4332 105.513 96.6463 105.356 96.9247C105.203 97.2002 105.126 97.5284 105.126 97.909Z" fill="black"/>
<path opacity="0.7" d="M99.5611 102.136C98.9503 102.136 98.4219 101.994 97.9759 101.71C97.5298 101.423 97.1847 101.027 96.9403 100.521C96.6989 100.013 96.5781 99.4276 96.5781 98.7657C96.5781 98.1066 96.6989 97.5214 96.9403 97.01C97.1847 96.4958 97.5213 96.0938 97.9503 95.804C98.3821 95.5114 98.8807 95.3651 99.446 95.3651C99.8011 95.3651 100.143 95.4305 100.473 95.5611C100.803 95.689 101.098 95.8864 101.359 96.1535C101.624 96.4177 101.832 96.7515 101.986 97.1549C102.139 97.5555 102.216 98.0299 102.216 98.5782V98.9532H97.1023V98.2841H101.44C101.44 97.8637 101.355 97.4859 101.185 97.1506C101.017 96.8126 100.783 96.5455 100.482 96.3495C100.183 96.1535 99.8381 96.0555 99.446 96.0555C99.0312 96.0555 98.6662 96.1662 98.3509 96.3878C98.0355 96.6094 97.7884 96.902 97.6094 97.2657C97.4332 97.6293 97.3438 98.027 97.3409 98.4589V98.8594C97.3409 99.3793 97.4304 99.8339 97.6094 100.223C97.7912 100.609 98.0483 100.909 98.3807 101.122C98.7131 101.335 99.1065 101.442 99.5611 101.442C99.8707 101.442 100.142 101.394 100.375 101.297C100.611 101.2 100.808 101.071 100.967 100.909C101.129 100.744 101.251 100.564 101.334 100.368L102.054 100.602C101.955 100.878 101.791 101.132 101.564 101.365C101.339 101.598 101.058 101.786 100.72 101.928C100.385 102.067 99.9986 102.136 99.5611 102.136Z" fill="black"/>
<path opacity="0.7" d="M86.1343 102V95.4545H86.8715V96.4602H86.9397C87.0704 96.1221 87.2877 95.8565 87.5917 95.6633C87.8985 95.4673 88.2664 95.3693 88.6954 95.3693C89.1471 95.3693 89.5178 95.4758 89.8076 95.6889C90.1002 95.8991 90.3189 96.1889 90.4638 96.5582H90.5192C90.6669 96.1945 90.907 95.9062 91.2394 95.6931C91.5746 95.4772 91.9809 95.3693 92.4581 95.3693C93.0661 95.3693 93.5462 95.561 93.8985 95.9445C94.2508 96.3252 94.4269 96.882 94.4269 97.615V102H93.6684V97.615C93.6684 97.098 93.5363 96.7102 93.2721 96.4516C93.0079 96.1931 92.6598 96.0639 92.228 96.0639C91.728 96.0639 91.3431 96.2173 91.0732 96.5241C90.8033 96.8309 90.6684 97.2201 90.6684 97.6917V102H89.8928V97.5468C89.8928 97.1036 89.7692 96.7457 89.5221 96.473C89.2749 96.2002 88.9269 96.0639 88.478 96.0639C88.1769 96.0639 87.9056 96.1377 87.6641 96.2855C87.4255 96.4332 87.2366 96.6391 87.0973 96.9034C86.961 97.1647 86.8928 97.4659 86.8928 97.8068V102H86.1343Z" fill="black"/>
<path opacity="0.7" d="M81.1082 102.136C80.5429 102.136 80.0429 101.993 79.6082 101.706C79.1764 101.419 78.8383 101.023 78.594 100.517C78.3497 100.009 78.2275 99.4219 78.2275 98.7572C78.2275 98.0867 78.3497 97.4972 78.594 96.9887C78.8383 96.4773 79.1764 96.0796 79.6082 95.7955C80.0429 95.5086 80.5429 95.3651 81.1082 95.3651C81.6736 95.3651 82.1721 95.5086 82.604 95.7955C83.0358 96.0824 83.3738 96.4802 83.6182 96.9887C83.8653 97.4972 83.9889 98.0867 83.9889 98.7572C83.9889 99.4219 83.8667 100.009 83.6224 100.517C83.3781 101.023 83.0386 101.419 82.604 101.706C82.1721 101.993 81.6736 102.136 81.1082 102.136ZM81.1082 101.442C81.5628 101.442 81.9477 101.32 82.2631 101.075C82.5784 100.831 82.817 100.506 82.979 100.099C83.1437 99.6932 83.2261 99.2458 83.2261 98.7572C83.2261 98.2685 83.1437 97.8197 82.979 97.4106C82.817 97.0015 82.5784 96.6734 82.2631 96.4262C81.9477 96.179 81.5628 96.0555 81.1082 96.0555C80.6565 96.0555 80.2716 96.179 79.9534 96.4262C79.6381 96.6734 79.398 97.0015 79.2332 97.4106C79.0713 97.8197 78.9903 98.2685 78.9903 98.7572C78.9903 99.2458 79.0713 99.6932 79.2332 100.099C79.398 100.506 79.6381 100.831 79.9534 101.075C80.2687 101.32 80.6537 101.442 81.1082 101.442Z" fill="black"/>
<path opacity="0.7" d="M73.9613 102.136C73.3761 102.136 72.8662 101.99 72.4315 101.697C71.9997 101.405 71.6645 101.004 71.4258 100.496C71.1872 99.9873 71.0679 99.4077 71.0679 98.7572C71.0679 98.1009 71.1886 97.5171 71.4301 97.0057C71.6744 96.4944 72.0125 96.0938 72.4443 95.804C72.8761 95.5114 73.3775 95.3651 73.9486 95.3651C74.3861 95.3651 74.7824 95.4503 75.1375 95.6208C75.4926 95.7884 75.7852 96.0256 76.0153 96.3324C76.2483 96.6364 76.3946 96.9915 76.4542 97.3978H75.6872C75.6076 97.0285 75.4159 96.7131 75.1119 96.4518C74.8108 96.1876 74.4272 96.0555 73.9613 96.0555C73.5437 96.0555 73.1744 96.1691 72.8534 96.3964C72.5324 96.6208 72.2809 96.9347 72.0991 97.3381C71.9201 97.7387 71.8307 98.2032 71.8307 98.7316C71.8307 99.2628 71.9187 99.733 72.0949 100.142C72.271 100.548 72.5182 100.867 72.8363 101.097C73.1574 101.327 73.5324 101.442 73.9613 101.442C74.2511 101.442 74.5153 101.388 74.754 101.28C74.9954 101.169 75.1971 101.013 75.3591 100.811C75.5238 100.609 75.6346 100.369 75.6915 100.091H76.4585C76.4017 100.486 76.2611 100.838 76.0366 101.148C75.815 101.455 75.5267 101.696 75.1716 101.872C74.8193 102.048 74.4159 102.136 73.9613 102.136Z" fill="black"/>
<path opacity="0.7" d="M59.3193 100.125V99.4773L63.21 93.2727H63.6872V94.3594H63.3335L60.21 99.3537V99.4091H65.3108V100.125H59.3193ZM63.3932 102V99.9204V99.6221V93.2727H64.1517V102H63.3932Z" fill="black"/>
<path opacity="0.7" d="M54.3351 102.119C53.7982 102.119 53.3181 102.023 52.8948 101.83C52.4715 101.634 52.1363 101.362 51.8891 101.016C51.642 100.669 51.5113 100.27 51.4971 99.8182H52.3025C52.3167 100.136 52.4147 100.415 52.5965 100.653C52.7783 100.889 53.0198 101.074 53.3209 101.207C53.6221 101.338 53.9573 101.403 54.3266 101.403C54.73 101.403 55.0851 101.328 55.392 101.178C55.7016 101.027 55.9431 100.821 56.1164 100.56C56.2925 100.295 56.3806 99.9972 56.3806 99.6648C56.3806 99.3125 56.2911 99.0015 56.1121 98.7316C55.9332 98.4617 55.676 98.2515 55.3408 98.1009C55.0084 97.9503 54.6107 97.875 54.1476 97.875H53.6363V97.1591H54.1476C54.5255 97.1591 54.8593 97.0909 55.1491 96.9546C55.4417 96.8154 55.6718 96.6208 55.8394 96.3708C56.007 96.1208 56.0908 95.8267 56.0908 95.4887C56.0908 95.1676 56.0184 94.885 55.8735 94.6407C55.7286 94.3963 55.5241 94.2046 55.2599 94.0654C54.9985 93.9262 54.6931 93.8566 54.3437 93.8566C54.0056 93.8566 53.6959 93.9219 53.4147 94.0526C53.1334 94.1833 52.9062 94.3679 52.7329 94.6066C52.5624 94.8452 52.4715 95.1279 52.4601 95.4546H51.6888C51.7002 95 51.8252 94.6009 52.0638 94.2571C52.3053 93.9105 52.6249 93.6407 53.0226 93.4475C53.4232 93.2515 53.8664 93.1534 54.3522 93.1534C54.8664 93.1534 55.311 93.2586 55.686 93.4688C56.061 93.679 56.3508 93.9588 56.5553 94.3083C56.7627 94.6549 56.8664 95.037 56.8664 95.4546C56.8664 95.9517 56.7314 96.3779 56.4616 96.733C56.1917 97.0853 55.828 97.3296 55.3707 97.4659V97.5213C55.9275 97.6321 56.365 97.8793 56.6832 98.2628C57.0042 98.6435 57.1647 99.1108 57.1647 99.6648C57.1647 100.131 57.0425 100.55 56.7982 100.922C56.5539 101.291 56.2187 101.584 55.7925 101.8C55.3692 102.013 54.8834 102.119 54.3351 102.119Z" fill="black"/>
<path opacity="0.7" d="M43.3008 100.125V99.4773L47.1914 93.2727H47.6687V94.3594H47.315L44.1914 99.3537V99.4091H49.2923V100.125H43.3008ZM47.3746 102V99.9204V99.6221V93.2727H48.1332V102H47.3746Z" fill="black"/>
<path opacity="0.7" d="M40.4418 102.064C40.2741 102.064 40.1293 102.004 40.0071 101.885C39.8878 101.763 39.8281 101.618 39.8281 101.45C39.8281 101.28 39.8878 101.135 40.0071 101.016C40.1293 100.896 40.2741 100.837 40.4418 100.837C40.6122 100.837 40.7571 100.896 40.8764 101.016C40.9957 101.135 41.0554 101.28 41.0554 101.45C41.0554 101.561 41.027 101.663 40.9702 101.757C40.9162 101.851 40.8423 101.926 40.7486 101.983C40.6577 102.037 40.5554 102.064 40.4418 102.064Z" fill="black"/>
<path opacity="0.7" d="M37.1918 93.2727V102H36.3949V94.1079H36.3438L34.2983 95.4673V94.6406L36.3608 93.2727H37.1918Z" fill="black"/>
</svg>
