<?xml version="1.0" encoding="UTF-8" standalone="no"?>
<!DOCTYPE svg PUBLIC "-//W3C//DTD SVG 1.1//EN" "http://www.w3.org/Graphics/SVG/1.1/DTD/svg11.dtd">
<svg width="100%" height="100%" viewBox="0 0 91 75" version="1.1" xmlns="http://www.w3.org/2000/svg" xmlns:xlink="http://www.w3.org/1999/xlink" xml:space="preserve" xmlns:serif="http://www.serif.com/" style="fill-rule:evenodd;clip-rule:evenodd;stroke-linejoin:round;stroke-miterlimit:2;">
    <g id="Mesa-de-trabajo1" serif:id="Mesa de trabajo1" transform="matrix(0.873799,0,0,0.719756,-5.467087,0)">
        <g transform="matrix(1,0,0,1,11.819489,1.474337)">
            <g transform="matrix(1.727108,0,0,2.096747,4.858254,0)">
                <path d="M40.2,24.1L38,24.1C37.9,21.3 35.6,19.1 32.9,19.1L8.8,19.1C6,19.1 3.6,21.4 3.6,24.3L3.6,34.2C3.6,38.6 5.3,42.8 8.3,46L3.4,46C2.8,46 2.4,46.4 2.4,47C2.4,47.6 2.8,48 3.4,48L38.2,48C38.8,48 39.2,47.6 39.2,47C39.2,46.4 38.8,46 38.2,46L33.3,46C36.2,43 37.8,39.1 38,34.9L40.2,34.9C41.6,34.9 45.3,34 45.6,29.5C45.6,26.5 43.2,24.1 40.2,24.1ZM36,34.2C36,38.8 34,43.1 30.4,46L11.2,46C7.6,43.1 5.6,38.8 5.6,34.2L5.6,24.3C5.6,22.6 7,21.1 8.8,21.1L32.9,21.1C34.6,21.1 36.1,22.5 36.1,24.3L36.1,34.2L36,34.2ZM40.2,32.9L38,32.9L38,26.1L40.2,26.1C42.1,26.1 43.6,27.6 43.6,29.5C43.4,32.3 41.1,32.9 40.2,32.9Z" style="fill:rgb(7,79,77);fill-rule:nonzero;"/>
            </g>
            <g transform="matrix(1.727108,0,0,2.096747,4.858254,0)">
                <path d="M12.2,15.7C11.8,16.1 11.8,16.7 12.2,17.1C12.4,17.3 13.1,17.7 13.6,17.1C16.3,14.1 14.5,11 13.6,10.1C12.5,9 12.5,7.1 13.6,5.9C14,5.5 14,4.9 13.6,4.5C13.2,4.1 12.6,4.1 12.2,4.5C10.3,6.4 10.3,9.6 12.2,11.5C12.8,12.1 13.8,13.9 12.2,15.7Z" style="fill:rgb(7,79,77);fill-rule:nonzero;"/>
            </g>
            <g transform="matrix(1.727108,0,0,2.096747,4.858254,0)">
                <path d="M28,15.7C27.6,16.1 27.6,16.7 28,17.1C28.2,17.3 28.9,17.7 29.4,17.1C31.2,15.1 31.3,12 29.4,10.1C28.3,9 28.3,7.1 29.4,5.9C29.8,5.5 29.8,4.9 29.4,4.5C29,4.1 28.4,4.1 28,4.5C26.1,6.4 26.1,9.6 28,11.5C29.2,12.7 29.2,14.6 28,15.7Z" style="fill:rgb(7,79,77);fill-rule:nonzero;"/>
            </g>
            <g transform="matrix(1.727108,0,0,2.096747,4.858254,0)">
                <path d="M20.1,15.7C19.7,16.1 19.7,16.7 20.1,17.1C20.3,17.3 20.9,17.7 21.5,17.1C24.1,14.7 23.8,10.7 21.5,8C19.1,5.1 20.7,2.6 21.5,1.7C21.9,1.3 21.9,0.7 21.5,0.3C21.1,-0.1 20.5,-0.1 20.1,0.3C18.9,1.5 16.5,5.5 20.1,9.4C21.8,11.2 21.8,14 20.1,15.7Z" style="fill:rgb(7,79,77);fill-rule:nonzero;"/>
            </g>
        </g>
    </g>
</svg>
