<svg id="Capa_1" data-name="Capa 1" xmlns="http://www.w3.org/2000/svg" viewBox="0 0 757.21 859.9"><defs><style>.cls-1{fill:#e7491c;}.cls-2{fill:none;stroke:#074f4d;stroke-linecap:round;stroke-linejoin:round;stroke-width:5.55px;}</style></defs><path class="cls-1" d="M702.25,542c-.7-46.72-6.7-87.06-15.25-121.3-.54-2.18,7.86-13.06,9.15-15.53a179.19,179.19,0,0,0,8.13-17.92,186.28,186.28,0,0,0,10.31-37.95c4-24.74,3.49-51.24-3.72-75.34-14.75-49.25-43.67-93-80.1-129-18.3-18-38.45-33.09-59.07-48.24-21.8-16-42.35-33.8-65.38-48.08-16.87-10.45-35.15-20.87-55.62-18.27-18.14,2.31-33,14.16-40.24,30.84-15.72,36.23,12.08,65.82,42.78,80.64,17.3,8.34,36,13.28,54.45,18.56,50.85,14.53,107.65,33.92,135.1,82.72,15.75,28,17.27,56.94,11,87.78a326,326,0,0,0-20.61-34.88,156.52,156.52,0,0,0-16.85-21.84,21.32,21.32,0,0,0-1.85-1.94A162.16,162.16,0,0,0,586,248.55c-36.18-23.61-80.52-32.92-123.68-31.09-61.66,2.61-125.25,30.43-156.76,83.51-.54-17.58-4.92-53-11.21-53.79-4.87-.48-19.41,25.68-27.86,41.58a145.62,145.62,0,0,0-108.22-7.71c-5.84-15.72-23.21-44-27.35-41.74-4.28.63-6.37,21.83-6.75,39.77,0,.35,0,.7,0,1-.17,2.82-1.86,11.54-14.74,28.32a128.67,128.67,0,0,0-20.86,39.5c-4.09,12.26-6.58,25.2-5.76,38.11,1.8,28.37,15.5,54,32.15,77C91.18,553.83,67.24,646.3,71.55,740c1.08,23.37,5,48.93,22.62,64.38,9.86,8.66,26.18,12.44,35.63,3.34,5.23-5,7-12.59,8.11-19.75,5.28-33.33,2.55-67.4,5.72-101,1.63-17.25,5.12-35.08,15.63-48.85S189,616,205,622.58c19.41,8,25.23,32.34,27.43,53.23a639.7,639.7,0,0,1,1.71,114.7c-.77,10.34-1.3,22.14,6,29.5,8.67,8.74,24.36,5.8,33.12-2.85s12.36-21.1,15.64-33q13-47.13,26-94.27c8.7-31.58,17.51-63.42,32.55-92.51s37-55.62,66.24-70.4a118.81,118.81,0,0,1,71.66-11.24c10.7,1.7,21.4,5,30,11.52C537,543.62,540.1,574.63,539,601.73a482,482,0,0,1-34,159.55c-6.86,17.16-14.07,38.65-1.69,52.36,10.11,11.19,29.07,9.94,41.28,1.08s19.11-23.15,24.75-37.14c20.93-52,31.06-107.47,43.77-162,1.07-4.58,2.77-9.87,7.23-11.36s9.46,2.15,11.08,6.64.84,9.43,0,14.13q-12,68.63-28.65,136.31c-3.62,14.75-7.31,30.85-.94,44.63,7.52,16.27,29.6,23.81,45.5,15.55,15.17-7.88,21.84-25.7,26.64-42.1A726.32,726.32,0,0,0,702.25,542Z"/><path class="cls-2" d="M97.36,776a76.3,76.3,0,0,0,.19,31"/><path class="cls-2" d="M117.09,778.8A71.82,71.82,0,0,0,121,812.43"/><path class="cls-2" d="M252.9,791.4c-4.51,9.89-9,21-8.92,31.51"/><path class="cls-2" d="M267.61,799.55a34.14,34.14,0,0,0-3.41,23.54"/><path class="cls-2" d="M515.86,787.66a35.08,35.08,0,0,0-5.45,31.25"/><path class="cls-2" d="M536.55,792.64c-2.28,4.82-4.59,9.68-5.7,14.9a24.37,24.37,0,0,0,.56,13.18"/><path class="cls-2" d="M615.19,792.58c-1.7,5.8-3.4,11.66-3.76,17.7a33.6,33.6,0,0,0,.38,7.56"/><path class="cls-2" d="M637,795.69a39.42,39.42,0,0,0-1,29"/><path class="cls-2" d="M275.46,389.45a134,134,0,0,1,58.7,32.78"/><path class="cls-2" d="M298.46,374.83a178.64,178.64,0,0,1,57.25,15.42"/><path class="cls-2" d="M292.45,359.21A233.47,233.47,0,0,1,389.14,368"/><path class="cls-2" d="M154.58,385a28.22,28.22,0,0,0,47.8,1.11c.23,8.08,8.23,13.95,16.14,15.67a35.07,35.07,0,0,0,31.56-9.27"/><path class="cls-2" d="M46.75,337.15a135.31,135.31,0,0,1,80.83,12.61"/><path class="cls-2" d="M40.83,370.77a661.28,661.28,0,0,1,84-6.53"/><path class="cls-2" d="M40.13,403.69c21.33-5.43,42.67-10.87,64.32-14.83,9.92-1.81,20.08-3.31,30.05-1.78"/><path class="cls-2" d="M198.39,379.15a71.76,71.76,0,0,1,12.52.58c-1.53,2.31-3.42,4.57-6,5.5s-6,0-7.08-2.55,1.91-6,4.38-4.7c1.43.94,2.77,2.67,2.08,4.24s-3.68,1.4-4.18-.35a2.52,2.52,0,0,1,3.34-2.77,2.71,2.71,0,0,1,.27,4.48,2.67,2.67,0,1,1,.48-.4c-1.65,1.76-5.19-.19-4.75-2.56s4.17-3.08,5.6-1.15,0,5.15-2.42,5.51a4.2,4.2,0,0,1-4.51-4.38,6.23,6.23,0,0,1,8.13-1.91c1.2.71,2.17,2.31,1.36,3.45a2.9,2.9,0,0,1-1.52.94,6.65,6.65,0,0,1-5,0c-1.53-.74-2.53-2.72-1.74-4.22a4.21,4.21,0,0,1,3.37-1.81c2.29-.26,5.29,1,5,3.31A3.58,3.58,0,0,1,205,383a5.69,5.69,0,0,1-4.85-.5A3.71,3.71,0,0,1,198.7,378a4.08,4.08,0,0,1,2.22-2,5.32,5.32,0,0,1,5.84,1.06,4.14,4.14,0,0,1,0,5.68c-1.57,1.41-4.53.85-5.24-1.13s.92-4.07,2.89-4.39a5.2,5.2,0,0,1,5,2.6,2.22,2.22,0,0,1,.41,1.41c-.12.77-.89,1.25-1.6,1.58-1.91.9-4.12,1.52-6.1.81s-3.37-3.23-2.26-5c1.21-2,4.8-1.23,5.31,1s-2.06,4.46-4.27,3.81a4,4,0,0,1-2-5.64,4.12,4.12,0,1,1,4.84,6c-3,1-6.37-2.81-4.95-5.66s6.55-2.4,7.39.68a3.52,3.52,0,0,1-.13,2.31c-.89,2.07-3.68,2.57-5.85,2-1.68-.46-3.44-1.83-3.15-3.55.25-1.5,1.89-2.28,3.34-2.74a7.16,7.16,0,0,1,2.85-.45c2.71.26,4.43,3.92,2.82,6.11s-5.74,1.5-6.45-1.12,2.71-5.3,5-3.89,1.36,5.81-1.35,6a6.42,6.42,0,0,1-3.45-1.11c-1.7-.94-3.64-3-2.32-4.45a2.76,2.76,0,0,1,1.39-.71,5.86,5.86,0,0,1,5.24.77c1.41,1.18,1.68,3.7.19,4.77-1.64,1.18-3.89,0-5.54-1.2a2.17,2.17,0,0,1-1-1.21c-.16-.84.67-1.51,1.41-1.95a6,6,0,0,1,2.78-1.08,3.29,3.29,0,0,1,3,4.29,3.38,3.38,0,0,1-5.16,1.18,3.47,3.47,0,0,1,.56-5.31c1.68-1,4.3.07,4.5,2s-2.71,3.42-4,1.93"/><path class="cls-2" d="M155.67,337.27c5.46-2.91,11.48-5.06,17.67-5.12S185.93,334.33,190,339"/><path class="cls-2" d="M236.25,345.44c5-2.5,10.37-4.4,15.93-4.57s11.35,1.54,15.32,5.45"/></svg>