<svg id="Capa_1" data-name="Capa 1" xmlns="http://www.w3.org/2000/svg" viewBox="0 0 757.21 859.9"><defs><style>.cls-1{fill:#00837c;}.cls-2{fill:none;stroke:#1d1d1b;stroke-linecap:round;stroke-linejoin:round;stroke-width:5.18px;}</style></defs><path class="cls-1" d="M295.26,653.63C343.34,692.35,412,703.82,470,682.86c43.72-15.78,80-47.87,123.61-64.05,22.94-8.52,50-12,70.84.9C692.18,636.9,697,678,681.93,706.91s-44.74,47.34-74.83,59.93c-147.47,61.66-326,17.85-446.18-81.69-20.18-16.7-36.71-34.49-51.15-56.42C30.36,508.18,50.48,318,149.49,213.41c76.48-80.75,186.3-94.48,292.18-87.91,14.12.88,28.47,2.06,42.25-1.14s30.81-30.48,36.21-29.19c7.54-2.6,7.55,21.36,11.69,41.07,24.5-3.28,50.28,7,62.44,20.83,12.4-9.86,30.43-30.6,34.27-26.84,4.73,4.63-4.8,32.35-3.94,43.48,1.18,15.48,9.81,14.74,18.52,33.36,13.89,29.69-1,67.31-25.38,89.25S558.52,326.5,526,322.17c39,11.56,78.58,23.44,112.28,46.15,6.24,4.21,13,11.61,9.4,18.23-3.37,6.22-12.43,5.3-19.27,3.51l-85.3-22.39c-7.29-1.91-17.38-2.47-19.94,4.61a371.88,371.88,0,0,0,74.24,28.25c6.46,1.7,13.15,3.3,18.56,7.23s9.24,10.88,7.39,17.3c-3.14,10.86-18,11.9-29.18,9.88-25.92-4.69-50.81-13.8-76.41-20s-52.72-9.54-78.11-2.51-48.68,26.17-54.5,51.86c-3.82,16.84,1.47,36.8,16.32,45.62,9.29,5.52,20.62,6,31.41,6.7s22.24,2.15,30.57,9,11.34,21.17,3.28,28.38c-10.69,9.59-36.71,10.27-50,13-30.41,6.36-50.09,10.41-41.94,13.94a192.46,192.46,0,0,0,44.68-.85c8.58-1.07,17.42-2.24,25.78-4.44,5.52-1.46,11.37-3,17.11-3,5.25,0,11.54,1.42,14.32,6.22,5,8.55-3.73,19.59-10.17,24.52A244,244,0,0,1,306.22,653"/><path class="cls-2" d="M604.13,259.64a113.32,113.32,0,0,1,37,43.21"/><path class="cls-2" d="M626.66,254.78a150.88,150.88,0,0,1,40.92,29"/><path class="cls-2" d="M626.47,240.62a197.44,197.44,0,0,1,74.17,35.27"/><path class="cls-2" d="M516.37,215.21A23.86,23.86,0,0,0,554,230.1c-2.19,6.48,2.44,13.49,8.21,17.16A29.65,29.65,0,0,0,590,249.15"/><path class="cls-2" d="M438.6,151.09a114.6,114.6,0,0,1,60.46,33.69"/><path class="cls-2" d="M424.06,176a558.66,558.66,0,0,1,68.56,19.43"/><path class="cls-2" d="M413.86,202c18.51,1.94,37.05,3.88,55.38,7.08,8.4,1.47,16.91,3.25,24.37,7.39"/><path class="cls-2" d="M552.84,223.44a59.82,59.82,0,0,1,9.77,4.12c-1.89,1.38-4.06,2.62-6.4,2.6s-4.8-1.75-4.87-4.1,3.26-4.17,4.85-2.44c.86,1.16,1.42,2.93.41,4s-3.33,0-3.22-1.5a2.14,2.14,0,0,1,3.47-1.22,2.29,2.29,0,0,1-1.1,3.63,2.25,2.25,0,1,1,.5-.18c-1.82.92-4.07-1.67-3-3.42s4.21-1.22,4.78.73a3.13,3.13,0,0,1-3.53,3.67,3.56,3.56,0,0,1-2.3-4.81,5.29,5.29,0,0,1,7,.87c.74.91,1,2.47.07,3.14a2.42,2.42,0,0,1-1.48.3,5.64,5.64,0,0,1-3.95-1.42,2.79,2.79,0,0,1-.14-3.86,3.53,3.53,0,0,1,3.2-.45c1.89.46,3.9,2.37,3,4.07a3,3,0,0,1-2.89,1.24,4.81,4.81,0,0,1-3.7-1.82,3.14,3.14,0,0,1,.15-3.92,3.45,3.45,0,0,1,2.34-.91,4.52,4.52,0,0,1,4.33,2.55,3.51,3.51,0,0,1-1.7,4.49,2.86,2.86,0,0,1-3.83-2.43,3,3,0,0,1,3.59-2.63,4.4,4.4,0,0,1,3.22,3.53,1.87,1.87,0,0,1-.09,1.24,2.11,2.11,0,0,1-1.74.79,6.93,6.93,0,0,1-5.07-1.14c-1.36-1.15-1.73-3.55-.33-4.65s4.17.44,3.92,2.37a3,3,0,0,1-4.5,1.77,3.37,3.37,0,0,1,0-5.07,3.49,3.49,0,1,1,2.09,6.18c-2.7-.09-4.24-4.09-2.27-5.94s5.89,0,5.66,2.71a2.92,2.92,0,0,1-.78,1.79c-1.31,1.38-3.67,1-5.22-.14-1.2-.85-2.2-2.47-1.46-3.74.64-1.12,2.17-1.26,3.45-1.2a6.31,6.31,0,0,1,2.4.48,3.46,3.46,0,0,1,.45,5.68c-1.92,1.26-5-.49-4.79-2.78s3.7-3.42,5.13-1.61-.62,5-2.83,4.37a5.33,5.33,0,0,1-2.41-1.88c-1.08-1.25-2-3.47-.54-4.22a2.43,2.43,0,0,1,1.31-.15,5,5,0,0,1,3.93,2.15c.77,1.34.25,3.42-1.24,3.83-1.65.46-3.09-1.15-4.05-2.57a1.83,1.83,0,0,1-.44-1.25c.11-.72,1-1,1.68-1.14a5,5,0,0,1,2.52,0,2.77,2.77,0,0,1,1.14,4.28,2.86,2.86,0,0,1-4.44-.57,2.93,2.93,0,0,1,2-4c1.62-.3,3.39,1.31,3,2.91s-3.15,1.92-3.72.37"/><path class="cls-2" d="M527,173.86a24.94,24.94,0,0,0,30.27,16.74"/><path class="cls-2" d="M580.22,204.56a20.84,20.84,0,0,0,28.31,9"/></svg>