<svg id="Capa_1" data-name="Capa 1" xmlns="http://www.w3.org/2000/svg" viewBox="0 0 757.21 859.9"><defs><style>.cls-1,.cls-3{fill:#00837c;}.cls-2{fill:none;}.cls-2,.cls-3{stroke:#1d1d1b;stroke-linecap:round;stroke-linejoin:round;stroke-width:5.18px;}</style></defs><path class="cls-1" d="M520.09,603.75a553.66,553.66,0,0,0-9.74-66.61c-6-29.23-13.17-60-26.2-87.65-13.26-28.08-31.36-45.72-43.27-74.4-9.67-23.31-11.76-48.45-7.78-73.23,5.55-34.59,7.42-71.31-3.52-105.08a142.29,142.29,0,0,0-7.17-17.44c-2.49-5.2-6.46-10.71-7.46-16.45-.71-4.09.16-8.32,1-12.41q2.19-9.18,4.39-18.35l7.71-32.25c.51-2.14,1-4.29,1.57-6.43.36-1.41,3.23-8.49-.33-7.94-2,.32-3.46,2.19-4.86,3.49-5.09,4.77-10.45,9.34-15.78,13.84L388.17,120.7a8.94,8.94,0,0,1-1.18,1c-25.12-15.16-80.93-13.64-80.93-13.64-43,.67-64.4,15.23-64.4,15.23C203,79.45,203.19,82.24,200.56,82.87s-1.78,38.51-.66,50c1.06,10.83-4.22,19.41-10,28A207.64,207.64,0,0,0,174.2,189a154.39,154.39,0,0,0-14.41,63.54c-.41,34.47,11.27,67.67,5,102-5.08,27.91-17.32,55.06-33.63,78.17-18.64,26.42-36.25,49.58-46.78,80.78C69.87,556.55,66.87,603.38,72.75,648.3c4.69,35.81,14,64.34,28.38,87.22,23.26,36.93,63.68,64.68,113.81,78.15,34.06,9.16,69.41,11,101.07,10.27,13.77-.33,26.85-1.16,38.81-2.1,40.34-3.16,82.58-10,116-34.43,36-26.3,47.85-76.55,50.23-119.29A465.66,465.66,0,0,0,520.09,603.75Z"/><path class="cls-1" d="M543.91,630.91c16.64-24.43,25.53-53.4,30.45-82.54,12.22-72.38,1.18-146.45,2.17-219.84.41-30.61,3.06-61.8,14.86-90s34-53.44,63.2-62.57c22.52-7,49.89-2.72,64.87,15.52C733,207.93,733.72,231.69,729,252.5c-8.92,39.3-34,72.58-54.06,107.52a462.29,462.29,0,0,0-58.48,179.37c-5.54,50.72-3.48,105.1-30.32,148.48-24.79,40.07-73.67,63.82-120.48,58.54-4.78-.54-9.77-1.45-13.5-4.49-7.15-5.81-6.92-16.67-5.45-25.77,1.89-11.69,6.14-25.69,15.51-33.65,7.78-6.61,15.57-3.53,24.7-5.81C510,670.92,531,649.92,543.91,630.91Z"/><path class="cls-2" d="M249.17,235.6c24.57,6.2,43.07-4.41,49-19.5,2.22,8,6.61,21.48,23.29,23.31,9.65,1.05,21.48-2.24,30.37-8.58"/><path class="cls-2" d="M303.39,212.42l-6.1,10.5c-1.39-1.47-3.2-2.54-4.37-4.19-2.24-3.2-1-8.3,2.5-10s8.37.69,9,4.54-3.32,7.76-7.13,6.91a3.58,3.58,0,0,1-2.37-1.57,3.45,3.45,0,0,1,.74-3.89,10.25,10.25,0,0,1,3.59-2.17c2,1.6.64,5.51-1.92,5.59s-4.17-3.65-2.41-5.5,5.71-.33,5.69,2.3-3.95,4.14-5.73,2.21a3.81,3.81,0,0,1-.1-4.73,5,5,0,0,1,4.55-1.78c1.23.15,2.55.91,2.69,2.14a3.4,3.4,0,0,1-.27,1.47c-.82,2.4-2.69,5.15-5.17,4.6-1.82-.4-2.8-2.65-2.26-4.44a5.82,5.82,0,0,1,4-3.58,2.42,2.42,0,0,1,2.68.44,2.17,2.17,0,0,1,.36,1.14,4.52,4.52,0,0,1-2.31,4.36,3.63,3.63,0,0,1-4.6-1.2,3.68,3.68,0,0,1-.5-2.05,4.23,4.23,0,1,1,7.55,2.79,4.07,4.07,0,0,1-5.42.83,3.59,3.59,0,0,1-.31-5.3,3.19,3.19,0,0,1,4.93,1.32c.58,1.94-1.65,4.11-3.53,3.37-1.44-.56-2.06-2.23-2.51-3.72a2.68,2.68,0,0,1,4.33.41"/><path class="cls-2" d="M103.59,157a211,211,0,0,1,109.77,47.82"/><path class="cls-2" d="M90.52,215.48c31.41-.76,75.71,5.74,116.74,17.24"/><path class="cls-2" d="M117.46,282.39a316.62,316.62,0,0,1,103-28.81"/><path class="cls-2" d="M389.15,246.19A251.65,251.65,0,0,1,502,263.13"/><path class="cls-2" d="M396,223.89a514.1,514.1,0,0,1,123-7.44"/><path class="cls-2" d="M374.47,212.25c21.27-17.32,47.54-27.65,74.33-33.54s54.31-7.58,81.69-9.25"/><path class="cls-3" d="M212.27,536.36c5.26,26,3.46,52.93,1.63,79.44L201.4,797.49c-.55,8.09-1,16.77,3.22,23.71,6.26,10.37,21.46,12.74,32.19,7.12s17.22-17.23,19.8-29.07,1.81-24.09,1.51-36.19c-2-80.26,16.82-159.6,40.33-236.35"/><path class="cls-3" d="M348.69,517.35c6.66,21.74,6.8,44.89,6.28,67.63a1283.36,1283.36,0,0,1-22.06,209.38c-1.78,9.43-3.64,19.44-.27,28.43,5.4,14.41,25.28,21,38.23,12.7,11.42-7.34,15.21-22,18-35.3,20.32-96.61,37-194.51,37.95-293.23"/><path class="cls-2" d="M217.78,804.63c-4.43,7.59-4.49,16.33-3.89,24.51"/><path class="cls-2" d="M235.66,828.63c-2.12-6.29-3.67-17.47-2.56-25.18"/><path class="cls-2" d="M349.58,837.74c-3.86-9.47-2.16-19.23,0-26.92"/><path class="cls-2" d="M364.91,837.85c-3.2-11.47-3.08-18.17.48-29.65"/><path class="cls-2" d="M363.79,184.47c-3.14,4.81-9.47,7.74-15.85,8.76s-16.08-3.09-18.38-9.11"/><path class="cls-2" d="M272.54,179.05c-4.77,5.42-8.93,9.92-19.93,10.17-9.23.21-14.65-6-18.74-10.18"/></svg>