<svg id="Capa_1" data-name="Capa 1" xmlns="http://www.w3.org/2000/svg" viewBox="0 0 1162.65 1164.94"><defs><style>.cls-1{fill:#00837c;}.cls-2{fill:none;stroke:#1d1d1b;stroke-linecap:round;stroke-linejoin:round;stroke-width:5.18px;}</style></defs><path class="cls-1" d="M1128.88,74.12c-10.16-21.81-31.54-39.64-55.6-39.91-29.14-.32-52,20.36-62.69,46.23-12.81,31.08-5,59.54,5.61,89.87,22.37,64.09,26.54,131.29,1.41,195.46-23.85,60.88-69.68,101.69-119.88,140.6-20.12-24-49.67-40-80.74-45.14C778.74,455,738.76,464.39,705.32,484c-65.45,38.36-103.48,110.62-163,157.62a260.06,260.06,0,0,1-83.23,43.93c2.63-26.17-.89-81.54-10-81.78-8-2.45-25.08,31.79-36.56,49.47-18.6-10.91-35.86-17.28-66.7-17.28-29.75,0-43.8,5-60,13.31-10-20.65-31.18-59.9-38.72-56.64-5.41,2.89-2,34.18-1.56,57.66a17.64,17.64,0,0,1-1.52,9.27c-1.12,2.15-2.87,3.24-4.74,4.69-31.43,24.48-42.64,71.88-35,109.57a105.41,105.41,0,0,0,8.59,25.5c4.43,9,10.61,16.35,17.22,23.81,1,1.16,12.59,14.73,14.2,13-19.52,21.08-47.3,44.9-78.18,58-20.79,8.84-44.7,7.64-67,11.18-12.13,1.92-24.4,3.68-36,7.75-9.7,3.4-24.87,10.29-27,21.7-2.84,15,16.5,22.75,27.76,25.62,32.7,8.32,68.79,6.53,101.53-.71,33.77-7.48,62.69-19.75,94.31-33.77C239,952.69,216,979.11,185.5,993.58c-20.66,9.79-44,13.69-66.28,18.89-16.55,3.85-36.21,6.22-49,18.45-3.62,3.45-6.62,8-6.76,12.95-.16,6.05,3.84,11.39,8.19,15.59,19.41,18.76,47,22.52,72.74,18.36,27.12-4.39,52-15.52,76.25-27.86q38.78-19.71,76.44-41.5C323.84,993,351.2,975.9,382.58,972c25.82-3.18,47.1,6.31,71.57,12.37,40.73,10.09,82.94,12.92,124.57,7.32A313,313,0,0,0,631.3,980a139,139,0,0,1-8.74,26.62c-3.74,8.36-8.36,16.51-9.77,25.55s1.28,19.52,9.17,24.16c6.29,3.7,14.35,2.84,21.15.19,13.07-5.09,23.2-16.13,29.51-28.65s9.18-26.49,11-40.4A298.45,298.45,0,0,0,686,956.3a262.06,262.06,0,0,0,45.18-32.21q-4.65,36.21-9.31,72.42c-1.71,13.3-3.07,28,4.77,38.91,11.75,16.29,38.5,13.69,53.3.12s20.78-34,26.32-53.29q37.08-129.11,85.49-254.6c12.69-32.88,26-65.85,31.88-100.6,4-23.65,4.18-48.46-1.49-71.61a66.44,66.44,0,0,0,6.31-4.15c98.92-74.23,146-192.48,184.64-305.68C1131.22,192.52,1154.32,128.72,1128.88,74.12Z"/><path class="cls-2" d="M268.81,714.17c0-6.44,9.08-11.93,16.12-11.93,9.42,0,15.54,6,17,11.93"/><path class="cls-2" d="M357.09,720.1c0-7.92,8.74-12.65,15.07-12.85s13.89,4.34,15.08,13.84"/><path class="cls-2" d="M275.93,773.3c8,4.85,16.82,5.91,26,4.13,4.57-.89,22-8.73,25.49-19.06-.05,6.91,6.69,19.27,14.79,21.68,11.22,3.34,25.33.24,34.43-7"/><path class="cls-2" d="M322.74,748.52c4.18-1,7.35-.63,11.53-1.61-.37,3.31-.09,5.25-1.16,8.4-.66,2-1.73,4.11-3.75,4.57-2.36.54-4.47-1.59-5.62-3.72-1.44-2.69-2.22-6-.9-8.78s5.35-4.18,7.58-2.1c2.64,2.45.61,7.18-2.58,8.84a3.39,3.39,0,0,1-2.7.43c-1.28-.47-1.74-2.13-1.38-3.45a4.29,4.29,0,1,1,.93,4,4.4,4.4,0,0,1,1.17-6.54,4.23,4.23,0,0,1,5.84,3,4.06,4.06,0,0,1-4.82,4.31,5.1,5.1,0,0,1-2.9-2.41c-1.34-2.27-.84-6,1.73-6.58,2-.48,3.9,1.24,4.89,3.06a6.19,6.19,0,0,1,.87,3.78,4.35,4.35,0,0,1-6.35,2.79,4.54,4.54,0,0,1-.27-7,4.75,4.75,0,0,1,6.92,1.75,5,5,0,0,1-3.11,6.54c-2.8.78-6.11-1.76-5.72-4.64s4.8-4.27,6.53-1.93-1.15,6.29-4,5.46-3.45-5.35-1-7.09,6.33-.08,7,2.81a5.43,5.43,0,0,1-4.77,6.24,7.66,7.66,0,0,1-5.38-1.93,6.62,6.62,0,0,1-2.72-4.87c0-2.82,2.85-5.1,5.67-5a8.53,8.53,0,0,1,6.82,4.38,5.2,5.2,0,0,1,.89,3.58,2.55,2.55,0,0,1-2.64,2.16c-1.12-.18-1.84-1.25-2.36-2.26-.76-1.5-1.37-3.31-.61-4.81,1.09-2.16,4.67-2,6,0s.61,4.92-1.18,6.55a5.94,5.94,0,0,1-5.87,1.32,4.81,4.81,0,0,1-3.16-4.93,5.08,5.08,0,0,1,2.07-3.31A5.4,5.4,0,0,1,330,749a4.24,4.24,0,0,1,1.66,5.37,4.32,4.32,0,0,1-1.51,1.58c-3.13,2-8-.61-8.08-4.32s4.72-6.51,7.92-4.62a5.29,5.29,0,1,1-5.42,9.09,5.56,5.56,0,0,1-1.93-7.25c1.85-3.26,7.25-3.4,9.45-.37s.6,7.94-2.88,9.32a7.15,7.15,0,0,1-9-4.39,4,4,0,0,1-.17-2.19c.47-1.86,2.71-2.67,4.63-2.59a6.67,6.67,0,0,1,5.39,2.67c1.15,1.74.93,4.41-.79,5.58a4.12,4.12,0,0,1-2.32.68,5.69,5.69,0,0,1-2.35-10.92,5.42,5.42,0,0,1,6.93,2.63c1.06,2.53-.71,5.9-3.43,6.24s-5.3-2.83-4.2-5.35,4.82-2.91,6.85-1.14,2.37,5,1.36,7.44a3.77,3.77,0,0,1-1.8,2.16c-1.49.65-3.17-.35-4.37-1.43a9.57,9.57,0,0,1-3.35-5.26c-.36-2.09.65-4.52,2.66-5.2s4.44.73,5.85,2.5a8,8,0,0,1,2,5.32,4.66,4.66,0,0,1-3.29,4.28c-3.11.72-5.59-2.51-7.15-5.3a4,4,0,0,1-.7-2c.06-2.2,3.64-2.58,5-.84s1.09,4.19.76,6.36a2.58,2.58,0,0,1-1.59-2.26"/><path class="cls-2" d="M142.43,711.85a180.33,180.33,0,0,1,91,11.95"/><path class="cls-2" d="M151.65,753.94a189.31,189.31,0,0,1,102.65,1.52"/><path class="cls-2" d="M158.14,795.93c24.83-10.8,50.54-21.78,77.62-21.85"/><path class="cls-2" d="M417.78,788.77a130.23,130.23,0,0,1,79.84,40.6"/><path class="cls-2" d="M423.77,761a149.33,149.33,0,0,1,110,30.24"/><path class="cls-2" d="M410.2,737.47C446.28,727,487,734,517.53,755.9"/><path class="cls-2" d="M458.16,686.14C477.83,717,479.91,758.28,463.44,791"/><path class="cls-2" d="M36,934.75c7.13-4.56,23.58-5.67,31.89-3.15"/><path class="cls-2" d="M44.26,951.85c8.27-5,18-5.7,29.8-3.89"/><path class="cls-2" d="M64.09,1040c10.35.22,20.72.48,31.08.7"/><path class="cls-2" d="M69.74,1057.55a83.18,83.18,0,0,0,28.41-.77"/><path class="cls-2" d="M617.17,1052.1a79.83,79.83,0,0,1,15.29-21.37"/><path class="cls-2" d="M638.81,1057.91c.68-10.29,5.29-17.42,13.05-24.22"/><path class="cls-2" d="M733.54,1041.94c1.69-6.4,3.46-12.93,12.87-21.74"/><path class="cls-2" d="M756.1,1046.36c1.06-6.45,3-15.63,13.15-23.32"/><path class="cls-2" d="M750.72,687.42a119,119,0,0,0-36.23,82.43c-1,47.46,22.89,92.42,18.9,139.88a104,104,0,0,1-2.2,14.36"/></svg>