<svg width="178" height="174" viewBox="0 0 178 174" fill="none" xmlns="http://www.w3.org/2000/svg">
<path fill-rule="evenodd" clip-rule="evenodd" d="M178 33.4075C178 14.9694 163.017 0 144.57 0H33.4299C14.9832 0 0 14.9694 0 33.4075V140.592C0 159.026 14.9832 174 33.43 174H144.57C163.017 174 178 159.026 178 140.592L178 33.4075Z" fill="white" fill-opacity="0.7"/>
<path d="M109.938 76.6364C106.513 76.6364 103.597 75.7046 101.188 73.841C98.7786 71.9622 96.9377 69.2425 95.6649 65.6819C94.3922 62.1061 93.7559 57.7879 93.7559 52.7273C93.7559 47.697 94.3922 43.4016 95.6649 39.841C96.9528 36.2652 98.8013 33.5379 101.21 31.6591C103.635 29.7652 106.544 28.8182 109.938 28.8182C113.332 28.8182 116.233 29.7652 118.642 31.6591C121.066 33.5379 122.915 36.2652 124.188 39.841C125.476 43.4016 126.119 47.697 126.119 52.7273C126.119 57.7879 125.483 62.1061 124.21 65.6819C122.938 69.2425 121.097 71.9622 118.688 73.841C116.279 75.7046 113.362 76.6364 109.938 76.6364ZM109.938 71.6364C113.332 71.6364 115.968 70.0001 117.847 66.7273C119.726 63.4546 120.665 58.7879 120.665 52.7273C120.665 48.697 120.233 45.2652 119.369 42.4319C118.521 39.5985 117.294 37.4394 115.688 35.9546C114.097 34.4698 112.18 33.7273 109.938 33.7273C106.574 33.7273 103.945 35.3864 102.051 38.7046C100.157 42.0076 99.2104 46.6819 99.2104 52.7273C99.2104 56.7576 99.6346 60.1819 100.483 63.0001C101.332 65.8182 102.551 67.9622 104.142 69.4319C105.748 70.9016 107.68 71.6364 109.938 71.6364Z" fill="black"/>
<path d="M82.7555 76.3636C81.6343 76.3636 80.6721 75.9621 79.8691 75.159C79.0661 74.356 78.6646 73.3939 78.6646 72.2727C78.6646 71.1515 79.0661 70.1893 79.8691 69.3863C80.6721 68.5833 81.6343 68.1818 82.7555 68.1818C83.8767 68.1818 84.8388 68.5833 85.6418 69.3863C86.4449 70.1893 86.8464 71.1515 86.8464 72.2727C86.8464 73.0151 86.657 73.6969 86.2782 74.3181C85.9146 74.9393 85.4221 75.4393 84.8009 75.8181C84.1949 76.1818 83.513 76.3636 82.7555 76.3636Z" fill="black"/>
<path d="M38.7896 66.4546V61.8182L59.2441 29.4546H62.6077V36.6364H60.335L44.8805 61.091V61.4546H72.4259V66.4546H38.7896ZM60.6986 76V65.0455V62.8864V29.4546H66.0623V76H60.6986Z" fill="black"/>
<path opacity="0.7" d="M130.519 96.8907L129.825 97.0867C129.756 96.8907 129.66 96.7131 129.535 96.554C129.41 96.3949 129.246 96.2685 129.045 96.1748C128.846 96.081 128.599 96.0341 128.303 96.0341C127.86 96.0341 127.496 96.1393 127.212 96.3495C126.928 96.5597 126.786 96.831 126.786 97.1634C126.786 97.4447 126.883 97.6734 127.076 97.8495C127.272 98.0228 127.573 98.1606 127.979 98.2628L128.968 98.5057C129.516 98.6393 129.927 98.8509 130.2 99.1407C130.475 99.4305 130.613 99.7941 130.613 100.232C130.613 100.601 130.511 100.929 130.306 101.216C130.102 101.503 129.816 101.729 129.45 101.894C129.086 102.055 128.664 102.136 128.184 102.136C127.545 102.136 127.018 101.993 126.603 101.706C126.188 101.416 125.923 100.999 125.806 100.453L126.535 100.274C126.629 100.663 126.812 100.957 127.085 101.156C127.36 101.355 127.722 101.455 128.171 101.455C128.674 101.455 129.076 101.342 129.377 101.118C129.678 100.891 129.829 100.607 129.829 100.266C129.829 100.001 129.741 99.7799 129.565 99.6009C129.389 99.4191 129.121 99.2856 128.764 99.2003L127.694 98.9447C127.126 98.8083 126.705 98.5924 126.433 98.2969C126.16 98.0015 126.023 97.635 126.023 97.1975C126.023 96.8367 126.121 96.5199 126.318 96.2472C126.514 95.9716 126.783 95.7557 127.127 95.5995C127.471 95.4432 127.863 95.3651 128.303 95.3651C128.903 95.3651 129.381 95.5015 129.739 95.7742C130.1 96.0441 130.36 96.4162 130.519 96.8907Z" fill="black"/>
<path opacity="0.7" d="M121.315 102.136C120.705 102.136 120.176 101.994 119.73 101.71C119.284 101.423 118.939 101.027 118.695 100.521C118.453 100.013 118.333 99.4276 118.333 98.7657C118.333 98.1066 118.453 97.5214 118.695 97.01C118.939 96.4958 119.276 96.0938 119.705 95.804C120.136 95.5114 120.635 95.3651 121.2 95.3651C121.556 95.3651 121.898 95.4305 122.227 95.5611C122.557 95.689 122.852 95.8864 123.114 96.1535C123.378 96.4177 123.587 96.7515 123.74 97.1549C123.894 97.5555 123.97 98.0299 123.97 98.5782V98.9532H118.857V98.2841H123.195C123.195 97.8637 123.11 97.4859 122.939 97.1506C122.771 96.8126 122.537 96.5455 122.236 96.3495C121.938 96.1535 121.592 96.0555 121.2 96.0555C120.786 96.0555 120.421 96.1662 120.105 96.3878C119.79 96.6094 119.543 96.902 119.364 97.2657C119.188 97.6293 119.098 98.027 119.095 98.4589V98.8594C119.095 99.3793 119.185 99.8339 119.364 100.223C119.546 100.609 119.803 100.909 120.135 101.122C120.467 101.335 120.861 101.442 121.315 101.442C121.625 101.442 121.896 101.394 122.129 101.297C122.365 101.2 122.563 101.071 122.722 100.909C122.884 100.744 123.006 100.564 123.088 100.368L123.808 100.602C123.709 100.878 123.546 101.132 123.318 101.365C123.094 101.598 122.813 101.786 122.475 101.928C122.139 102.067 121.753 102.136 121.315 102.136Z" fill="black"/>
<path opacity="0.7" d="M111.998 97.909V102H111.24V95.4545H111.977V96.4815H112.045C112.199 96.1463 112.437 95.8778 112.761 95.6761C113.088 95.4715 113.491 95.3693 113.971 95.3693C114.412 95.3693 114.798 95.4616 115.13 95.6463C115.466 95.8281 115.726 96.0965 115.91 96.4516C116.098 96.8068 116.191 97.2428 116.191 97.7599V102H115.433V97.8068C115.433 97.2698 115.282 96.8451 114.981 96.5326C114.683 96.2201 114.282 96.0639 113.78 96.0639C113.436 96.0639 113.13 96.1377 112.863 96.2855C112.596 96.4332 112.385 96.6463 112.228 96.9247C112.075 97.2002 111.998 97.5284 111.998 97.909Z" fill="black"/>
<path opacity="0.7" d="M106.214 102.136C105.649 102.136 105.149 101.993 104.714 101.706C104.282 101.419 103.944 101.023 103.7 100.517C103.456 100.009 103.333 99.4219 103.333 98.7572C103.333 98.0867 103.456 97.4972 103.7 96.9887C103.944 96.4773 104.282 96.0796 104.714 95.7955C105.149 95.5086 105.649 95.3651 106.214 95.3651C106.78 95.3651 107.278 95.5086 107.71 95.7955C108.142 96.0824 108.48 96.4802 108.724 96.9887C108.971 97.4972 109.095 98.0867 109.095 98.7572C109.095 99.4219 108.973 100.009 108.728 100.517C108.484 101.023 108.145 101.419 107.71 101.706C107.278 101.993 106.78 102.136 106.214 102.136ZM106.214 101.442C106.669 101.442 107.054 101.32 107.369 101.075C107.684 100.831 107.923 100.506 108.085 100.099C108.25 99.6932 108.332 99.2458 108.332 98.7572C108.332 98.2685 108.25 97.8197 108.085 97.4106C107.923 97.0015 107.684 96.6734 107.369 96.4262C107.054 96.179 106.669 96.0555 106.214 96.0555C105.762 96.0555 105.378 96.179 105.059 96.4262C104.744 96.6734 104.504 97.0015 104.339 97.4106C104.177 97.8197 104.096 98.2685 104.096 98.7572C104.096 99.2458 104.177 99.6932 104.339 100.099C104.504 100.506 104.744 100.831 105.059 101.075C105.375 101.32 105.76 101.442 106.214 101.442Z" fill="black"/>
<path opacity="0.7" d="M100.421 102V95.4546H101.184V102H100.421ZM100.809 94.3296C100.653 94.3296 100.519 94.277 100.408 94.1719C100.298 94.0639 100.242 93.9347 100.242 93.7841C100.242 93.6335 100.298 93.5057 100.408 93.4006C100.519 93.2926 100.653 93.2386 100.809 93.2386C100.965 93.2386 101.099 93.2926 101.21 93.4006C101.32 93.5057 101.376 93.6335 101.376 93.7841C101.376 93.9347 101.32 94.0639 101.21 94.1719C101.099 94.277 100.965 94.3296 100.809 94.3296Z" fill="black"/>
<path d="M38.4232 147.423C36.1439 147.452 33.8822 147.02 31.7736 146.155C29.665 145.289 27.7528 144.006 26.1516 142.383C24.5 140.83 23.1893 138.949 22.3027 136.862C21.4161 134.775 20.9729 132.526 21.0013 130.259C20.9741 127.991 21.4178 125.743 22.3043 123.656C23.1908 121.569 24.5009 119.688 26.1516 118.134C27.745 116.495 29.6536 115.195 31.7626 114.313C33.8716 113.43 36.1373 112.985 38.4232 113.001C40.6013 112.972 42.7634 113.377 44.7839 114.191C46.8044 115.005 48.643 116.212 50.1927 117.743L46.8831 121.109C44.6166 118.919 41.5748 117.715 38.4232 117.762C36.7883 117.742 35.1671 118.062 33.6627 118.703C32.1583 119.343 30.8034 120.289 29.6843 121.481C28.5213 122.635 27.6037 124.013 26.987 125.531C26.3703 127.049 26.0672 128.676 26.0958 130.314C26.0822 131.934 26.3926 133.54 27.0089 135.038C27.6252 136.536 28.5349 137.895 29.6843 139.036C31.9868 141.331 35.094 142.636 38.3444 142.675C41.5948 142.713 44.7318 141.481 47.0876 139.241C48.5461 137.643 49.4408 135.612 49.6349 133.457H38.4789V128.697H54.2646C54.4197 129.655 54.482 130.627 54.4506 131.598C54.5487 133.607 54.2385 135.615 53.5386 137.501C52.8387 139.386 51.7637 141.111 50.3786 142.569C48.8386 144.173 46.978 145.434 44.918 146.27C42.8581 147.106 40.645 147.499 38.4232 147.423ZM75.1263 144.261C73.0078 146.293 70.1866 147.426 67.252 147.426C64.3174 147.426 61.4963 146.293 59.3778 144.261C58.3233 143.239 57.4929 142.008 56.9392 140.648C56.3854 139.287 56.1205 137.827 56.1611 136.358C56.1216 134.89 56.3871 133.429 56.9408 132.069C57.4944 130.709 58.3242 129.478 59.3778 128.455C61.4985 126.428 64.3188 125.297 67.252 125.297C70.1853 125.297 73.0056 126.428 75.1263 128.455C76.1798 129.478 77.0096 130.709 77.5633 132.069C78.1169 133.429 78.3824 134.89 78.3429 136.358C78.3812 137.828 78.1133 139.289 77.5563 140.65C76.9993 142.011 76.1655 143.241 75.1077 144.261H75.1263ZM62.8547 141.156C63.4182 141.758 64.0992 142.238 64.8556 142.566C65.612 142.894 66.4276 143.063 67.252 143.063C68.0764 143.063 68.8921 142.894 69.6484 142.566C70.4048 142.238 71.0858 141.758 71.6493 141.156C72.2637 140.521 72.7448 139.769 73.0641 138.945C73.3835 138.121 73.5346 137.241 73.5087 136.358C73.5361 135.472 73.3856 134.589 73.0663 133.762C72.747 132.935 72.2652 132.18 71.6493 131.542C71.0784 130.946 70.3928 130.472 69.6339 130.148C68.875 129.824 68.0585 129.657 67.2334 129.657C66.4084 129.657 65.5918 129.824 64.8329 130.148C64.074 130.472 63.3885 130.946 62.8175 131.542C62.2017 132.18 61.7199 132.935 61.4006 133.762C61.0812 134.589 60.9308 135.472 60.9582 136.358C60.9347 137.243 61.0888 138.123 61.4113 138.947C61.7339 139.771 62.2184 140.522 62.8361 141.156H62.8547ZM99.3347 144.261C97.2162 146.293 94.395 147.426 91.4604 147.426C88.5258 147.426 85.7047 146.293 83.5862 144.261C82.5318 143.239 81.7013 142.008 81.1476 140.648C80.5939 139.287 80.3289 137.827 80.3696 136.358C80.33 134.89 80.5955 133.429 81.1492 132.069C81.7028 130.709 82.5327 129.478 83.5862 128.455C85.7047 126.424 88.5258 125.29 91.4604 125.29C94.395 125.29 97.2162 126.424 99.3347 128.455C100.388 129.478 101.218 130.709 101.772 132.069C102.325 133.429 102.591 134.89 102.551 136.358C102.592 137.827 102.327 139.287 101.773 140.648C101.22 142.008 100.389 143.239 99.3347 144.261ZM87.0631 141.156C87.6266 141.758 88.3076 142.238 89.064 142.566C89.8204 142.894 90.636 143.063 91.4604 143.063C92.2849 143.063 93.1005 142.894 93.8569 142.566C94.6132 142.238 95.2942 141.758 95.8577 141.156C96.4722 140.521 96.9532 139.769 97.2725 138.945C97.5919 138.121 97.743 137.241 97.7171 136.358C97.7445 135.472 97.5941 134.589 97.2747 133.762C96.9554 132.935 96.4736 132.18 95.8577 131.542C95.2868 130.946 94.6012 130.472 93.8424 130.148C93.0835 129.824 92.2669 129.657 91.4418 129.657C90.6168 129.657 89.8002 129.824 89.0413 130.148C88.2825 130.472 87.5969 130.946 87.0259 131.542C86.4101 132.18 85.9283 132.935 85.609 133.762C85.2896 134.589 85.1392 135.472 85.1666 136.358C85.1431 137.243 85.2972 138.123 85.6198 138.947C85.9423 139.771 86.4268 140.522 87.0445 141.156H87.0631ZM115.251 157.353C113.022 157.424 110.836 156.728 109.059 155.382C107.481 154.195 106.238 152.619 105.452 150.807L109.691 149.041C110.152 150.123 110.874 151.075 111.792 151.811C112.775 152.604 114.008 153.019 115.269 152.983C116.069 153.032 116.87 152.907 117.618 152.619C118.365 152.33 119.042 151.883 119.601 151.309C120.722 149.958 121.275 148.225 121.145 146.474V144.875H120.977C120.269 145.717 119.374 146.382 118.364 146.818C117.354 147.253 116.256 147.448 115.158 147.386C113.762 147.39 112.38 147.104 111.1 146.548C109.82 145.991 108.669 145.174 107.72 144.15C106.691 143.134 105.878 141.919 105.332 140.58C104.785 139.241 104.516 137.804 104.541 136.358C104.515 134.903 104.784 133.458 105.33 132.11C105.876 130.761 106.689 129.537 107.72 128.511C108.667 127.482 109.816 126.662 111.097 126.101C112.377 125.541 113.76 125.253 115.158 125.256C116.34 125.254 117.509 125.515 118.579 126.019C119.504 126.423 120.33 127.026 120.996 127.785H121.163V126.019H125.774V145.824C125.896 147.39 125.696 148.965 125.188 150.452C124.679 151.939 123.873 153.306 122.818 154.471C121.813 155.432 120.626 156.183 119.326 156.678C118.026 157.173 116.64 157.403 115.251 157.353ZM115.585 143.071C116.379 143.089 117.167 142.931 117.893 142.61C118.62 142.288 119.266 141.811 119.787 141.212C120.934 139.897 121.539 138.195 121.479 136.451C121.548 134.678 120.944 132.944 119.787 131.598C119.267 130.997 118.621 130.519 117.894 130.198C117.168 129.876 116.379 129.719 115.585 129.738C114.77 129.721 113.96 129.878 113.21 130.199C112.459 130.52 111.786 130.996 111.234 131.598C110.004 132.895 109.336 134.626 109.375 136.414C109.356 137.291 109.511 138.163 109.83 138.98C110.149 139.797 110.626 140.543 111.234 141.175C111.783 141.781 112.455 142.265 113.206 142.592C113.956 142.919 114.767 143.082 115.585 143.071ZM133.974 114.247V146.753H129.121V114.247H133.974ZM147.287 147.423C145.833 147.46 144.388 147.197 143.041 146.65C141.694 146.103 140.475 145.283 139.459 144.243C138.428 143.21 137.618 141.979 137.078 140.623C136.538 139.268 136.279 137.817 136.317 136.358C136.262 134.896 136.502 133.438 137.022 132.07C137.543 130.703 138.334 129.454 139.347 128.399C140.303 127.392 141.457 126.596 142.738 126.061C144.019 125.526 145.397 125.265 146.785 125.293C148.061 125.28 149.326 125.527 150.503 126.019C151.564 126.447 152.53 127.079 153.348 127.878C154.05 128.556 154.674 129.311 155.207 130.128C155.639 130.819 156.006 131.547 156.304 132.304L156.806 133.569L141.932 139.687C142.382 140.721 143.134 141.594 144.09 142.191C145.046 142.789 146.16 143.083 147.287 143.034C148.382 143.037 149.46 142.756 150.415 142.218C151.37 141.681 152.169 140.904 152.735 139.966L156.453 142.476C155.504 143.834 154.29 144.986 152.883 145.861C151.211 146.918 149.265 147.461 147.287 147.423ZM141.077 136.023L150.968 131.914C150.663 131.189 150.118 130.591 149.425 130.221C148.648 129.783 147.769 129.558 146.878 129.571C145.364 129.61 143.928 130.245 142.88 131.337C142.253 131.937 141.766 132.669 141.454 133.479C141.143 134.289 141.014 135.158 141.077 136.023Z" fill="black"/>
<path opacity="0.7" d="M93.7419 97.909V102H92.9834V95.4545H93.7206V96.4815H93.7888C93.9422 96.1463 94.1808 95.8778 94.5047 95.6761C94.8314 95.4715 95.2348 95.3693 95.7149 95.3693C96.1553 95.3693 96.5416 95.4616 96.874 95.6463C97.2093 95.8281 97.4692 96.0965 97.6539 96.4516C97.8414 96.8068 97.9351 97.2428 97.9351 97.7599V102H97.1766V97.8068C97.1766 97.2698 97.026 96.8451 96.7249 96.5326C96.4266 96.2201 96.026 96.0639 95.5232 96.0639C95.1794 96.0639 94.874 96.1377 94.607 96.2855C94.3399 96.4332 94.1283 96.6463 93.972 96.9247C93.8186 97.2002 93.7419 97.5284 93.7419 97.909Z" fill="black"/>
<path opacity="0.7" d="M89.7346 102V95.4546H90.4974V102H89.7346ZM90.1224 94.3296C89.9662 94.3296 89.8327 94.277 89.7219 94.1719C89.6111 94.0639 89.5557 93.9347 89.5557 93.7841C89.5557 93.6335 89.6111 93.5057 89.7219 93.4006C89.8327 93.2926 89.9662 93.2386 90.1224 93.2386C90.2787 93.2386 90.4122 93.2926 90.523 93.4006C90.6338 93.5057 90.6892 93.6335 90.6892 93.7841C90.6892 93.9347 90.6338 94.0639 90.523 94.1719C90.4122 94.277 90.2787 94.3296 90.1224 94.3296Z" fill="black"/>
<path opacity="0.7" d="M82.0508 104.455V95.4546H82.788V96.7032H82.8775C82.9684 96.5072 83.0934 96.3069 83.2525 96.1023C83.4116 95.8949 83.6218 95.7202 83.8832 95.5782C84.1474 95.4361 84.4798 95.3651 84.8803 95.3651C85.4201 95.3651 85.8917 95.5072 86.2951 95.7912C86.7014 96.0725 87.0167 96.4674 87.2411 96.9759C87.4684 97.4816 87.582 98.0711 87.582 98.7444C87.582 99.4205 87.4684 100.013 87.2411 100.521C87.0167 101.03 86.7014 101.426 86.2951 101.71C85.8917 101.994 85.4229 102.136 84.8889 102.136C84.494 102.136 84.163 102.065 83.896 101.923C83.6317 101.781 83.4173 101.607 83.2525 101.399C83.0906 101.189 82.9656 100.984 82.8775 100.786H82.8093V104.455H82.0508ZM82.8008 98.7316C82.8008 99.26 82.8789 99.7287 83.0352 100.138C83.1942 100.544 83.4215 100.864 83.717 101.097C84.0153 101.327 84.3761 101.442 84.7994 101.442C85.234 101.442 85.6005 101.322 85.8988 101.084C86.1999 100.842 86.4286 100.517 86.5849 100.108C86.744 99.6989 86.8235 99.2401 86.8235 98.7316C86.8235 98.2287 86.7454 97.7756 86.5891 97.3722C86.4357 96.9688 86.2085 96.6492 85.9073 96.4134C85.6062 96.1748 85.2369 96.0555 84.7994 96.0555C84.3732 96.0555 84.011 96.1705 83.7127 96.4006C83.4144 96.6279 83.1871 96.9432 83.0309 97.3466C82.8775 97.7472 82.8008 98.2089 82.8008 98.7316Z" fill="black"/>
<path opacity="0.7" d="M77.0247 102.136C76.4594 102.136 75.9594 101.993 75.5247 101.706C75.0929 101.419 74.7548 101.023 74.5105 100.517C74.2662 100.009 74.144 99.4219 74.144 98.7572C74.144 98.0867 74.2662 97.4972 74.5105 96.9887C74.7548 96.4773 75.0929 96.0796 75.5247 95.7955C75.9594 95.5086 76.4594 95.3651 77.0247 95.3651C77.5901 95.3651 78.0886 95.5086 78.5205 95.7955C78.9523 96.0824 79.2903 96.4802 79.5347 96.9887C79.7818 97.4972 79.9054 98.0867 79.9054 98.7572C79.9054 99.4219 79.7832 100.009 79.5389 100.517C79.2946 101.023 78.9551 101.419 78.5205 101.706C78.0886 101.993 77.5901 102.136 77.0247 102.136ZM77.0247 101.442C77.4793 101.442 77.8642 101.32 78.1796 101.075C78.4949 100.831 78.7335 100.506 78.8955 100.099C79.0602 99.6932 79.1426 99.2458 79.1426 98.7572C79.1426 98.2685 79.0602 97.8197 78.8955 97.4106C78.7335 97.0015 78.4949 96.6734 78.1796 96.4262C77.8642 96.179 77.4793 96.0555 77.0247 96.0555C76.573 96.0555 76.1881 96.179 75.8699 96.4262C75.5546 96.6734 75.3145 97.0015 75.1497 97.4106C74.9878 97.8197 74.9068 98.2685 74.9068 98.7572C74.9068 99.2458 74.9878 99.6932 75.1497 100.099C75.3145 100.506 75.5546 100.831 75.8699 101.075C76.1852 101.32 76.5702 101.442 77.0247 101.442Z" fill="black"/>
<path opacity="0.7" d="M65.403 102.119C64.8661 102.119 64.386 102.023 63.9627 101.83C63.5394 101.634 63.2041 101.362 62.957 101.016C62.7098 100.669 62.5791 100.27 62.5649 99.8182H63.3703C63.3845 100.136 63.4826 100.415 63.6644 100.653C63.8462 100.889 64.0877 101.074 64.3888 101.207C64.6899 101.338 65.0252 101.403 65.3945 101.403C65.7979 101.403 66.153 101.328 66.4598 101.178C66.7695 101.027 67.011 100.821 67.1843 100.56C67.3604 100.295 67.4485 99.9972 67.4485 99.6648C67.4485 99.3125 67.359 99.0015 67.18 98.7316C67.001 98.4617 66.7439 98.2515 66.4087 98.1009C66.0763 97.9503 65.6786 97.875 65.2155 97.875H64.7041V97.1591H65.2155C65.5933 97.1591 65.9272 97.0909 66.2169 96.9546C66.5095 96.8154 66.7397 96.6208 66.9073 96.3708C67.0749 96.1208 67.1587 95.8267 67.1587 95.4887C67.1587 95.1676 67.0862 94.885 66.9414 94.6407C66.7965 94.3963 66.5919 94.2046 66.3277 94.0654C66.0664 93.9262 65.761 93.8566 65.4115 93.8566C65.0735 93.8566 64.7638 93.9219 64.4826 94.0526C64.2013 94.1833 63.974 94.3679 63.8007 94.6066C63.6303 94.8452 63.5394 95.1279 63.528 95.4546H62.7567C62.7681 95 62.8931 94.6009 63.1317 94.2571C63.3732 93.9105 63.6928 93.6407 64.0905 93.4475C64.4911 93.2515 64.9343 93.1534 65.4201 93.1534C65.9343 93.1534 66.3789 93.2586 66.7539 93.4688C67.1289 93.679 67.4186 93.9588 67.6232 94.3083C67.8306 94.6549 67.9343 95.037 67.9343 95.4546C67.9343 95.9517 67.7993 96.3779 67.5294 96.733C67.2595 97.0853 66.8959 97.3296 66.4385 97.4659V97.5213C66.9953 97.6321 67.4328 97.8793 67.751 98.2628C68.072 98.6435 68.2326 99.1108 68.2326 99.6648C68.2326 100.131 68.1104 100.55 67.8661 100.922C67.6218 101.291 67.2865 101.584 66.8604 101.8C66.4371 102.013 65.9513 102.119 65.403 102.119Z" fill="black"/>
<path opacity="0.7" d="M55.778 102L59.7538 94.044V93.9886H55.1729V93.2727H60.589V94.0227L56.6175 102H55.778Z" fill="black"/>
<path opacity="0.7" d="M50.3963 102.119C49.8395 102.119 49.3437 102.014 48.9091 101.804C48.4744 101.594 48.1335 101.307 47.8864 100.943C47.6392 100.577 47.5156 100.163 47.5156 99.7032C47.5156 99.3424 47.5909 99.0057 47.7415 98.6932C47.892 98.3779 48.0994 98.1137 48.3636 97.9006C48.6278 97.6847 48.9247 97.5441 49.2543 97.4787V97.4319C48.8253 97.3069 48.4801 97.0611 48.2188 96.6946C47.9574 96.3253 47.8281 95.9063 47.831 95.4375C47.8281 95.0029 47.9389 94.6137 48.1634 94.2699C48.3878 93.9262 48.6932 93.6549 49.0795 93.456C49.4687 93.2543 49.9077 93.1534 50.3963 93.1534C50.8821 93.1534 51.3182 93.2543 51.7045 93.456C52.0909 93.6549 52.3963 93.9262 52.6207 94.2699C52.848 94.6137 52.9631 95.0029 52.9659 95.4375C52.9631 95.9034 52.831 96.3225 52.5696 96.6946C52.3082 97.064 51.9645 97.3097 51.5384 97.4319V97.4787C51.8679 97.5412 52.1634 97.6804 52.4247 97.8963C52.6861 98.1122 52.8935 98.3779 53.0469 98.6932C53.2003 99.0057 53.277 99.3424 53.277 99.7032C53.277 100.163 53.152 100.577 52.902 100.943C52.6548 101.307 52.3139 101.594 51.8793 101.804C51.4474 102.014 50.9531 102.119 50.3963 102.119ZM50.3963 101.403C50.8111 101.403 51.1747 101.33 51.4872 101.182C51.8026 101.031 52.0483 100.825 52.2244 100.564C52.4034 100.303 52.4929 100.003 52.4929 99.6648C52.4929 99.3154 52.4006 99.0043 52.2159 98.7316C52.0312 98.456 51.7812 98.2387 51.4659 98.0796C51.1506 97.9176 50.794 97.8367 50.3963 97.8367C49.9986 97.8367 49.6406 97.9176 49.3224 98.0796C49.0071 98.2387 48.7571 98.456 48.5724 98.7316C48.3906 99.0043 48.2997 99.3154 48.2997 99.6648C48.2997 100.003 48.3864 100.303 48.5597 100.564C48.7358 100.825 48.9815 101.031 49.2969 101.182C49.6151 101.33 49.9815 101.403 50.3963 101.403ZM50.3963 97.1549C50.7372 97.1549 51.0426 97.0824 51.3125 96.9375C51.5824 96.7926 51.7955 96.5952 51.9517 96.3452C52.1108 96.0924 52.1918 95.8054 52.1946 95.4844C52.1918 95.1662 52.1122 94.885 51.956 94.6407C51.7997 94.3935 51.5866 94.2017 51.3168 94.0654C51.0497 93.9262 50.7429 93.8566 50.3963 93.8566C50.0497 93.8566 49.7401 93.9262 49.4673 94.0654C49.1974 94.2017 48.9844 94.3935 48.8281 94.6407C48.6747 94.885 48.5994 95.1662 48.6023 95.4844C48.5994 95.8054 48.6761 96.0924 48.8324 96.3452C48.9915 96.5952 49.206 96.7926 49.4759 96.9375C49.7486 97.0824 50.0554 97.1549 50.3963 97.1549Z" fill="black"/>
</svg>
