<?xml version="1.0" encoding="UTF-8" standalone="no"?>
<!DOCTYPE svg PUBLIC "-//W3C//DTD SVG 1.1//EN" "http://www.w3.org/Graphics/SVG/1.1/DTD/svg11.dtd">
<svg width="100%" height="100%" viewBox="0 0 91 75" version="1.1" xmlns="http://www.w3.org/2000/svg" xmlns:xlink="http://www.w3.org/1999/xlink" xml:space="preserve" xmlns:serif="http://www.serif.com/" style="fill-rule:evenodd;clip-rule:evenodd;stroke-linejoin:round;stroke-miterlimit:2;">
    <g id="Mesa-de-trabajo1" serif:id="Mesa de trabajo1" transform="matrix(0.873799,0,0,0.719756,-5.467087,0)">
        <g transform="matrix(1.144428,0,0,1.389361,0.907314,-17.671487)">
            <path d="M87.445,61.496C87.445,61.309 87.5,61.129 87.5,60.937C87.484,51.539 83.945,42.488 77.582,35.574C71.218,28.66 62.488,24.386 53.125,23.597L53.125,20.312L56.25,20.312C57.976,20.312 59.375,18.914 59.375,17.187C59.375,15.461 57.976,14.062 56.25,14.062L43.75,14.062C42.023,14.062 40.625,15.461 40.625,17.187C40.625,18.914 42.023,20.312 43.75,20.312L46.875,20.312L46.875,23.597C37.511,24.386 28.781,28.66 22.418,35.574C16.054,42.489 12.515,51.539 12.5,60.937C12.5,61.129 12.539,61.309 12.554,61.496C8.793,62.793 6.261,66.332 6.25,70.312L6.25,76.562C6.25,81.738 10.449,85.937 15.625,85.937L84.375,85.937C89.55,85.937 93.75,81.738 93.75,76.562L93.75,70.312C93.738,66.332 91.207,62.793 87.445,61.496ZM50,29.687C58.285,29.695 66.227,32.992 72.086,38.851C77.945,44.711 81.242,52.652 81.25,60.937L18.75,60.937C18.758,52.652 22.055,44.71 27.914,38.851C33.774,32.992 41.715,29.695 50,29.687ZM87.5,76.562C87.5,77.39 87.172,78.187 86.586,78.773C86,79.359 85.203,79.687 84.375,79.687L15.625,79.687C13.898,79.687 12.5,78.289 12.5,76.562L12.5,70.312C12.5,68.585 13.898,67.187 15.625,67.187L84.375,67.187C85.203,67.187 86,67.515 86.586,68.101C87.172,68.687 87.5,69.484 87.5,70.312L87.5,76.562Z" style="fill:rgb(7,79,77);fill-rule:nonzero;"/>
        </g>
    </g>
</svg>
