<svg width="82" height="70" viewBox="0 0 82 70" fill="none" xmlns="http://www.w3.org/2000/svg">
<path d="M71.9014 58.1221H10.0947C8.75977 58.1221 7.67383 57.0361 7.67383 55.7021V51.4395C7.67383 36.042 18.1006 22.7354 33.0312 19.0811C33.3574 18.9961 33.6963 18.9219 34.0361 18.8477C38.5479 17.875 43.4502 17.875 47.958 18.8477C48.2998 18.9219 48.6387 18.9961 48.9785 19.085C54.8535 20.5176 60.2441 23.5625 64.5527 27.8857C70.8525 34.1689 74.3223 42.5352 74.3223 51.4395V55.7021C74.3223 57.0361 73.2363 58.1221 71.9014 58.1221ZM40.998 20.1152C38.7754 20.1152 36.5752 20.3467 34.46 20.8027C34.1475 20.8711 33.834 20.9395 33.5195 21.0205C19.4736 24.459 9.67383 36.9658 9.67383 51.4395V55.7021C9.67383 55.9336 9.8623 56.1221 10.0947 56.1221H71.9014C72.1338 56.1221 72.3223 55.9336 72.3223 55.7021V51.4395C72.3223 43.0703 69.0605 35.207 63.1387 29.2998C59.0869 25.2344 54.0225 22.374 48.4902 21.0244C48.1621 20.9395 47.8486 20.8711 47.5342 20.8027C45.4209 20.3467 43.2207 20.1152 40.998 20.1152Z" fill="#074F4D"/>
<path d="M48.7275 21.0527C48.6445 21.0527 48.5596 21.042 48.4766 21.0205C48.1621 20.9395 47.8486 20.8711 47.5342 20.8027C43.3076 19.8906 38.6904 19.8906 34.46 20.8027C34.1475 20.8711 33.834 20.9395 33.5195 21.0205C33.0586 21.1377 32.5752 20.917 32.3682 20.4883C32.0801 19.8916 31.9277 19.2305 31.9277 18.5752V16.8135C31.9277 14.3975 33.8994 12.4316 36.3232 12.4316H45.6729C48.0967 12.4316 50.0684 14.3975 50.0684 16.8135V18.5752C50.0684 19.2305 49.916 19.8916 49.6279 20.4883C49.458 20.8398 49.1035 21.0527 48.7275 21.0527ZM40.998 18.1152C43.3623 18.1152 45.7041 18.3613 47.958 18.8477C47.9883 18.8545 48.0195 18.8613 48.0498 18.8682C48.0625 18.7705 48.0684 18.6729 48.0684 18.5752V16.8135C48.0684 15.5 46.9941 14.4316 45.6729 14.4316H36.3232C35.002 14.4316 33.9277 15.5 33.9277 16.8135V18.5752C33.9277 18.6729 33.9336 18.7705 33.9463 18.8682C33.9766 18.8613 34.0059 18.8545 34.0361 18.8477C36.292 18.3613 38.6338 18.1152 40.998 18.1152Z" fill="#074F4D"/>
<path d="M76.7943 69.252H5.20251C3.41637 69.252 1.77673 68.3525 0.816766 66.8457C-0.142219 65.3389 -0.264289 63.4736 0.490594 61.8555C2.07262 58.4658 5.20837 56.3594 8.67614 56.3594H73.3207C76.7884 56.3594 79.9242 58.4658 81.5062 61.8555C82.2611 63.4736 82.139 65.3389 81.18 66.8457C80.2201 68.3525 78.5804 69.252 76.7943 69.252ZM8.67614 58.3594C5.9945 58.3594 3.55212 60.0234 2.30309 62.7012C1.83825 63.6963 1.91345 64.8447 2.50329 65.7715C3.09411 66.6982 4.1029 67.252 5.20251 67.252H76.7943C77.8939 67.252 78.9027 66.6982 79.4935 65.7715C80.0834 64.8447 80.1586 63.6963 79.6937 62.7012C78.4447 60.0234 76.0023 58.3594 73.3207 58.3594H8.67614Z" fill="#074F4D"/>
<path d="M45.4541 7.80176H36.542C34.5303 7.80176 32.8936 6.16504 32.8936 4.15332V3.64746C32.8936 1.63672 34.5303 0 36.542 0H45.4541C47.4658 0 49.1025 1.63672 49.1025 3.64746V4.15332C49.1025 6.16504 47.4658 7.80176 45.4541 7.80176ZM36.542 2C35.6328 2 34.8936 2.73926 34.8936 3.64746V4.15332C34.8936 5.0625 35.6328 5.80176 36.542 5.80176H45.4541C46.3633 5.80176 47.1025 5.0625 47.1025 4.15332V3.64746C47.1025 2.73926 46.3633 2 45.4541 2H36.542Z" fill="#074F4D"/>
<path d="M73.3223 52.4395H8.67383C8.12109 52.4395 7.67383 51.9922 7.67383 51.4395C7.67383 50.8867 8.12109 50.4395 8.67383 50.4395H73.3223C73.875 50.4395 74.3223 50.8867 74.3223 51.4395C74.3223 51.9922 73.875 52.4395 73.3223 52.4395Z" fill="#074F4D"/>
<path d="M42.8633 14.4316H39.1328C38.5801 14.4316 38.1328 13.9844 38.1328 13.4316V6.80176C38.1328 6.24902 38.5801 5.80176 39.1328 5.80176H42.8633C43.416 5.80176 43.8633 6.24902 43.8633 6.80176V13.4316C43.8633 13.9844 43.416 14.4316 42.8633 14.4316ZM40.1328 12.4316H41.8633V7.80176H40.1328V12.4316Z" fill="#074F4D"/>
</svg>
