<svg width="28" height="28" viewBox="0 0 28 28" fill="none" xmlns="http://www.w3.org/2000/svg">
<path d="M14.1124 27.9358C12.2662 27.9593 10.4343 27.6092 8.72636 26.9065C7.01842 26.2037 5.46961 25.1628 4.17269 23.8459C2.83493 22.585 1.77331 21.0592 1.05518 19.3653C0.337042 17.6714 -0.0219319 15.8465 0.00103654 14.0062C-0.0210137 12.1661 0.338373 10.3414 1.05645 8.64765C1.77453 6.95391 2.83566 5.42799 4.17269 4.16647C5.46325 2.83599 7.00922 1.78106 8.71745 1.06521C10.4257 0.349368 12.2608 -0.0125752 14.1124 0.00118476C15.8766 -0.0223768 17.6278 0.305706 19.2644 0.966362C20.901 1.62702 22.3901 2.60707 23.6454 3.84955L20.9647 6.58113C19.1289 4.80326 16.6651 3.82652 14.1124 3.86464C12.7882 3.84834 11.475 4.10826 10.2565 4.62788C9.03792 5.1475 7.94055 5.91546 7.03411 6.88296C6.09205 7.81951 5.34888 8.93742 4.84936 10.1694C4.34983 11.4014 4.10429 12.7219 4.12751 14.0515C4.11645 15.3659 4.36792 16.6692 4.86709 17.8848C5.36626 19.1003 6.10306 20.2035 7.03411 21.1294C8.89908 22.9919 11.4158 24.0514 14.0486 24.0824C16.6813 24.1134 19.2222 23.1135 21.1304 21.2954C22.3117 19.9991 23.0364 18.3504 23.1936 16.602H14.1575V12.7385H26.9436C27.0692 13.5166 27.1196 14.305 27.0942 15.0928C27.1737 16.7233 26.9224 18.353 26.3555 19.8835C25.7886 21.4139 24.9179 22.8132 23.796 23.9968C22.5486 25.2983 21.0415 26.3217 19.373 27.0004C17.7045 27.679 15.912 27.9978 14.1124 27.9358Z" fill="black"/>
</svg>
