<svg width="87" height="87" viewBox="0 0 87 87" fill="none" xmlns="http://www.w3.org/2000/svg">
<path d="M31.1869 59.8849C32.7496 70.9807 37.0518 80.0015 43.9802 86.6961C44.1847 86.893 44.4566 87.0006 44.7361 87.0006C44.8057 87.0006 44.8752 86.9941 44.9448 86.98C75.857 80.9313 86.8571 40.1794 86.9647 39.7684C87.1137 39.2007 86.7842 38.6167 86.2209 38.4503L54.865 29.1783C56.7594 14.2306 53.8971 1.08166 53.8449 0.847846C53.7155 0.274734 53.1587 -0.089578 52.578 0.019172L0.88155 9.98393C0.305176 10.0949 -0.0787121 10.644 0.0137253 11.2237C0.0757128 11.6141 6.13091 47.5505 31.1869 59.8849ZM84.5668 40.2305C82.6898 46.4293 71.5962 79.1228 45.0851 84.7321C39.0386 78.7095 35.1922 70.7066 33.5805 60.9605C34.7713 61.4509 35.986 61.9077 37.2573 62.2883C37.3595 62.3187 37.4639 62.334 37.5683 62.334C37.8109 62.334 38.0501 62.2524 38.2448 62.098C48.3694 54.0581 52.8205 42.3707 54.5507 31.3555L84.5668 40.2305ZM51.9277 2.36164C53.112 8.72895 58.2972 42.8623 37.3356 60.0372C11.5151 51.8853 3.62422 18.2674 2.35402 11.9153L51.9277 2.36164Z" fill="#074F4D"/>
<path d="M22.7837 39.4128C22.2552 39.6977 22.0573 40.3567 22.3422 40.8852C24.4585 44.8166 28.43 47.1732 32.6539 47.1732C33.3695 47.1732 34.0937 47.1057 34.8158 46.9665C39.802 46.0063 43.5485 41.8738 44.1368 36.6842C44.2042 36.0872 43.7757 35.5489 43.1787 35.4815C42.5882 35.4108 42.0444 35.8425 41.9759 36.4395C41.4953 40.6786 38.4524 44.051 34.4048 44.8307C30.3527 45.6093 26.2779 43.6105 24.2562 39.8543C23.9713 39.3258 23.3134 39.1246 22.7837 39.4128Z" fill="#074F4D"/>
<path d="M23.0274 24.5487C23.1405 25.1381 23.706 25.5199 24.3009 25.41C24.8903 25.2969 25.2764 24.726 25.1622 24.1366C24.5717 21.0742 21.6648 19.0525 18.6861 19.6245C17.2354 19.904 15.9859 20.749 15.167 22.0029C14.3557 23.2459 14.0664 24.7434 14.3514 26.2202C14.4514 26.7411 14.9071 27.1022 15.4182 27.1022C15.4856 27.1022 15.5552 27.0956 15.6248 27.0826C16.2142 26.9695 16.6003 26.3986 16.4861 25.8091C16.3089 24.8891 16.4861 23.9604 16.9875 23.1926C17.4812 22.4368 18.2305 21.9278 19.0961 21.7615C20.8992 21.4091 22.6631 22.663 23.0274 24.5487Z" fill="#074F4D"/>
<path d="M36.3624 23.0655C36.4298 23.0655 36.4994 23.0589 36.569 23.0459C37.1585 22.9328 37.5445 22.3619 37.4314 21.7724C37.2542 20.8524 37.4325 19.9226 37.9328 19.1548C38.4265 18.399 39.1758 17.8901 40.0414 17.7237C40.9071 17.5562 41.7912 17.7498 42.5318 18.2685C43.2822 18.7949 43.7933 19.592 43.9705 20.5109C44.0836 21.1004 44.6557 21.4853 45.244 21.3733C45.8334 21.2602 46.2195 20.6893 46.1064 20.0999C45.8215 18.623 44.9961 17.3398 43.7813 16.4883C42.5557 15.6281 41.08 15.3094 39.6303 15.5878C38.1796 15.8673 36.9301 16.7123 36.1112 17.9662C35.2999 19.2092 35.0106 20.7067 35.2956 22.1824C35.3956 22.7033 35.8513 23.0655 36.3624 23.0655Z" fill="#074F4D"/>
<path d="M39.1801 65.5594C38.8451 66.0575 38.9789 66.7339 39.477 67.0688C39.975 67.4049 40.6525 67.27 40.9864 66.772C43.3637 63.2289 47.618 61.6346 51.5689 62.8026C55.5219 63.9716 58.2233 67.6235 58.2918 71.8886C58.3016 72.4824 58.7866 72.9587 59.3793 72.9587C59.3847 72.9587 59.3913 72.9587 59.3978 72.9587C59.9981 72.949 60.4777 72.4541 60.4679 71.8538C60.3841 66.6328 57.0564 62.1566 52.1877 60.7168C47.3189 59.2769 42.0902 61.2214 39.1801 65.5594Z" fill="#074F4D"/>
<path d="M61.4162 51.5339C61.9936 51.7036 62.5972 51.3752 62.7679 50.7999C63.3128 48.9598 65.1909 47.8875 66.9483 48.4052C68.7089 48.9261 69.6986 50.8477 69.1548 52.6878C68.9841 53.2641 69.3136 53.8688 69.8889 54.0395C69.9922 54.07 70.0955 54.0852 70.1977 54.0852C70.6675 54.0852 71.1003 53.7785 71.2395 53.3055C72.1237 50.3148 70.475 47.1807 67.5638 46.3205C64.6515 45.4592 61.5652 47.1926 60.681 50.1833C60.5114 50.7585 60.8398 51.3632 61.4162 51.5339Z" fill="#074F4D"/>
</svg>
