<svg width="107" height="87" viewBox="0 0 107 87" fill="none" xmlns="http://www.w3.org/2000/svg">
<path fill-rule="evenodd" clip-rule="evenodd" d="M103.238 86.9431H12.3268C11.3181 86.9431 10.3707 86.5307 9.65178 85.795C8.94959 85.0706 8.56506 84.1176 8.56506 83.1145C8.56506 81.0358 10.2481 79.3528 12.3268 79.3528H103.238C105.317 79.3528 107 81.0358 107 83.1145C107 84.1176 106.616 85.0706 105.913 85.795C105.194 86.5307 104.247 86.9431 103.238 86.9431ZM12.3268 81.5764C11.4853 81.5764 10.7943 82.2674 10.7943 83.1089C10.7943 83.9783 11.4965 84.7083 12.3268 84.7083H103.238C104.069 84.7083 104.771 83.9783 104.771 83.1089C104.771 82.2674 104.08 81.5764 103.238 81.5764H12.3268Z" fill="#074F4D"/>
<path fill-rule="evenodd" clip-rule="evenodd" d="M36.085 81.5759C35.472 81.5759 34.9704 81.0743 34.9704 80.4613V75.5182C34.9704 73.406 33.2484 71.684 31.1363 71.684H27.0959C24.9838 71.684 23.2618 73.406 23.2618 75.5182V80.4613C23.2618 81.0743 22.7602 81.5759 22.1472 81.5759C21.5342 81.5759 21.0326 81.0743 21.0326 80.4613V75.5182C21.0326 72.1743 23.7521 69.4548 27.0959 69.4548H31.1363C34.4801 69.4548 37.1996 72.1743 37.1996 75.5182V80.4613C37.1996 81.0743 36.698 81.5759 36.085 81.5759Z" fill="#074F4D"/>
<path fill-rule="evenodd" clip-rule="evenodd" d="M29.1187 71.6889C28.5057 71.6889 28.0042 71.1874 28.0042 70.5744V29.1953C28.0042 28.5822 28.5057 28.0807 29.1187 28.0807C29.7318 28.0807 30.2333 28.5822 30.2333 29.1953V70.5744C30.2333 71.1874 29.7318 71.6889 29.1187 71.6889Z" fill="#074F4D"/>
<path fill-rule="evenodd" clip-rule="evenodd" d="M57.1227 30.3056H1.11458C0.501559 30.3056 0 29.8041 0 29.1911C0 13.0968 13.0629 0 29.1183 0C45.1737 0 58.2366 13.0964 58.2366 29.1911C58.2366 29.8041 57.7358 30.3056 57.1227 30.3056ZM2.25164 28.0765H55.98C55.3948 13.7256 43.5691 2.22953 29.1129 2.22953C14.6568 2.22953 2.83657 13.7265 2.25164 28.0765Z" fill="#074F4D"/>
<path fill-rule="evenodd" clip-rule="evenodd" d="M41.1012 30.3056H17.1374C16.5244 30.3056 16.0228 29.8041 16.0228 29.1911C16.0228 21.5617 17.299 14.3608 19.6229 8.91668C22.075 3.17106 25.4465 0 29.1191 0C32.7916 0 36.1688 3.16549 38.6153 8.91668C40.9336 14.3558 42.2153 21.5617 42.2153 29.1911C42.2153 29.8041 41.7142 30.3056 41.1012 30.3056ZM18.2573 28.0765H39.9698C39.8528 21.1604 38.6546 14.7015 36.5537 9.79229C34.5139 4.99398 31.7944 2.23538 29.1139 2.23538C26.4333 2.23538 23.7136 4.99398 21.6684 9.79229C19.5729 14.702 18.3743 21.1611 18.2573 28.0765Z" fill="#074F4D"/>
<path fill-rule="evenodd" clip-rule="evenodd" d="M100.452 81.5759C100.374 81.5759 100.307 81.5703 100.229 81.5536C99.6216 81.4254 99.2314 80.8403 99.3596 80.2384L101.661 68.8808C101.789 68.2734 102.375 67.8833 102.976 68.0114C103.584 68.1396 103.974 68.7248 103.846 69.3266L101.544 80.6842C101.433 81.2136 100.97 81.5759 100.452 81.5759ZM92.6498 81.5759C92.1259 81.5759 91.6689 81.2136 91.5575 80.6842L89.2558 69.3267C89.1276 68.7192 89.5177 68.134 90.1252 68.0114C90.7327 67.8833 91.3178 68.2734 91.4404 68.8808L93.7421 80.2384C93.8702 80.8458 93.4801 81.431 92.8727 81.5536C92.7947 81.5703 92.7222 81.5759 92.6498 81.5759Z" fill="#074F4D"/>
<path fill-rule="evenodd" clip-rule="evenodd" d="M103.723 70.2239H89.4453C87.8292 70.2239 86.5195 68.9143 86.5195 67.2981C86.5195 65.7098 87.857 64.3723 89.4453 64.3723H103.723C105.312 64.3723 106.649 65.7098 106.649 67.2981C106.649 68.9143 105.34 70.2239 103.723 70.2239ZM89.4453 66.6015C89.0887 66.6015 88.7487 66.9414 88.7487 67.2981C88.7487 67.7495 89.111 67.9947 89.4453 67.9947H103.723C104.058 67.9947 104.42 67.7495 104.42 67.2981C104.42 66.9414 104.08 66.6015 103.723 66.6015H89.4453Z" fill="#074F4D"/>
<path fill-rule="evenodd" clip-rule="evenodd" d="M96.5516 66.6017C95.9386 66.6017 95.437 66.1001 95.437 65.4871V43.7533C95.437 43.1402 95.9386 42.6387 96.5516 42.6387C97.1646 42.6387 97.6662 43.1402 97.6662 43.7533V65.4871C97.6662 66.1001 97.1646 66.6017 96.5516 66.6017Z" fill="#074F4D"/>
<path fill-rule="evenodd" clip-rule="evenodd" d="M100.369 53.9569C98.4745 53.9569 96.68 53.0262 95.6156 51.3989C95.4818 51.1982 95.4205 50.953 95.4373 50.7078C95.6156 48.2056 97.3209 46.1325 99.6728 45.5306C100.843 45.1962 102.069 45.2575 103.212 45.6978C104.309 46.1213 105.274 46.896 105.914 47.8767C106.043 48.0718 106.104 48.2947 106.093 48.5232C106.004 50.9976 104.287 53.1432 101.919 53.7394C101.4 53.8787 100.882 53.9511 100.364 53.9511L100.369 53.9569ZM97.7054 50.485C98.5636 51.5215 99.9735 51.9674 101.333 51.594C101.339 51.594 101.345 51.5884 101.361 51.5884C102.665 51.2596 103.641 50.145 103.83 48.8075C102.983 47.771 101.568 47.3084 100.263 47.6762C100.252 47.6762 100.241 47.6818 100.23 47.6818C98.926 48.0106 97.9505 49.1085 97.7054 50.485Z" fill="#074F4D"/>
<path fill-rule="evenodd" clip-rule="evenodd" d="M92.7623 59.3228C92.2551 59.3228 91.7369 59.2503 91.2298 59.1054C88.8389 58.4255 87.1894 56.397 87.0055 53.9337C86.9944 53.6885 87.0501 53.4433 87.1839 53.2427C87.8248 52.2619 88.7833 51.4872 89.8867 51.0637C91.0291 50.6235 92.2495 50.5622 93.42 50.8965C95.833 51.4873 97.5719 53.5994 97.661 56.046C97.6666 56.2689 97.6109 56.4918 97.4938 56.6813C96.8474 57.7123 95.9111 58.4924 94.791 58.9383C94.1278 59.189 93.4479 59.3228 92.7569 59.3228L92.7623 59.3228ZM89.2792 54.1511C89.5189 55.4886 90.4941 56.5697 91.8428 56.9599C93.1747 57.3444 94.568 56.8707 95.4095 55.7785C95.2144 54.4688 94.2169 53.3765 92.8794 53.0532C92.8683 53.0477 92.8515 53.0477 92.8348 53.0421C91.5308 52.6798 90.1264 53.1313 89.2737 54.1567L89.2792 54.1511Z" fill="#074F4D"/>
<path fill-rule="evenodd" clip-rule="evenodd" d="M49.1818 81.5758C49.0481 81.5758 48.9199 81.5535 48.7861 81.5033C48.2066 81.286 47.9223 80.6395 48.1397 80.0711L49.8841 75.4734C50.1014 74.8938 50.7479 74.6096 51.3163 74.8269C51.8959 75.0443 52.1801 75.6907 51.9628 76.2592L50.2184 80.8569C50.0512 81.3027 49.6332 81.5758 49.1818 81.5758ZM45.9774 81.5758C45.3644 81.5758 44.8628 81.0742 44.8628 80.4612V75.8635C44.8628 75.2505 45.3644 74.7489 45.9774 74.7489C46.5904 74.7489 47.092 75.2505 47.092 75.8635V80.4612C47.092 81.0742 46.5904 81.5758 45.9774 81.5758Z" fill="#074F4D"/>
<path fill-rule="evenodd" clip-rule="evenodd" d="M76.4212 76.9778H45.9818C45.3687 76.9778 44.8672 76.4762 44.8672 75.8632C44.8672 75.2502 45.3687 74.7486 45.9818 74.7486H76.4212C77.0342 74.7486 77.5358 75.2502 77.5358 75.8632C77.5358 76.4762 77.0342 76.9778 76.4212 76.9778ZM76.4212 68.4067H45.9818C45.3687 68.4067 44.8672 67.9051 44.8672 67.2921C44.8672 66.679 45.3687 66.1775 45.9818 66.1775H76.4212C77.0342 66.1775 77.5358 66.679 77.5358 67.2921C77.5358 67.9051 77.0342 68.4067 76.4212 68.4067Z" fill="#074F4D"/>
<path fill-rule="evenodd" clip-rule="evenodd" d="M45.9776 76.9776H42.2159C39.7193 76.9776 37.6907 74.9435 37.6907 72.4524V62.5604C37.6907 60.0637 39.7248 58.0352 42.2159 58.0352H42.5614C45.0581 58.0352 47.0867 60.0693 47.0867 62.5604V75.8629C47.0867 76.476 46.5851 76.9775 45.9721 76.9775L45.9776 76.9776ZM42.2159 60.2585C40.9509 60.2585 39.9143 61.2895 39.9143 62.5601V72.4521C39.9143 73.7171 40.9453 74.7537 42.2159 74.7537H44.8631V62.5601C44.8631 61.2951 43.8321 60.2585 42.5615 60.2585H42.2159Z" fill="#074F4D"/>
<path fill-rule="evenodd" clip-rule="evenodd" d="M80.1834 76.9777H76.4217C75.8087 76.9777 75.3071 76.4761 75.3071 75.8631V62.5605C75.3071 60.0639 77.3413 58.0353 79.8324 58.0353H80.1835C82.6801 58.0353 84.7087 60.0694 84.7087 62.5605V72.4525C84.7087 74.9491 82.6745 76.9777 80.1834 76.9777ZM77.5362 74.7485H80.1834C81.4485 74.7485 82.4851 73.7175 82.4851 72.4468V62.5549C82.4851 61.2898 81.4541 60.2532 80.1834 60.2532H79.8379C78.5728 60.2532 77.5362 61.2842 77.5362 62.5549L77.5362 74.7485Z" fill="#074F4D"/>
<path fill-rule="evenodd" clip-rule="evenodd" d="M80.3176 60.2658C79.7046 60.2658 79.203 59.7642 79.203 59.1512V46.8184C79.203 45.4864 78.0383 44.4498 76.5559 44.4498H45.8383C44.3558 44.4498 43.1911 45.4864 43.1911 46.8184V59.1512C43.1911 59.7642 42.6895 60.2658 42.0765 60.2658C41.4635 60.2658 40.9619 59.7642 40.9619 59.1512V46.8184C40.9619 45.5645 41.4746 44.3942 42.4164 43.5248C43.3304 42.6833 44.5397 42.2207 45.8381 42.2207H76.5614C77.8599 42.2207 79.0692 42.6888 79.9831 43.5248C80.925 44.3886 81.4376 45.5589 81.4376 46.8184V59.1512C81.4376 59.7642 80.9361 60.2658 80.323 60.2658H80.3176Z" fill="#074F4D"/>
<path fill-rule="evenodd" clip-rule="evenodd" d="M73.1456 81.5758C72.6942 81.5758 72.2595 81.2972 72.0979 80.8457L70.426 76.248C70.2142 75.6684 70.5151 75.0275 71.0947 74.8213C71.6743 74.6096 72.3152 74.9105 72.5214 75.4901L74.1933 80.0878C74.4051 80.6674 74.1041 81.3083 73.5246 81.5145C73.3964 81.5591 73.2682 81.5758 73.14 81.5758H73.1456ZM76.417 81.5758C75.8039 81.5758 75.3024 81.0742 75.3024 80.4612V75.8635C75.3024 75.2505 75.8039 74.7489 76.417 74.7489C77.03 74.7489 77.5316 75.2505 77.5316 75.8635V80.4612C77.5316 81.0742 77.03 81.5758 76.417 81.5758Z" fill="#074F4D"/>
<path fill-rule="evenodd" clip-rule="evenodd" d="M54.4091 53.0199C52.8375 53.0199 51.5558 51.7102 51.5558 50.0941C51.5558 48.5448 52.8654 47.2407 54.4091 47.2407C55.9583 47.2407 57.2625 48.5504 57.2625 50.0941C57.2625 51.7102 55.9807 53.0199 54.4091 53.0199ZM54.4091 49.4643C54.0525 49.4643 53.7794 49.7987 53.7794 50.0941C53.7794 50.473 54.0636 50.7907 54.4091 50.7907C54.7491 50.7907 55.0389 50.4675 55.0389 50.0941C55.0389 49.7987 54.7658 49.4643 54.4091 49.4643Z" fill="#074F4D"/>
<path fill-rule="evenodd" clip-rule="evenodd" d="M67.9896 53.0199C66.4124 53.0199 65.1362 51.7102 65.1362 50.0941C65.1362 48.5448 66.4459 47.2407 67.9896 47.2407C69.5388 47.2407 70.8429 48.5504 70.8429 50.0941C70.8429 51.7102 69.5611 53.0199 67.9896 53.0199ZM67.9896 49.4643C67.6329 49.4643 67.3598 49.7987 67.3598 50.0941C67.3598 50.473 67.644 50.7907 67.9896 50.7907C68.3295 50.7907 68.6193 50.4675 68.6193 50.0941C68.6193 49.7987 68.3462 49.4643 67.9896 49.4643Z" fill="#074F4D"/>
<path fill-rule="evenodd" clip-rule="evenodd" d="M54.4091 61.1674C52.8097 61.1674 51.5558 59.9135 51.5558 58.314C51.5558 56.7146 52.8097 55.4607 54.4091 55.4607C56.0086 55.4607 57.2625 56.7146 57.2625 58.314C57.2625 59.9135 56.0085 61.1674 54.4091 61.1674ZM54.4091 57.6843C54.0525 57.6843 53.7794 57.9574 53.7794 58.314C53.7794 58.6707 54.0525 58.9438 54.4091 58.9438C54.7658 58.9438 55.0389 58.6707 55.0389 58.314C55.0389 57.9574 54.7658 57.6843 54.4091 57.6843Z" fill="#074F4D"/>
<path fill-rule="evenodd" clip-rule="evenodd" d="M67.9896 61.1674C66.3901 61.1674 65.1362 59.9135 65.1362 58.314C65.1362 56.7146 66.3901 55.4607 67.9896 55.4607C69.589 55.4607 70.8429 56.7146 70.8429 58.314C70.8429 59.9135 69.589 61.1674 67.9896 61.1674ZM67.9896 57.6843C67.6329 57.6843 67.3598 57.9574 67.3598 58.314C67.3598 58.6707 67.6329 58.9438 67.9896 58.9438C68.3462 58.9438 68.6193 58.6707 68.6193 58.314C68.6193 57.9574 68.3462 57.6843 67.9896 57.6843Z" fill="#074F4D"/>
</svg>
