<svg width="114" height="91" viewBox="0 0 114 91" fill="none" xmlns="http://www.w3.org/2000/svg">
<path d="M101.82 45.3861V44.2021H103.939C106.004 44.2021 107.988 43.3858 109.448 41.9261C110.908 40.4665 111.724 38.4823 111.724 36.4171V7.78499C111.724 5.71978 110.908 3.74109 109.448 2.28138C107.988 0.821681 106.004 0 103.939 0H9.33995C5.03654 0 1.55496 3.48698 1.55496 7.78499V36.4171C1.55496 40.7205 5.03654 44.2021 9.33995 44.2021H11.4591V45.3861C11.4591 46.8296 12.0322 48.2082 13.0485 49.2299C14.0703 50.2462 15.4489 50.8192 16.8923 50.8192H96.3863C97.8298 50.8192 99.2084 50.2462 100.23 49.2299C101.246 48.2081 101.82 46.8295 101.82 45.3861ZM2.99404 36.4171V7.78495C3.00486 4.28717 5.83774 1.44887 9.34091 1.44347H103.94C107.443 1.44887 110.276 4.28717 110.287 7.78495V36.4171C110.276 39.9203 107.443 42.7532 103.94 42.764H9.34091C5.83774 42.7531 3.00484 39.9203 2.99404 36.4171ZM12.8982 45.3861V44.2021H100.382V45.3861C100.382 47.5919 98.5925 49.3813 96.3869 49.3813H16.8928C15.8332 49.3813 14.8168 48.9596 14.0707 48.2081C13.3193 47.462 12.8982 46.4458 12.8982 45.3861ZM102.166 34.7466H11.1142C10.7142 34.7466 10.3898 34.4222 10.3898 34.0276C10.3898 33.6275 10.7142 33.3031 11.1142 33.3031H102.166C102.361 33.3031 102.544 33.3788 102.68 33.514C102.815 33.6491 102.89 33.8329 102.89 34.0276C102.89 34.2168 102.815 34.4006 102.68 34.5357C102.544 34.6709 102.361 34.7466 102.166 34.7466ZM14.7043 16.6411C16.4505 16.6411 18.0291 15.5869 18.6995 13.9704C19.3699 12.3539 18.9968 10.4943 17.7588 9.25627C16.5262 8.01824 14.661 7.65056 13.05 8.321C11.4335 8.98596 10.3793 10.5646 10.3793 12.3162C10.3793 14.7004 12.3147 16.6411 14.7043 16.6411ZM14.7043 9.42926C15.8667 9.42926 16.9209 10.1321 17.3642 11.2134C17.8129 12.2892 17.5643 13.5273 16.7425 14.3544C15.9153 15.1761 14.6773 15.4248 13.6015 14.9761C12.5203 14.5328 11.8174 13.4786 11.8174 12.3162C11.8174 10.7214 13.1095 9.42926 14.7043 9.42926ZM73.5671 16.6411C75.3133 16.6411 76.8919 15.5869 77.5623 13.9704C78.2327 12.3539 77.8596 10.4943 76.6216 9.25627C75.389 8.01824 73.5238 7.65056 71.9128 8.321C70.2963 8.98596 69.2421 10.5646 69.2421 12.3162C69.2421 13.4623 69.6962 14.5598 70.5072 15.3707C71.3181 16.1816 72.4156 16.6411 73.5671 16.6411ZM73.5671 9.42926C74.7294 9.42926 75.7837 10.1321 76.227 11.2134C76.6757 12.2892 76.427 13.5273 75.6053 14.3544C74.7781 15.1761 73.5401 15.4248 72.4643 14.9761C71.3831 14.5328 70.6802 13.4786 70.6802 12.3162C70.6802 11.5485 70.9884 10.8187 71.529 10.278C72.0696 9.73734 72.7994 9.42926 73.5671 9.42926ZM87.6936 16.6411C89.4452 16.6411 91.0183 15.5869 91.6888 13.9704C92.3592 12.354 91.9861 10.4943 90.7535 9.25627C89.5154 8.01824 87.6557 7.65056 86.0393 8.321C84.4228 8.98596 83.3686 10.5646 83.3686 12.3162C83.3686 13.4623 83.8227 14.5598 84.6337 15.3707C85.4446 16.1816 86.5475 16.6411 87.6936 16.6411ZM87.6936 9.42926C88.8613 9.42926 89.9102 10.1321 90.3589 11.2134C90.8022 12.2892 90.5589 13.5273 89.7318 14.3544C88.91 15.1761 87.6666 15.4248 86.5908 14.9761C85.5149 14.5328 84.8121 13.4786 84.8121 12.3162C84.8121 11.5485 85.1148 10.8187 85.6554 10.278C86.1961 9.73734 86.9312 9.42926 87.6936 9.42926ZM99.4576 16.6411C101.209 16.6411 102.782 15.5869 103.453 13.9704C104.123 12.354 103.75 10.4943 102.517 9.25627C101.279 8.01824 99.4197 7.65056 97.8033 8.321C96.1868 8.98596 95.1326 10.5646 95.1326 12.3162C95.1326 13.4623 95.5867 14.5598 96.3976 15.3707C97.2086 16.1816 98.3115 16.6411 99.4576 16.6411ZM99.4576 9.42926C100.625 9.42926 101.674 10.1321 102.123 11.2134C102.566 12.2892 102.323 13.5273 101.496 14.3544C100.674 15.1761 99.4305 15.4248 98.3548 14.9761C97.2789 14.5328 96.576 13.4786 96.576 12.3162C96.576 11.5485 96.8788 10.8187 97.4194 10.278C97.96 9.73734 98.6952 9.42926 99.4576 9.42926ZM21.9371 84.9442C16.8174 88.9178 10.4975 91.0316 4.02124 90.9451C2.88053 90.9559 1.74526 90.8856 0.615365 90.7288C0.426145 90.7018 0.253145 90.5991 0.139616 90.4477C0.0260854 90.2909 -0.0225746 90.0963 0.00986634 89.9071C0.0423045 89.7178 0.145024 89.5503 0.296396 89.4367C0.453175 89.3232 0.647806 89.28 0.831615 89.3124C0.945145 89.3124 12.2064 90.9721 21.0131 83.8034C27.4844 78.5539 31.1066 69.9468 31.7552 58.2423V58.2477C31.7877 57.8531 32.1229 57.5503 32.5229 57.5666C32.7121 57.5774 32.8905 57.6639 33.0203 57.8098C33.1446 57.9504 33.2095 58.1396 33.1987 58.3342C32.55 70.4712 28.7598 79.4234 21.9371 84.9442ZM113.27 89.9071C113.302 90.0963 113.253 90.2909 113.14 90.4477C113.026 90.5991 112.853 90.7018 112.664 90.7288C111.534 90.8856 110.399 90.9559 109.258 90.9451C102.782 91.0316 96.4618 88.9178 91.3425 84.9442C84.5252 79.4244 80.73 70.5257 80.0543 58.3299V58.3353C80.0381 58.1407 80.103 57.9515 80.2327 57.8109C80.3625 57.6649 80.5409 57.5784 80.7301 57.5676C81.1248 57.5514 81.4654 57.8542 81.4924 58.2488C82.1412 69.9533 85.8174 78.5604 92.2346 83.8099C101.074 91.0163 112.33 89.3297 112.416 89.3189V89.3135C112.611 89.2756 112.811 89.3135 112.973 89.427C113.135 89.5351 113.243 89.7124 113.27 89.9071ZM48.3948 57.5673C48.5841 57.5673 48.7679 57.643 48.903 57.7782C49.0382 57.9133 49.1139 58.0971 49.1139 58.2918V85.9828C49.1139 86.1774 49.0382 86.3612 48.903 86.4964C48.7679 86.6315 48.5841 86.7072 48.3948 86.7072C47.9948 86.7072 47.6704 86.3828 47.6704 85.9828V58.2917C47.6704 57.8917 47.9948 57.5673 48.3948 57.5673ZM64.8839 57.5673C65.0785 57.5673 65.2623 57.643 65.3975 57.7782C65.5326 57.9133 65.6083 58.0971 65.6083 58.2918V85.9828C65.6083 86.1774 65.5326 86.3612 65.3975 86.4964C65.2623 86.6315 65.0785 86.7072 64.8839 86.7072C64.4892 86.7072 64.1649 86.3828 64.1649 85.9828V58.2917C64.1649 57.8917 64.4893 57.5673 64.8839 57.5673Z" fill="#074F4D"/>
</svg>
