<svg width="107" height="87" viewBox="0 0 107 87" fill="none" xmlns="http://www.w3.org/2000/svg">
<path d="M53.1979 85.8335C59.0634 85.8335 63.8185 81.0639 63.8185 75.1802C63.8185 69.2967 59.0634 64.5269 53.1979 64.5269C47.3321 64.5269 42.577 69.2967 42.577 75.1802C42.577 81.0639 47.3321 85.8335 53.1979 85.8335Z" stroke="#074F4D" stroke-linecap="round" stroke-linejoin="round"/>
<path d="M33.171 51.2716C35.8072 48.5567 38.9589 46.3991 42.44 44.9258C45.9211 43.4524 49.6611 42.6935 53.4394 42.6935C57.2178 42.6935 60.9578 43.4524 64.4389 44.9258C67.9197 46.3991 71.0714 48.5567 73.7079 51.2716" stroke="#074F4D" stroke-linecap="round" stroke-linejoin="round"/>
<path d="M15.579 37.5298C20.514 32.5509 26.3817 28.5997 32.8446 25.9032C39.3075 23.2071 46.2381 21.819 53.2377 21.819C60.2374 21.819 67.1679 23.2071 73.6308 25.9032C80.0935 28.5997 85.9617 32.5509 90.8967 37.5298" stroke="#074F4D" stroke-linecap="round" stroke-linejoin="round"/>
<path d="M0.5 22.4031C7.41908 15.4591 15.6344 9.95083 24.6765 6.19261C33.7187 2.4344 43.4104 0.5 53.198 0.5C62.9857 0.5 72.6774 2.4344 81.7196 6.19261C90.7618 9.95083 98.9772 15.4591 105.896 22.4031" stroke="#074F4D" stroke-linecap="round" stroke-linejoin="round"/>
</svg>
