<svg width="30" height="30" viewBox="0 0 30 30" fill="none" xmlns="http://www.w3.org/2000/svg">
<path d="M10.5022 24.188L5.60363 24.1831V18.3258C5.60363 17.0743 6.0891 16.423 7.16005 16.2742H10.5022C12.8857 16.2742 14.4274 17.7769 14.4274 20.2091C14.4274 22.7072 12.9247 24.1856 10.5022 24.188ZM5.60363 8.38959V6.8478C5.60363 5.49874 6.17447 4.85714 7.42596 4.77419H9.93381C12.083 4.77419 13.3711 6.05983 13.3711 8.21395C13.3711 9.85331 12.488 11.7684 10.0119 11.7684H5.60363V8.38959ZM16.7572 14.2347L15.8716 13.7371L16.645 13.0759C17.5452 12.3026 19.0528 10.5632 19.0528 7.56257C19.0528 2.96649 15.4886 0.00244973 9.97283 0.00244973H3.67882V0H2.96159C1.32711 0.0609949 0.0170741 1.39055 0 3.03481V29.1135H10.0972C16.2278 29.1135 20.1847 25.7762 20.1847 20.6068C20.1847 17.8233 18.9064 15.4447 16.7572 14.2347Z" fill="black"/>
<path d="M22.8145 25.511C22.8145 23.5188 24.4212 21.907 26.4008 21.907C28.3855 21.907 29.9998 23.5188 29.9998 25.511C29.9998 27.5006 28.3855 29.1149 26.4008 29.1149C24.4212 29.1149 22.8145 27.5006 22.8145 25.511Z" fill="black"/>
</svg>
