<svg width="87" height="59" viewBox="0 0 87 59" fill="none" xmlns="http://www.w3.org/2000/svg">
<path d="M85.42 0H1.5C0.67 0 0 0.67 0 1.5V50.31C0 51.14 0.67 51.81 1.5 51.81H15.32V55.49H13.98C13.15 55.49 12.48 56.16 12.48 56.99C12.48 57.82 13.15 58.49 13.98 58.49H19.66C20.49 58.49 21.16 57.82 21.16 56.99C21.16 56.16 20.49 55.49 19.66 55.49H18.32V51.81H68.6V55.49H67.26C66.43 55.49 65.76 56.16 65.76 56.99C65.76 57.82 66.43 58.49 67.26 58.49H72.94C73.77 58.49 74.44 57.82 74.44 56.99C74.44 56.16 73.77 55.49 72.94 55.49H71.6V51.81H85.42C86.25 51.81 86.92 51.14 86.92 50.31V1.5C86.92 0.67 86.25 0 85.42 0ZM83.92 48.81H3V3H83.92V48.81Z" fill="#074F4D"/>
</svg>
