<svg width="114" height="88" viewBox="0 0 114 88" fill="none" xmlns="http://www.w3.org/2000/svg">
<path d="M0.000218777 77.5895V79.8189C0.000218777 84.1684 3.51905 87.6872 7.8685 87.6872H62.2037C64.291 87.6872 66.2909 86.8621 67.7662 85.3869C69.2415 83.9115 70.072 81.9062 70.072 79.8189V77.5895C70.072 77.3983 69.9955 77.2125 69.8589 77.0759C69.7223 76.9393 69.5365 76.8628 69.3398 76.8628H54.3348C56.4221 75.3929 57.6679 73.0052 57.6679 70.4535V68.1913H111.949C111.178 78.3819 102.671 86.2555 92.452 86.2331H71.8196C71.4153 86.2331 71.0874 86.5555 71.0874 86.9598C71.0874 87.1511 71.1639 87.3368 71.3005 87.4735C71.4371 87.6101 71.6229 87.6865 71.8196 87.6865H92.452C97.8832 87.6975 103.112 85.5992 107.03 81.8345C110.948 78.0643 113.248 72.9226 113.445 67.4911C113.451 67.2944 113.374 67.1032 113.243 66.9557C113.106 66.8081 112.915 66.7316 112.718 66.7371H105.347C104.604 60.1201 98.4571 56.9618 96.9273 56.2897C95.4683 50.5907 89.1902 49.8039 85.6932 50.2301L85.6877 50.2246C85.0539 47.7385 83.1196 45.7932 80.6334 45.143C79.4477 44.8371 78.2073 44.8371 77.0217 45.143C74.5465 45.7823 72.6122 47.7222 71.9783 50.1973C68.4976 49.864 62.58 50.7055 61.0939 56.0276C59.7388 56.4647 58.5422 57.3007 57.668 58.4318V36.0342C57.668 35.8429 57.5915 35.6571 57.4549 35.5205C57.3183 35.3839 57.1325 35.3074 56.9412 35.3074H13.1139C12.7095 35.3074 12.3817 35.6298 12.3817 36.0342V47.6179H4.26749C2.25671 47.6179 0.622902 49.2463 0.622902 51.2625V66.9669C0.622902 67.9341 1.01085 68.863 1.69386 69.546C2.37686 70.229 3.30024 70.6115 4.26738 70.6115H12.3816C12.4417 73.1031 13.6711 75.4199 15.7037 76.8625H0.72672C0.322382 76.8625 0.000218777 77.1906 0.000218777 77.5895ZM103.873 66.7379H92.0867L96.6491 57.7603C98.354 58.6072 103.173 61.4322 103.873 66.7379ZM95.5509 56.7112L90.453 66.7379H83.5191L85.8632 53.1978C85.9452 52.717 85.978 52.2307 85.9507 51.7443C87.4369 51.5258 94.2888 51.1433 95.5565 56.7112H95.5509ZM77.3944 46.5097H77.3999C79.2577 46.0234 81.2303 46.5097 82.6454 47.8102C84.0606 49.1052 84.7218 51.034 84.3939 52.9245L82.0334 66.7377H75.6678L73.3073 52.9681C72.7937 50.0886 74.5749 47.3019 77.3999 46.5533L77.3944 46.5097ZM71.7391 51.5968H71.7445C71.7227 52.1158 71.7555 52.6404 71.832 53.154L74.2088 66.7377H67.4934L62.3955 56.7111C63.603 51.4219 69.8375 51.4928 71.7445 51.6404L71.7391 51.5968ZM61.1442 57.427L65.8488 66.6941H57.669V60.6016C59.7563 58.1537 60.7891 57.6018 61.095 57.4706L61.1442 57.427ZM12.3833 54.1321V64.3336H6.84821V53.8425H12.3833V54.1321ZM2.09437 66.9673L2.09984 51.2629C2.09984 50.0553 3.07791 49.0772 4.28547 49.0772H12.3888V52.383H6.1214C5.71706 52.383 5.38921 52.7109 5.38921 53.1097V65.1198C5.38921 65.311 5.46571 65.4968 5.60231 65.6334C5.7389 65.77 5.92469 65.8465 6.12139 65.8465H12.3887V69.1523H4.26909C3.06698 69.1468 2.09982 68.1687 2.09982 66.9666L2.09437 66.9673ZM13.8366 70.4479L13.8421 63.3719H47.3533C47.7576 63.3719 48.0855 63.0441 48.0855 62.6397C48.0855 62.2408 47.7576 61.913 47.3533 61.913H13.8421V54.8588H47.3533C47.55 54.8588 47.7358 54.7823 47.8724 54.6457C48.009 54.5091 48.0855 54.3233 48.0855 54.1321C48.0855 53.9408 48.009 53.7551 47.8724 53.6185C47.7358 53.4819 47.55 53.4054 47.3533 53.4054H13.8421V36.7624H56.2161V70.454C56.2161 73.9892 53.3529 76.8579 49.8177 76.8633H20.2959C18.5911 76.8688 16.9519 76.2022 15.7389 74.9947C14.5313 73.7926 13.8483 72.1589 13.8428 70.454L13.8366 70.4479ZM1.44952 78.3162L68.6146 78.3216V79.7806V79.7751C68.6091 83.3158 65.7404 86.179 62.2052 86.1899H7.87004C4.32938 86.179 1.46617 83.3158 1.45526 79.7751L1.44952 78.3162ZM16.5524 6.58963C16.5524 9.40361 18.8364 11.6876 21.6504 11.6876H51.4953C54.9049 11.6876 57.6697 14.4525 57.6697 17.8675C57.6697 21.2771 54.9049 24.042 51.4953 24.042H42.4905C38.7804 24.042 35.7751 27.0417 35.7587 30.7464C35.7587 30.9377 35.6822 31.1235 35.5456 31.2601C35.409 31.3967 35.2232 31.4732 35.0265 31.4732C34.6277 31.4677 34.3053 31.1453 34.2998 30.7464C34.2998 26.2221 37.9662 22.5557 42.4905 22.5557H51.4953C54.1017 22.5557 56.2163 20.4466 56.2163 17.8348C56.2163 15.2284 54.1017 13.1138 51.4953 13.1138H21.6504C18.0333 13.1138 15.0935 10.1795 15.0935 6.5569C15.0935 2.93973 18.0333 0 21.6504 0H39.7915C40.1904 0.0109289 40.5128 0.333307 40.5237 0.73219C40.5237 0.923435 40.4472 1.10921 40.3106 1.24582C40.174 1.38243 39.9882 1.45891 39.7915 1.45891H21.6504C20.2953 1.45891 18.9949 1.99986 18.0333 2.96151C17.0771 3.92319 16.547 5.22901 16.5524 6.58963Z" fill="#074F4D"/>
</svg>
