<svg width="85" height="85" viewBox="0 0 85 85" fill="none" xmlns="http://www.w3.org/2000/svg">
<path d="M68.7352 53.5385H77.0061C78.8342 53.5385 80.5881 52.8151 81.8846 51.5261C83.1809 50.2372 83.9146 48.4875 83.9251 46.6592C83.9346 45.3308 83.5656 44.0269 82.8615 42.9003C82.1573 41.7737 81.1471 40.8707 79.9487 40.297L42.173 23.1986L4.47659 40.297C3.27822 40.8707 2.26793 41.7737 1.56378 42.9003C0.859629 44.0269 0.490721 45.3308 0.500177 46.6592C0.510683 48.4875 1.24428 50.2372 2.54069 51.5261C3.83712 52.8151 5.59097 53.5385 7.41912 53.5385H15.6105" stroke="#074F4D" stroke-miterlimit="10"/>
<path d="M42.1723 23.1986V22.284C42.2439 20.6984 42.6879 19.1522 43.4686 17.7706C44.2492 16.3888 45.3446 15.2105 46.6657 14.3311C47.7421 13.5828 48.6065 12.5686 49.1748 11.3872C49.7431 10.2059 49.996 8.8975 49.9086 7.58944C49.8213 6.28138 49.397 5.01818 48.6768 3.92275C47.9567 2.8273 46.9653 1.93692 45.799 1.33824C44.6327 0.73955 43.3313 0.45294 42.0215 0.506293C40.7117 0.559647 39.4378 0.951149 38.324 1.64271C37.2104 2.33426 36.2946 3.30232 35.6659 4.4527C35.0372 5.60308 34.7171 6.89661 34.7364 8.20744" stroke="#074F4D" stroke-miterlimit="10"/>
<path d="M23.2052 46.1423H61.1799C63.1942 46.1423 65.126 46.9425 66.5503 48.3667C67.9747 49.7912 68.7749 51.723 68.7749 53.7372V83.9181H15.6104V53.5385C15.6622 51.5588 16.4852 49.6776 17.904 48.296C19.3226 46.9144 21.225 46.1416 23.2052 46.1423Z" stroke="#074F4D" stroke-miterlimit="10"/>
</svg>
