<svg width="89" height="88" viewBox="0 0 89 88" fill="none" xmlns="http://www.w3.org/2000/svg">
<path d="M85.0707 0H2.9297C1.3086 0 0 1.3203 0 2.9297V79.1997C0 80.8208 1.3203 82.1294 2.9297 82.1294H5.1602L6.6914 86.7388C6.95312 87.4888 7.7031 88.0005 8.5508 88.0005H12.9492C13.8008 88.0005 14.5508 87.4888 14.8203 86.7193L16.3515 82.1295H71.6525L73.1837 86.7389C73.4454 87.4889 74.1954 88.0006 75.0431 88.0006H79.4415C80.2931 88.0006 81.0431 87.4889 81.3126 86.7194L82.8438 82.1296H86.0626C87.1329 82.1296 88.0118 81.2585 88.0118 80.1804V2.9304C88.0118 1.3093 86.6915 0.000699997 85.0821 0.000699997L85.0707 0ZM12.9617 86.039L8.5515 86.0976L7.2312 82.1288H14.2898L12.9617 86.039ZM79.4497 86.039L75.0395 86.0976L73.7192 82.1288H80.7778L79.4497 86.039ZM82.1411 80.1679L2.9301 80.1718C2.39104 80.1718 1.94963 79.7304 1.94963 79.1913V2.92934C1.94963 2.39028 2.39104 1.94887 2.9301 1.94887H85.0711C85.6102 1.94887 86.0516 2.39028 86.0516 2.92934V80.1793H82.1414L82.1411 80.1679Z" fill="#074F4D"/>
<path d="M80.1807 32.191V9.78097C80.1807 8.70287 79.3018 7.82007 78.2198 7.82007H9.78182C8.70372 7.82007 7.82092 8.69898 7.82092 9.78097V72.359C7.82092 73.4371 8.69983 74.3199 9.78182 74.3199H78.2198C79.2979 74.3199 80.1807 73.441 80.1807 72.359V48C81.3409 47.4101 82.1416 46.2109 82.1416 44.8281V35.3672C82.1416 33.9766 81.3408 32.7891 80.1807 32.1953V32.191ZM9.78272 72.359V9.78097H78.2207V31.812C76.041 31.9838 74.3105 33.7925 74.3105 36.0229V44.1635C74.3105 46.394 76.041 48.2026 78.2207 48.3744V72.3624H9.77172L9.78272 72.359ZM80.1807 44.82C80.1807 45.7184 79.4503 46.4489 78.5518 46.4489C77.2901 46.4489 76.2627 45.4177 76.2627 44.1598V36.0192C76.2627 34.7575 77.2939 33.7301 78.5518 33.7301C79.4503 33.7301 80.1807 34.4605 80.1807 35.359V44.82Z" fill="#074F4D"/>
<path d="M16.1298 27.379C14.2392 27.379 12.7079 28.9181 12.7079 30.8009V49.3789C12.7079 51.2695 14.247 52.8008 16.1298 52.8008C18.0087 52.8008 19.5517 51.2617 19.5517 49.3789V30.8009C19.5517 28.9103 18.0126 27.379 16.1298 27.379ZM17.5986 49.379C17.5986 50.1876 16.9384 50.8478 16.1298 50.8478C15.3211 50.8478 14.661 50.1877 14.661 49.379V30.801C14.661 29.9924 15.3211 29.3322 16.1298 29.3322C16.9384 29.3322 17.5986 29.9924 17.5986 30.801V49.379Z" fill="#074F4D"/>
<path d="M56.1487 36.3399V31.8008C56.1487 25.7696 51.0706 20.8208 44.5787 20.5388C41.0279 20.3982 37.5904 21.6404 35.149 23.9802C33.0201 26.031 31.8404 28.699 31.8404 31.5193V36.3396C30.3912 36.781 29.3287 38.1091 29.3287 39.699V58.07C29.3287 60.0114 30.9068 61.6012 32.8599 61.6012H55.1409C57.0823 61.6012 58.6721 60.0231 58.6721 58.07V39.699C58.6721 38.1092 57.6135 36.7771 56.1604 36.3396L56.1487 36.3399ZM33.7967 31.5196C33.7967 29.2384 34.7577 27.0704 36.5076 25.3985C38.5584 23.4297 41.4685 22.379 44.4959 22.5001C49.9373 22.7306 54.1873 26.8204 54.1873 31.8009V36.172H50.9568V31.8712C50.9568 30.1603 50.2186 28.5509 48.8787 27.3517C47.5584 26.172 45.8084 25.5314 43.9803 25.5314C43.6913 25.5314 43.4022 25.551 43.1014 25.5822C39.6405 25.9807 37.0311 28.7619 37.0311 32.0627V36.1838H33.8006V31.5236L33.7967 31.5196ZM48.9957 31.879V36.1798H38.9837V32.0587C38.9837 29.7579 40.8431 27.8087 43.3118 27.5275C44.9016 27.3556 46.4524 27.8166 47.5618 28.8166C48.4837 29.6369 48.9915 30.7268 48.9915 31.8752L48.9957 31.879ZM56.6949 58.078C56.6949 58.9491 55.9957 59.6483 55.1246 59.6483H32.8436C31.9725 59.6483 31.2733 58.9491 31.2733 58.078V39.707C31.2733 38.8359 31.9726 38.1367 32.8436 38.1367H55.1246C55.9957 38.1367 56.6949 38.8359 56.6949 39.707V58.078Z" fill="#074F4D"/>
<path d="M46.9308 44H41.0597C39.9816 44 39.0988 44.8789 39.0988 45.9609V51.832C39.0988 52.9101 39.9777 53.7929 41.0597 53.7929H46.9308C48.0089 53.7929 48.8917 52.914 48.8917 51.832V45.9609C48.8917 44.8828 48.0127 44 46.9308 44ZM41.0597 51.8203V45.9492H46.9308V51.8203H41.0597Z" fill="#074F4D"/>
</svg>
