<svg width="58" height="58" viewBox="0 0 58 58" fill="none" xmlns="http://www.w3.org/2000/svg">
<path d="M29.0001 0C21.1241 0 20.1365 0.0334123 17.0433 0.174487C13.9566 0.315302 11.8485 0.805608 10.0038 1.52238C8.09683 2.26349 6.47957 3.25515 4.86741 4.86732C3.25515 6.47949 2.26349 8.09692 1.52246 10.0039C0.805522 11.8485 0.315388 13.9566 0.1744 17.0433C0.033326 20.1365 0 21.1241 0 29.0001C0 36.8759 0.033326 37.8635 0.1744 40.9567C0.315388 44.0434 0.805522 46.1515 1.52246 47.9961C2.26358 49.9031 3.25524 51.5203 4.86741 53.1327C6.47966 54.7448 8.09683 55.7365 10.0038 56.4776C11.8485 57.1944 13.9566 57.6846 17.0433 57.8255C20.1365 57.9666 21.1241 58 29.0001 58C36.8759 58 37.8635 57.9666 40.9567 57.8255C44.0434 57.6847 46.1515 57.1944 47.9961 56.4776C49.9031 55.7365 51.5203 54.7448 53.1327 53.1327C54.7448 51.5203 55.7365 49.9031 56.4776 47.9961C57.1944 46.1515 57.6847 44.0434 57.8255 40.9567C57.9666 37.8635 58 36.8759 58 29.0001C58 21.1241 57.9666 20.1365 57.8255 17.0433C57.6847 13.9566 57.1944 11.8485 56.4776 10.0039C55.7365 8.09692 54.7448 6.47949 53.1327 4.86732C51.5203 3.25515 49.9031 2.26349 47.9961 1.52238C46.1515 0.805608 44.0434 0.315302 40.9567 0.174487C37.8635 0.0334123 36.8759 0 29.0001 0ZM29.0001 5.22519C36.7433 5.22519 37.6605 5.2548 40.7185 5.39432C43.546 5.52322 45.0815 5.99566 46.1033 6.3928C47.4571 6.91894 48.4231 7.5473 49.4378 8.5621C50.4527 9.5769 51.0811 10.543 51.6072 11.8966C52.0043 12.9185 52.4768 14.4541 52.6057 17.2815C52.7452 20.3395 52.7748 21.2567 52.7748 29C52.7748 36.7433 52.7452 37.6605 52.6057 40.7185C52.4768 43.546 52.0043 45.0815 51.6072 46.1033C51.0811 47.4571 50.4527 48.4231 49.4378 49.4378C48.4231 50.4527 47.457 51.0811 46.1034 51.6072C45.0815 52.0043 43.5459 52.4768 40.7185 52.6057C37.661 52.7452 36.7439 52.7748 29 52.7748C21.2561 52.7748 20.3391 52.7452 17.2815 52.6056C14.454 52.4768 12.9185 52.0043 11.8967 51.6072C10.5429 51.0811 9.5769 50.4527 8.56219 49.4378C7.54739 48.4231 6.91894 47.457 6.3928 46.1034C5.99566 45.0815 5.52331 43.5459 5.39432 40.7185C5.2548 37.6605 5.22519 36.7433 5.22519 29C5.22519 21.2567 5.2548 20.3395 5.39432 17.2815C5.52331 14.454 5.99566 12.9185 6.3928 11.8967C6.91894 10.5429 7.54739 9.5769 8.5621 8.56219C9.5769 7.5473 10.543 6.91894 11.8966 6.3928C12.9185 5.99566 14.4541 5.52322 17.2815 5.39432C20.3395 5.2548 21.2568 5.22519 29.0001 5.22519Z" fill="#DDE1CE"/>
<path d="M29.0004 38.6667C23.6615 38.6667 19.3336 34.3388 19.3336 29.0001C19.3336 23.6612 23.6615 19.3333 29.0004 19.3333C34.3391 19.3333 38.667 23.6612 38.667 29.0001C38.667 34.3388 34.3391 38.6667 29.0004 38.6667ZM29.0004 14.1081C20.7757 14.1081 14.1084 20.7754 14.1084 29.0001C14.1084 37.2246 20.7757 43.8919 29.0004 43.8919C37.2249 43.8919 43.8922 37.2246 43.8922 29.0001C43.8922 20.7754 37.2249 14.1081 29.0004 14.1081ZM47.9606 13.5197C47.9606 15.4418 46.4025 16.9997 44.4805 16.9997C42.5587 16.9997 41.0006 15.4418 41.0006 13.5197C41.0006 11.5978 42.5587 10.0397 44.4805 10.0397C46.4025 10.0397 47.9606 11.5978 47.9606 13.5197Z" fill="#DDE1CE"/>
</svg>
