<?xml version="1.0" encoding="UTF-8" standalone="no"?>
<!DOCTYPE svg PUBLIC "-//W3C//DTD SVG 1.1//EN" "http://www.w3.org/Graphics/SVG/1.1/DTD/svg11.dtd">
<svg width="100%" height="100%" viewBox="0 0 64 75" version="1.1" xmlns="http://www.w3.org/2000/svg" xmlns:xlink="http://www.w3.org/1999/xlink" xml:space="preserve" xmlns:serif="http://www.serif.com/" style="fill-rule:evenodd;clip-rule:evenodd;stroke-linejoin:round;stroke-miterlimit:2;">
    <g transform="matrix(1,0,0,1,-13.355992,-0.144551)">
        <g transform="matrix(0.873799,0,0,0.719756,-5.467087,0)">
            <g transform="matrix(1.767258,0,0,2.14549,15.886432,0.415382)">
                <path d="M41.3,15.1L24.8,12.3L24.8,10C27.1,9.5 28.9,7.5 28.9,5C28.9,2.2 26.6,-0.1 23.8,-0.1C21,-0.1 18.7,2.2 18.7,5C18.7,5.6 19.1,6 19.7,6C20.3,6 20.7,5.6 20.7,5C20.7,3.3 22.1,1.9 23.8,1.9C25.5,1.9 26.9,3.3 26.9,5C26.9,6.7 25.5,8.1 23.8,8.1C23.2,8.1 22.8,8.5 22.8,9.1L22.8,12.3L6.6,15.1C4.7,15.4 3.2,17.1 3.2,19.1C3.2,21.3 5,23.1 7.2,23.1L9.7,23.1L9.7,46.9C9.6,47.9 10.9,48.4 11.5,47.6C12.9,46.1 15.2,46.2 16.6,47.6C17,48 17.7,48 18.1,47.6C19.4,46.1 21.7,46.1 23.1,47.5C23.3,47.8 24.1,48.3 24.8,47.4C26.2,46.1 28.4,46.1 29.8,47.6C30.2,48 30.9,48 31.3,47.6C32.7,46.1 35,46.1 36.4,47.6C36.8,48 38,48.2 38.1,46.9L38.1,23.1L40.6,23.1C42.8,23.1 44.6,21.3 44.6,19.1C44.7,17.1 43.3,15.4 41.3,15.1ZM36.2,33.2L11.8,33.2L11.8,19.7L36.1,19.7L36.1,33.2L36.2,33.2ZM11.8,35.2L36.1,35.2L36.1,37.3L11.8,37.3L11.8,35.2ZM30.6,45.6C28.7,44.1 25.9,44.1 24,45.6C22.1,44.1 19.3,44.1 17.4,45.6C15.7,44.3 13.6,44.1 11.8,45L11.8,39.2L36.1,39.2L36.1,45C34.4,44.2 32.2,44.4 30.6,45.6ZM40.7,21.1L38.2,21.1L38.2,18.7C38.2,18.1 37.8,17.7 37.2,17.7L10.8,17.7C10.2,17.7 9.8,18.1 9.8,18.7L9.8,21.1L7.3,21.1C6.2,21.1 5.3,20.2 5.3,19.1C5.3,18.1 6,17.3 7,17.1L23.8,14.2L41,17C42,17.2 42.7,18 42.7,19C42.7,20.2 41.8,21.1 40.7,21.1Z" style="fill:rgb(7,79,77);fill-rule:nonzero;"/>
            </g>
        </g>
    </g>
</svg>
