<svg width="62" height="58" viewBox="0 0 62 58" fill="none" xmlns="http://www.w3.org/2000/svg">
<path d="M0.066258 57.9995H12.4439V16.5817H0.066258V57.9995ZM48.2877 15.1471C42.2806 15.1471 36.9057 17.3494 33.0927 22.2105V16.4455H20.6697V58H33.0927V35.5284C33.0927 30.7793 37.4266 26.1464 42.8551 26.1464C48.2836 26.1464 49.6223 30.7793 49.6223 35.4122V57.9959H62V34.4874C61.9995 18.1581 54.2988 15.1471 48.2877 15.1471ZM6.19723 12.4427C9.61805 12.4427 12.3945 9.65535 12.3945 6.2211C12.3945 2.78685 9.61805 0 6.19723 0C2.77641 0 0 2.78731 0 6.22156C0 9.65581 2.77641 12.4427 6.19723 12.4427Z" fill="#DDE1CE"/>
</svg>
