<svg id="Capa_1" data-name="Capa 1" xmlns="http://www.w3.org/2000/svg" viewBox="0 0 413.82 405.19"><defs><style>.cls-1{fill:#fe4500;}.cls-2{fill:#fff;}</style></defs><rect class="cls-1" x="195.63" y="7.58" width="36.58" height="36.58" transform="translate(44.37 158.84) rotate(-45)"/><polygon class="cls-1" points="198.25 51.73 172.39 25.86 156.72 25.86 182.58 51.73 198.25 51.73"/><polygon class="cls-1" points="166.92 51.73 115.19 0 99.53 0 151.25 51.73 166.92 51.73"/><polygon class="cls-1" points="245.24 51.73 271.11 25.86 255.44 25.86 229.58 51.73 245.24 51.73"/><polygon class="cls-1" points="276.57 51.73 328.3 0 312.63 0 260.91 51.73 276.57 51.73"/><rect class="cls-2" y="370.7" width="6.01" height="34.48"/><polygon class="cls-2" points="41.84 395.45 21.21 370.7 17.84 370.7 17.84 405.19 21.77 405.19 21.77 380.54 42.4 405.19 45.72 405.19 45.72 370.7 41.84 370.7 41.84 395.45"/><path class="cls-2" d="M52.69,374.63l.49-.05c3.17-.32,3.79-.37,3.91-.38.62,0,1.84-.05,3.63-.05h2.5v31h6v-31h2.5c1.79,0,3,0,3.71.05a9.12,9.12,0,0,1,1,.06c.38,0,.85.09,1.43.16s1.08.13,1.49.16l.48.05V370.7H52.69Z"/><path class="cls-2" d="M97.57,401.69H93.16V389.42h1.52c3.51,0,6.84.1,9.9.28l.47,0v-3.94l-.47,0c-3.06.18-6.39.27-9.9.27H93.16V374.15H97.3c3.42,0,6.76.15,9.94.43l.49.05V370.7H87.26v34.49H108v-4l-.49,0C104.36,401.54,101,401.69,97.57,401.69Z"/><path class="cls-2" d="M138,386.49a9.59,9.59,0,0,0-1.73-13.7c-2.53-1.67-6.12-2.52-10.66-2.52a47.86,47.86,0,0,0-7.6.49l-.37.07v34.36h5.95V390.91c1.69.07,2.63.09,2.84.09H127l8.46,14.19h7.22L133,389.93A12,12,0,0,0,138,386.49Zm-6.21-.55c-1.36,1.33-3.57,2-6.57,2-.56,0-1.11,0-1.63-.07V373.39c.71-.07,1.57-.11,2.56-.11,2.7,0,4.69.61,5.91,1.83a7.42,7.42,0,0,1,1.83,5.42,7.09,7.09,0,0,1-2.1,5.4Z"/><polygon class="cls-2" points="175.39 395.45 154.76 370.7 151.39 370.7 151.39 405.19 155.32 405.19 155.32 380.54 175.95 405.19 179.27 405.19 179.27 370.7 175.39 370.7 175.39 395.45"/><path class="cls-2" d="M201.22,370.7l-13.94,34.49h4.89l3.6-10h12l3.49,10h6.57L204.88,370.7ZM197,391.92l4.93-13.72,4.73,13.72Z"/><path class="cls-2" d="M248.92,399.76a12.74,12.74,0,0,1-8,2.53c-3.78,0-6.57-1.32-8.54-4s-3-6.2-3-10.48a18.25,18.25,0,0,1,1.44-7.3,11.71,11.71,0,0,1,4-5.1,11,11,0,0,1,6.45-1.89,12.51,12.51,0,0,1,7.28,2.16l.39.28,2-3.41-.37-.23a18.05,18.05,0,0,0-9.39-2.35,19.06,19.06,0,0,0-9.27,2.23,16.78,16.78,0,0,0-6.61,6.5,19,19,0,0,0-2.4,9.66,19.76,19.76,0,0,0,2.12,9.42,14.47,14.47,0,0,0,6.07,6.08,19.48,19.48,0,0,0,9.27,2.12,18.59,18.59,0,0,0,5.52-.83,14.15,14.15,0,0,0,4.89-2.48l.32-.24-1.83-2.94Z"/><rect class="cls-2" x="259" y="370.7" width="6.01" height="34.48"/><path class="cls-2" d="M302.28,372.06a19.66,19.66,0,0,0-9.37-2.12,17.09,17.09,0,0,0-8.73,2.35,17.34,17.34,0,0,0-6.49,6.54,18.41,18.41,0,0,0-2.41,9.39,19.94,19.94,0,0,0,2.07,9.37,14.38,14.38,0,0,0,6,6.18,19.1,19.1,0,0,0,9.32,2.18,17.7,17.7,0,0,0,8.84-2.35,18.15,18.15,0,0,0,8.84-15.93,20.29,20.29,0,0,0-2.07-9.42A14.91,14.91,0,0,0,302.28,372.06Zm.37,23a13.59,13.59,0,0,1-4,5.45h0a9.32,9.32,0,0,1-6.05,2.08,9.07,9.07,0,0,1-6.05-2,11.75,11.75,0,0,1-3.73-5.31,21.65,21.65,0,0,1-1.23-7.38,18.37,18.37,0,0,1,1.44-7.2,12.75,12.75,0,0,1,4-5.38,9.36,9.36,0,0,1,6-2,9.7,9.7,0,0,1,6.1,2,12.16,12.16,0,0,1,3.68,5.37A21.65,21.65,0,0,1,304,388,18.87,18.87,0,0,1,302.65,395.08Z"/><polygon class="cls-2" points="343.6 395.45 322.98 370.7 319.6 370.7 319.6 405.19 323.54 405.19 323.54 380.54 344.16 405.19 347.48 405.19 347.48 370.7 343.6 370.7 343.6 395.45"/><path class="cls-2" d="M369.66,370.7l-13.94,34.49h4.9l3.6-10h12l3.49,10h6.57L373.32,370.7Zm-4.25,21.22,4.92-13.72,4.74,13.72Z"/><path class="cls-2" d="M413.35,401.09c-3.84.29-7.33.43-10.39.43h-2.18V370.7h-6v34.49h19.05v-4.14Z"/><polygon class="cls-2" points="163.2 112.07 163.2 77.59 157.17 77.59 157.17 92.47 139.98 92.47 139.98 77.59 133.95 77.59 133.95 112.07 139.98 112.07 139.98 95.94 157.17 95.94 157.17 112.07 163.2 112.07"/><path class="cls-2" d="M200.08,79a19.67,19.67,0,0,0-9.37-2.13A17.12,17.12,0,0,0,182,79.18a17.39,17.39,0,0,0-6.48,6.54,18.35,18.35,0,0,0-2.41,9.38,19.88,19.88,0,0,0,2.07,9.37,14.32,14.32,0,0,0,6,6.18,19.07,19.07,0,0,0,9.31,2.19,17.67,17.67,0,0,0,8.85-2.36,18.08,18.08,0,0,0,8.83-15.92,20.18,20.18,0,0,0-2.07-9.43A14.77,14.77,0,0,0,200.08,79Zm.35,23a13.58,13.58,0,0,1-4,5.44h0a9.28,9.28,0,0,1-6,2.08,9.07,9.07,0,0,1-6-2,11.75,11.75,0,0,1-3.72-5.3,21.63,21.63,0,0,1-1.23-7.37,18.28,18.28,0,0,1,1.44-7.19,12.81,12.81,0,0,1,4-5.38,9.41,9.41,0,0,1,6-2,9.7,9.7,0,0,1,6.09,2,12.21,12.21,0,0,1,3.68,5.37,21.79,21.79,0,0,1,1.23,7.37A18.67,18.67,0,0,1,200.43,102Z"/><path class="cls-2" d="M228.67,112.07v-31h2.49c1.75,0,3,0,3.71,0,.27,0,.6,0,1,0s.86.09,1.43.17l1.49.16.49.05v-4H212.17v4l.5-.05c.91-.09,3.66-.38,3.91-.38.61,0,1.87,0,3.62,0h2.49v31Z"/><path class="cls-2" d="M256.51,81.06c3.43,0,6.77.14,9.93.43l.49.05v-4H246.46v34.48h20.75v-4l-.5.05c-3.16.28-6.5.43-9.93.43h-4.4V96.32h1.51c3.5,0,6.83.09,9.89.27l.48,0v-4l-.48,0c-3.06.18-6.39.27-9.89.27h-1.51V81.06Z"/><path class="cls-2" d="M276.6,77.59v34.48h19.06v-4.15l-.49,0c-3.81.29-7.3.44-10.38.44h-2.16V77.59Z"/><path class="cls-2" d="M356.26,344.84c.58,0,57.55-3.72,57.55-53.59,0-40.58-31.44-52.4-44.81-55.53,24.15-11.85,30.95-33.95,30.43-51-1.36-44.86-55.08-46.76-55.64-46.77h-77v206.9h89.49ZM299.94,148.47h36a36.56,36.56,0,0,1,26,10.65c13.85,14,12.92,34.73,12.92,35-.4,10.7-2.8,25.23-12,33.72-5,4.63-11.62,5.6-19.58,5.61H330.3V244h12.89c16.85,1.83,42.51,5.11,42.51,46.48,0,45.25-40.83,43.86-45.48,43.88H299.94Z"/><path class="cls-2" d="M203.79,231.71l41.91-93.77h-7.48l-24.85,55.55-24.84-55.55H160.22l39.34,86.44-2,4.43a12.85,12.85,0,0,1-4.48,5.21,19.47,19.47,0,0,1-7.34,3.13,20.6,20.6,0,0,1-9.44-.56,30.58,30.58,0,0,1-10.54-5.32l-2.79-2.1,9.49,25.74c.71,0,1.42.08,2.11.08a27.86,27.86,0,0,0,12.19-2.67C193.31,249.19,199,242.26,203.79,231.71Z"/><path class="cls-2" d="M72,137.94,0,344.84H11.25c3.42-11.27,29-86.65,103.82-91.57l34.19,91.57h33.28l-77.27-206.9ZM30.82,288.34,77.77,153.39l33.68,90.19C74,247,48.06,267.05,30.82,288.34Z"/></svg>