<svg width="86" height="58" viewBox="0 0 86 58" fill="none" xmlns="http://www.w3.org/2000/svg">
<path d="M9 0C4.0659 0 0 4.066 0 9V49C0 53.934 4.0659 58 9 58H77C81.9341 58 86 53.934 86 49V9C86 4.066 81.9341 0 77 0H9ZM9.75 6H76.25L44.9688 33.25C43.755 34.306 42.3105 34.307 41.0938 33.25L9.75 6ZM6 10.6875L27.2188 29.125L6 48.9375V10.6875ZM80 10.7185V48.9685L58.8438 29.1247L80 10.7185ZM54.2812 33.0622L74.4375 51.9998H11.5312L31.7812 33.0935L37.1562 37.7497C40.5011 40.6553 45.5615 40.66 48.9062 37.7497L54.2812 33.0622Z" fill="#DDE1CE"/>
</svg>
