<svg width="56" height="58" viewBox="0 0 56 58" fill="none" xmlns="http://www.w3.org/2000/svg">
<path d="M54.1177 43.1102L43.4013 36.4565C41.7576 35.4195 39.6263 35.7247 38.2871 37.1884C37.2524 38.2875 36.2771 39.4461 35.2423 40.5452C34.0244 41.8874 31.955 42.1925 30.4326 41.2175C27.8755 39.6297 24.8307 37.372 21.8451 34.2611C18.7385 31.026 16.6072 27.7906 15.0845 25.1064C14.2924 23.6426 14.5969 21.8117 15.8148 20.6506L19.5304 17.2939C20.8696 16.0732 21.1741 14.1207 20.382 12.5329L14.8395 2.21983C13.6835 0.0837248 11.0645 -0.648165 8.99259 0.632032H8.93074C1.50457 5.20939 -2.63692 11.2503 1.87055 22.6656C4.42766 29.1362 8.8735 36.5192 15.6932 43.4163C22.2083 50.0083 27.2633 53.2436 33.1104 55.9278C41.6979 59.8948 48.2131 57.8207 52.3545 52.6331C53.268 51.4124 54.2433 50.2538 55.1567 49.0332C56.6148 47.1379 56.1272 44.3914 54.1172 43.1112L54.1177 43.1102Z" fill="#DDE1CE"/>
</svg>
