<?xml version="1.0" encoding="UTF-8" standalone="no"?>
<!DOCTYPE svg PUBLIC "-//W3C//DTD SVG 1.1//EN" "http://www.w3.org/Graphics/SVG/1.1/DTD/svg11.dtd">
<svg width="100%" height="100%" viewBox="0 0 75 75" version="1.1" xmlns="http://www.w3.org/2000/svg" xmlns:xlink="http://www.w3.org/1999/xlink" xml:space="preserve" xmlns:serif="http://www.serif.com/" style="fill-rule:evenodd;clip-rule:evenodd;stroke-linejoin:round;stroke-miterlimit:2;">
    <g transform="matrix(1,0,0,1,-8.176119,0)">
        <g transform="matrix(0.873799,0,0,0.719756,-5.467087,0)">
            <g transform="matrix(1,0,0,1,9.260191,0)">
                <g transform="matrix(1.777709,0,0,2.158178,6.203128,0)">
                    <path d="M17,34.8L5.8,34.8C5.2,34.8 4.8,34.5 4.7,34.1L2.1,20.2C2,19.7 1.5,19.3 0.9,19.4C0.4,19.5 0,20 0.1,20.5L2.7,34.4C3,35.8 4.3,36.8 5.8,36.8L10,36.8L10,46L6.1,46C5.5,46 5.1,46.4 5.1,47C5.1,47.6 5.5,48 6.1,48L15.9,48C16.5,48 16.9,47.6 16.9,47C16.9,46.4 16.5,46 15.9,46L12,46L12,36.8L17,36.8C17.6,36.8 18,36.4 18,35.8C18,35.2 17.6,34.8 17,34.8Z" style="fill:rgb(7,79,77);fill-rule:nonzero;"/>
                </g>
                <g transform="matrix(1.777709,0,0,2.158178,6.203128,0)">
                    <path d="M47.1,19.4C46.6,19.3 46,19.7 45.9,20.2L43.3,34C43.2,34.4 42.7,34.7 42.2,34.7L31,34.7C30.4,34.7 30,35.1 30,35.7C30,36.3 30.4,36.7 31,36.7L36,36.7L36,46L32.1,46C31.5,46 31.1,46.4 31.1,47C31.1,47.6 31.5,48 32.1,48L41.9,48C42.5,48 42.9,47.6 42.9,47C42.9,46.4 42.5,46 41.9,46L38,46L38,36.8L42.2,36.8C43.7,36.8 45,35.8 45.3,34.4L47.9,20.5C48,20 47.6,19.5 47.1,19.4Z" style="fill:rgb(7,79,77);fill-rule:nonzero;"/>
                </g>
                <g transform="matrix(1.777709,0,0,2.158178,6.203128,0)">
                    <path d="M38.5,29.3C39.1,29.3 39.5,28.9 39.5,28.3C39.5,27.7 39.1,27.3 38.5,27.3L32.1,27.3L32.1,25C34.3,24.5 35.9,22.6 35.9,20.3C35.9,19.7 35.5,19.3 34.9,19.3L27.3,19.3C26.7,19.3 26.3,19.8 26.3,20.3C26.3,22.6 27.9,24.5 30.1,25L30.1,27.2L25,27.2L25,11.2L35.4,11.2C36,11.2 36.5,10.6 36.4,10C35.1,4.2 29.9,0 24,0C18.1,0 12.9,4.2 11.6,10C11.5,10.6 11.9,11.2 12.6,11.2L23,11.2L23,27.3L17.9,27.3L17.9,25C20.1,24.5 21.7,22.6 21.7,20.3C21.7,19.7 21.3,19.3 20.7,19.3L13.1,19.3C12.5,19.3 12.1,19.8 12.1,20.3C12.1,22.6 13.7,24.5 15.9,25L15.9,27.2L9.5,27.2C8.9,27.2 8.5,27.6 8.5,28.2C8.5,28.8 8.9,29.2 9.5,29.2L19.1,29.2L21.3,46.8C21.4,47.3 21.8,47.7 22.3,47.7L25.8,47.7C26.3,47.7 26.7,47.3 26.8,46.8L29,29.2L38.5,29.2L38.5,29.3ZM28.5,21.3L33.7,21.3C33.3,22.4 32.3,23.1 31.1,23.1C29.9,23.2 28.9,22.4 28.5,21.3ZM24,2C28.6,2 32.6,5 34.1,9.2L13.9,9.2C15.4,5 19.4,2 24,2ZM14.3,21.3L19.5,21.3C19.1,22.4 18.1,23.1 16.9,23.1C15.7,23.2 14.7,22.4 14.3,21.3ZM24.9,45.7L23.2,45.7L21.1,29.3L26.9,29.3L24.9,45.7Z" style="fill:rgb(7,79,77);fill-rule:nonzero;"/>
                </g>
            </g>
        </g>
    </g>
</svg>
