<?xml version="1.0" encoding="UTF-8" standalone="no"?>
<!DOCTYPE svg PUBLIC "-//W3C//DTD SVG 1.1//EN" "http://www.w3.org/Graphics/SVG/1.1/DTD/svg11.dtd">
<svg width="100%" height="100%" viewBox="0 0 91 75" version="1.1" xmlns="http://www.w3.org/2000/svg" xmlns:xlink="http://www.w3.org/1999/xlink" xml:space="preserve" xmlns:serif="http://www.serif.com/" style="fill-rule:evenodd;clip-rule:evenodd;stroke-linejoin:round;stroke-miterlimit:2;">
    <g id="Mesa-de-trabajo1" serif:id="Mesa de trabajo1" transform="matrix(0.873799,0,0,0.719756,-5.467087,0)">
        <g transform="matrix(1,0,0,1,7.829832,-0.570149)">
            <g transform="matrix(0.877112,0,0,1.064833,6.441305,-0.878047)">
                <path d="M46.293,63.113C54.43,61.242 59.555,53.148 57.664,45.008C57.508,44.344 57.008,43.813 56.352,43.621C55.695,43.43 54.988,43.613 54.5,44.094C53.109,45.469 49.234,48.821 43.297,50.246C36.961,51.766 32.133,50.129 30.547,49.59C29.898,49.371 29.184,49.52 28.676,49.977C28.168,50.438 27.949,51.133 28.102,51.801C30,60.016 38.286,64.965 46.293,63.113ZM33.094,54.164C36.797,54.879 40.508,54.797 44.176,53.918C48.532,52.871 51.938,50.922 54.254,49.226C53.906,54.168 50.383,58.304 45.445,59.437C40.899,60.488 35.762,58.66 33.093,54.164L33.094,54.164Z" style="fill:rgb(7,79,77);fill-rule:nonzero;"/>
            </g>
            <g transform="matrix(0.877112,0,0,1.064833,6.441305,-0.878047)">
                <path d="M29.738,33.727C30.496,33.012 30.531,31.817 29.816,31.059C27.468,28.571 23.965,27.512 20.676,28.297C15.34,29.567 13.711,34.727 13.695,34.778C13.39,35.774 13.953,36.829 14.953,37.133C15.941,37.434 16.988,36.883 17.301,35.899C17.343,35.778 18.445,32.711 21.551,31.969C23.562,31.489 25.625,32.118 27.074,33.653C27.785,34.407 28.98,34.442 29.738,33.727Z" style="fill:rgb(7,79,77);fill-rule:nonzero;"/>
            </g>
            <g transform="matrix(0.877112,0,0,1.064833,6.441305,-0.878047)">
                <path d="M48.785,29.578C49.582,29.578 50.324,29.07 50.578,28.265C50.59,28.234 51.687,25.074 54.832,24.324C56.844,23.844 58.91,24.473 60.355,26.008C61.07,26.766 62.266,26.801 63.023,26.086C63.781,25.371 63.816,24.176 63.101,23.418C60.754,20.93 57.25,19.871 53.957,20.656C48.687,21.91 47.051,26.902 46.984,27.113C46.598,28.324 47.496,29.578 48.785,29.578Z" style="fill:rgb(7,79,77);fill-rule:nonzero;"/>
            </g>
            <g transform="matrix(0.877112,0,0,1.064833,6.441305,-0.878047)">
                <path d="M86.82,25.883C82.363,25.223 77.777,24.66 73.172,24.203L70.359,12.09C68.809,5.407 62.348,1.02 55.496,2.043C41.176,4.184 25.828,7.633 11.164,12.219C4.571,14.282 0.672,21.032 2.231,27.739L6.082,44.333C9.289,58.142 18.664,70.126 32.055,76.435C35.966,84.201 41.927,90.732 49.332,95.345C53.579,97.99 61.16,99.259 68.668,96.767C75.93,94.353 82.575,88.923 88.418,80.622C93.36,73.599 96.29,65.364 96.887,56.81L98.083,39.822C98.563,32.963 93.657,26.896 86.821,25.884L86.82,25.883ZM9.742,43.481L5.89,26.891C4.789,22.141 7.597,17.274 12.285,15.809C25.797,11.582 40.914,8.024 56.051,5.762C60.918,5.035 65.594,8.192 66.696,12.942L70.547,29.536C74.212,45.317 68.747,61.669 56.649,72.153C52.345,75.875 46.493,77.2 41.028,75.739C25.157,71.485 13.325,58.903 9.743,43.481L9.742,43.481ZM71.68,70.739C69.219,76.907 62.199,79.368 56.551,76.883C58.555,75.626 60.356,73.95 62,72.262C66.024,72.395 69.317,71.594 71.68,70.739ZM94.332,39.555L93.137,56.543C92.586,64.414 89.891,71.988 85.344,78.453C79.976,86.082 73.969,91.043 67.485,93.195C58.141,96.297 51.387,92.191 51.321,92.148C45.782,88.699 41.122,84.082 37.637,78.64C38.437,78.902 39.246,79.144 40.059,79.363C44.105,80.445 48.422,80.3 52.454,78.863C55.102,80.726 58.172,81.597 61.039,81.597C63.192,81.597 67.36,81.121 71.062,77.917C75.457,74.117 76.125,69.066 76.227,67.612C76.273,66.933 75.949,66.28 75.379,65.909C74.809,65.538 74.082,65.503 73.477,65.82C72.371,66.402 69.524,67.894 65.406,68.37C69.981,62.527 73.106,55.702 74.543,48.39C75.949,47.5 77.953,46.968 79.563,47.093C82.777,47.343 84.352,50.277 84.359,50.293C84.82,51.226 85.949,51.601 86.879,51.144C87.809,50.683 88.191,49.554 87.73,48.625C87.707,48.578 85.266,43.769 79.855,43.347C78.367,43.23 76.73,43.468 75.199,43.976C76.059,35.418 74.113,28.371 74.066,28.078C78.188,28.504 82.281,29.016 86.269,29.606C91.133,30.32 94.672,34.691 94.332,39.555Z" style="fill:rgb(7,79,77);fill-rule:nonzero;"/>
            </g>
        </g>
    </g>
</svg>
