<?xml version="1.0" encoding="UTF-8" standalone="no"?>
<!DOCTYPE svg PUBLIC "-//W3C//DTD SVG 1.1//EN" "http://www.w3.org/Graphics/SVG/1.1/DTD/svg11.dtd">
<svg width="100%" height="100%" viewBox="0 0 2293 2293" version="1.1" xmlns="http://www.w3.org/2000/svg" xmlns:xlink="http://www.w3.org/1999/xlink" xml:space="preserve" xmlns:serif="http://www.serif.com/" style="fill-rule:evenodd;clip-rule:evenodd;stroke-linejoin:round;stroke-miterlimit:2;">
    <g id="Mesa-de-trabajo1" serif:id="Mesa de trabajo1" transform="matrix(1,0,0,1,-1850.657168,0)">
        <rect x="1850.657" y="0" width="2292.789" height="2292.789" style="fill:none;"/>
        <clipPath id="_clip1">
            <rect x="1850.657" y="0" width="2292.789" height="2292.789"/>
        </clipPath>
        <g clip-path="url(#_clip1)">
            <g transform="matrix(1.941226,0,0,1.941226,1859.339532,0.012399)">
                <path d="M1003.29,172.378C894.597,61.482 745.49,-0.732 590.225,0L589.235,0C269.479,0.001 6.35,263.131 6.35,582.888C6.35,584.388 6.382,585.857 6.382,587.358C7.586,689.015 33.907,788.814 82.994,877.843L-0.003,1181.097L309.317,1101.293C394.761,1148.203 490.84,1172.388 588.31,1171.521C909.249,1169.765 1172.346,905.136 1172.154,584.165C1172.92,429.952 1112.11,281.645 1003.29,172.378M590.225,1072.564C503.826,1073.014 418.927,1049.83 344.749,1005.529L325.596,995.952L141.409,1043.835L189.291,861.882L176.523,842.729C129.098,766.153 103.966,677.844 103.965,587.772C103.965,322.122 322.564,103.522 588.215,103.522C853.865,103.522 1072.463,322.122 1072.463,587.772C1072.463,755.041 985.797,910.882 843.682,999.144C768.527,1047.287 681.074,1072.78 591.822,1072.564M872.412,718.235L837.298,702.275C837.298,702.275 786.223,679.929 754.302,663.969C751.11,663.969 747.918,660.777 744.725,660.777C736.856,660.971 729.164,663.169 722.38,667.161C715.581,671.151 719.188,670.353 674.498,721.427C671.466,727.397 665.241,731.132 658.538,731.004L655.345,731.004C650.547,730.201 646.098,727.976 642.577,724.62L626.616,718.235C592.37,703.737 561.011,683.192 534.043,657.585C527.659,651.2 518.083,644.815 511.698,638.431C488.067,615.793 467.659,590.015 451.048,561.82L447.855,555.436C445.082,551.534 442.929,547.227 441.471,542.667C440.636,537.139 441.766,531.489 444.663,526.707C447.568,521.918 457.432,510.745 467.008,501.169C476.585,491.593 476.585,485.209 482.969,478.824C489.604,469.61 491.934,457.959 489.353,446.902C474.477,405.597 457.428,365.107 438.279,325.601C433.148,317.621 425.147,311.906 415.934,309.64L380.82,309.64C374.436,309.64 368.052,312.832 361.667,312.832L358.475,316.024C352.091,319.216 345.707,325.601 339.322,328.793C332.938,331.985 329.746,341.562 323.362,347.946C301.05,376.141 288.698,410.95 288.248,446.902C288.602,472.196 294.029,497.164 304.208,520.322L307.401,529.898C336.063,591.178 376.151,646.434 425.511,692.698L438.279,705.467C447.571,713.163 456.12,721.712 463.816,731.004C529.957,788.558 608.516,830.056 693.332,852.306C702.908,855.498 715.677,855.498 725.253,858.69L757.175,858.69C773.858,857.867 790.179,853.515 805.057,845.921C812.877,842.378 820.347,838.101 827.402,833.153L833.786,826.768C840.171,820.384 846.555,817.192 852.939,810.808C859.178,805.249 864.557,798.794 868.9,791.655C875.029,777.354 879.338,762.351 881.669,746.965L881.669,724.62C878.8,722.042 875.575,719.892 872.092,718.235" style="fill:white;fill-rule:nonzero;"/>
            </g>
        </g>
    </g>
</svg>
