<?xml version="1.0" encoding="UTF-8" standalone="no"?>
<!DOCTYPE svg PUBLIC "-//W3C//DTD SVG 1.1//EN" "http://www.w3.org/Graphics/SVG/1.1/DTD/svg11.dtd">
<svg width="100%" height="100%" viewBox="0 0 84 61" version="1.1" xmlns="http://www.w3.org/2000/svg" xmlns:xlink="http://www.w3.org/1999/xlink" xml:space="preserve" xmlns:serif="http://www.serif.com/" style="fill-rule:evenodd;clip-rule:evenodd;stroke-linejoin:round;stroke-miterlimit:2;">
    <g transform="matrix(1,0,0,1,-3.520039,-7.197241)">
        <g transform="matrix(0.873799,0,0,0.719756,-5.467087,0)">
            <g transform="matrix(1.045069,0,0,1.051776,-8.210624,-21.264883)">
                <g transform="matrix(1.144428,0,0,1.389361,6.256687,0)">
                    <path d="M10.86,37.58C9.71,38.73 9.71,40.58 10.86,41.73C11.43,42.3 12.18,42.59 12.93,42.59C13.68,42.59 14.43,42.3 15,41.73C34.3,22.44 65.69,22.44 84.99,41.73C86.14,42.88 87.99,42.88 89.14,41.73C90.29,40.58 90.29,38.73 89.14,37.58C67.56,16 32.44,16 10.86,37.58Z" style="fill:rgb(7,79,77);fill-rule:nonzero;"/>
                </g>
                <g transform="matrix(1.144428,0,0,1.389361,6.256687,0)">
                    <path d="M50,33.12C38.34,33.12 27.38,37.65 19.16,45.88C18.01,47.03 18.01,48.88 19.16,50.03C20.31,51.18 22.16,51.18 23.31,50.03C30.43,42.91 39.91,38.99 50.01,38.99C60.11,38.99 69.59,42.91 76.71,50.03C77.28,50.6 78.03,50.89 78.78,50.89C79.53,50.89 80.28,50.6 80.85,50.03C82,48.88 82,47.03 80.85,45.88C72.62,37.65 61.66,33.12 50,33.12Z" style="fill:rgb(7,79,77);fill-rule:nonzero;"/>
                </g>
                <g transform="matrix(1.144428,0,0,1.389361,6.256687,0)">
                    <path d="M27.45,54.17C26.3,55.32 26.3,57.17 27.45,58.32C28.6,59.47 30.45,59.47 31.6,58.32C41.75,48.18 58.26,48.18 68.4,58.32C68.97,58.89 69.72,59.18 70.47,59.18C71.22,59.18 71.97,58.89 72.54,58.32C73.69,57.17 73.69,55.32 72.54,54.17C60.12,41.74 39.88,41.74 27.45,54.17Z" style="fill:rgb(7,79,77);fill-rule:nonzero;"/>
                </g>
                <g transform="matrix(1.144428,0,0,1.389361,6.256687,0)">
                    <path d="M35.75,62.47C34.6,63.62 34.6,65.47 35.75,66.62C36.9,67.77 38.75,67.77 39.9,66.62C45.48,61.05 54.54,61.05 60.11,66.62C60.68,67.19 61.43,67.48 62.18,67.48C62.93,67.48 63.68,67.19 64.25,66.62C65.4,65.47 65.4,63.62 64.25,62.47C56.39,54.61 43.61,54.61 35.75,62.47Z" style="fill:rgb(7,79,77);fill-rule:nonzero;"/>
                </g>
                <g transform="matrix(1.144428,0,0,1.389361,6.256687,0)">
                    <path d="M50,67.8C47.02,67.8 44.6,70.22 44.6,73.2C44.6,76.18 47.02,78.6 50,78.6C52.98,78.6 55.4,76.18 55.4,73.2C55.4,70.22 52.98,67.8 50,67.8Z" style="fill:rgb(7,79,77);fill-rule:nonzero;"/>
                </g>
            </g>
        </g>
    </g>
</svg>
